<svg xmlns="http://www.w3.org/2000/svg" width="196.845" height="272.487" viewBox="0 0 196.845 272.487">
  <g id="Group_47832" data-name="Group 47832" transform="translate(-34.093 -34.316)">
    <path id="Path_59086" data-name="Path 59086" d="M402.047,291.8a54.549,54.549,0,0,0,8.57-1.111c4.776-.744,9.558-.037,14.33.094q3.706.1,7.409.36c3.036.212,15.932-.158,17.216-.226,3.1-.164,6.4.16,9.437-.423,5.164-.992,25.821-.877,27.37-.877q3.876,0,3.88-4.363v-1.089q-1.228-4.9-2.025-9.9c-.507-3.122-1.193-6.076-1.822-9.168a4.064,4.064,0,0,0-1.428-2.707c-.359-.362-.717-.727-1.078-1.089a2.014,2.014,0,0,0-.616-.481,2.038,2.038,0,0,0-.842-.1c-7.309.15-14.546.306-21.838,1.066-5.91.616-11.688,2.368-17.689,2.6-3.656.142-7.4-.129-11-.242-7.707-.246-15.4-.719-23.091-1.247q-7.269,8.862-10.177,24.535.362,4.364,3.392,4.363Zm11.132-19.1a.573.573,0,0,1,.177-.1,1.842,1.842,0,0,1,.832-.021,50.664,50.664,0,0,0,5.5.513c5.573.123,11.14.136,16.717.14q4.834,0,9.675.035a25.871,25.871,0,0,0,4.256.023c.945-.16,1.845-.512,2.814-.662q3.776-.59,7.578-.992c2.855-.308,5.713-.594,8.578-.8,1.454-.1,2.907-.185,4.363-.238a29.67,29.67,0,0,0,4.166-.226.718.718,0,0,1,.281-.014.746.746,0,0,1,.271.138c.931.645.661,1.912.762,2.929.082.832.175,2.693.279,3.521a5.138,5.138,0,0,1,.045,2.309c-.014.055.053-.016,0,0a18.179,18.179,0,0,1-4.3.565c-1.489.051-2.977.127-4.464.22-2.983.189-5.963.45-8.938.746-7.629.754-15.242,1.724-22.894,2.225H438.4c-1.224,0-2.484-.218-3.7-.318-7.5-.616-15.119-1.512-22.648-.992a3.178,3.178,0,0,1-1.362-.09c-.438-.173-.411-.333-.37-.762a9.531,9.531,0,0,1,.437-1.993,35.012,35.012,0,0,1,1.212-3.921c.246-.479.544-.941.774-1.426.132-.284.2-.629.446-.818Z" transform="translate(-311.214 -113.593)" fill="#93212e"/>
    <path id="Path_59087" data-name="Path 59087" d="M408.1,282.233c3.3.323,6.843-.082,10.142-.045a107.71,107.71,0,0,1,13.406.694c3.9.534,7.9.624,11.826.785.7.031,1.518-.207,2.26-.195,2.642.043,5.285.507,7.915.741a105.436,105.436,0,0,1,11.15-.546h2.907a13.026,13.026,0,0,0,3.71-.8c1.265-.392,1.748-1.978,2.021-3.225.351-1.592-.212-3.416-.429-5.022-.224-1.645-.44-3.291-.666-4.936-.351-2.572-2.568-10.062-2.7-11.093q-2.061-16.625-3.878-19.081-4.121-19.081-8.239-19.083c-3.465,0-6.96.312-10.441.312a59.227,59.227,0,0,0-7.978.779H429.9q-1.856-.172-3.714-.349c-1.565-.146-3.428-.518-4.513,1.019a13.182,13.182,0,0,0-1.1,1.393,14.906,14.906,0,0,0-.69,2.373c-.4,1.325-.822,2.642-1.3,3.944-1.524,4.188-3.33,8.282-4.8,12.473-.855,2.438-1.875,4.926-2.822,7.372-.918,2.373-2.188,5.016-2.457,7.553-.549,5.2-2.175,10.491-3.447,15.571-.288,1.148-.62,2.29-.881,3.445-.2.875-.8,2.062-.631,2.95a2.849,2.849,0,0,0,.61,1.138,4.506,4.506,0,0,0,1.2,1.222,4.347,4.347,0,0,0,1.569.46c.386.062.776.109,1.171.15Zm6.319-10.016a1.7,1.7,0,0,1,.07-.647c.514-2.151,1.309-4.262,1.74-6.423.4-1.98.746-3.965,1.21-5.932a40.961,40.961,0,0,1,1.195-4.265c.283-.809.832-1.567,1.091-2.356q4.481-13.629,5.329-14.176c.493-1.432.99-2.864,1.532-4.277.327-.855.746-2.389,1.672-2.773s2.373-.037,3.355-.037h7.981a19.417,19.417,0,0,0,3.085-.218,53.11,53.11,0,0,1,6.96-.659c1.089-.031,3.64-.355,4.523.335.639.5.762,2.14.972,2.866q.523,1.8,1.039,3.6c.532,1.859,1.058,3.722,1.561,5.589a43.177,43.177,0,0,1,1.251,5.384,118.761,118.761,0,0,0,2.4,12.6q.751,3.031,1.67,6.013c.495,1.6.992,3.2,1.584,4.762a1.8,1.8,0,0,1-.32,2.056c-.626.493-2.038.269-2.806.294q-1.412.044-2.822.105a37,37,0,0,0-4.552.335l-11.631-.544c-7.272-.362-18.122-1.463-19.9-1.317-1.479.123-2.958.259-4.435.4-.836.08-3.264.581-3.71-.557a.808.808,0,0,1-.043-.164Z" transform="translate(-306.598 -151.808)" fill="#93212e"/>
    <g id="Group_47831" data-name="Group 47831">
      <g id="Group_47830" data-name="Group 47830">
        <path id="Path_59078" data-name="Path 59078" d="M416.96,325.918H400.228c-3.687,0-3.687.766-3.687,5.016v23.989c0,3.071.3,3.613,2,3.613,2.323,0,2.6-.2,2.683-1.982l.228-5.218a2.233,2.233,0,0,1,2.436-2.231h8.6a2.271,2.271,0,0,1,2.255,2.334c0,1.876-1.612,2.227-2.475,2.416-1.191.257-1.732.374-1.732,1.939,0,2.122.51,2.5,1.952,2.5h5.029c.657,0,2.406,0,2.406-3.564V330.692c0-3.757-.368-4.774-2.958-4.774Zm-4.525,19.4-9.16-.146c-.436,0-1.917-.175-1.917-2.434l.045-9.825a1.992,1.992,0,0,1,2.3-2.233h8.642c1.843,0,2.666.885,2.666,2.87l.047,8.891c0,1.83-.955,2.876-2.621,2.876Z" transform="translate(-313.219 -51.741)" fill="#93212e"/>
        <path id="Path_59080" data-name="Path 59080" d="M442.764,348.787a53.481,53.481,0,0,1-1.98-14.992,3.421,3.421,0,0,1,1.793-3.408c.542-.333.815-.5.815-1.865,0-2.206-.643-3.322-1.908-3.322a25.167,25.167,0,0,0-4.889.676,27.614,27.614,0,0,1-5.4.725c-1.785,0-3.6-.012-5.423-.023s-3.63-.025-5.409-.025c-2.636,0-3.188,2.6-3.188,4.774v8.515a30.435,30.435,0,0,1-2.958,11.723c-.953,1.968-1.849,3.821-1.888,5.191a2.053,2.053,0,0,0,.589,1.448,2.943,2.943,0,0,0,2.286,1.017c1.865-.138,2.559-1.382,3.334-3.122,2.7-5.867,3.913-14.821,3.913-21.1a2.345,2.345,0,0,1,2.255-2.627c.624,0,2.073.294,2.073,3.014,0,3.652-.037,7.153-.072,10.587-.033,3.3-.068,6.53-.068,9.774,0,2.983.4,3.469,2.868,3.469,2.165,0,2.27-.119,2.27-2.547,0-3.654.012-7.188.023-10.719s.021-7.058.021-10.707c0-1.608.949-2.773,2.256-2.773,2.208,0,2.208,2.1,2.208,3.352,0,11.341,1.982,23.395,5.653,23.395,1.368,0,3.463-1.288,3.463-2.4,0-1.183-.968-3.644-1.676-5.439-.378-.959-.735-1.865-.963-2.59Z" transform="translate(-298.243 -52.424)" fill="#93212e"/>
        <path id="Path_59082" data-name="Path 59082" d="M445.148,332.641l11.389.049c2.607,0,2.905-.251,2.905-2.451,0-2.424-1.005-2.79-4.466-2.79H441.584c-1.208,0-1.6-1.165-1.793-1.726-.288-.854-.479-1.417-1.956-1.417-2.812,0-2.954.38-4.045,3.332-.2.54-.47,1.2-.766,1.923-.883,2.159-2.216,5.423-2.216,6.966,0,1.3,2.028,2.161,3.367,2.161s1.836-1.089,2.428-3.531c.36-1.473.766-3.143,2.284-3.143a1.787,1.787,0,0,1,1.841,1.853,11.84,11.84,0,0,1-1.541,5.972,18.016,18.016,0,0,0-2.19,3.829,13.109,13.109,0,0,0-.329,3.533c-.047,3.26-.055,6.522-.055,9.782,0,2.268.852,2.89,3.961,2.89l16.183-.049c1.861,0,2.459-.666,2.459-2.742,0-1-.195-1.824-2.594-1.824H445.239c-3.168,0-3.168-2.718-3.168-4.706,0-1.38,0-5.045,2.346-5.045h11.154c2.453,0,2.868-.6,2.868-2.4,0-1.586-.421-2.112-2.911-2.112h-10.47c-1.923,0-2.9-1.323-2.9-3.93,0-3.654,1.625-4.419,2.987-4.419Z" transform="translate(-280.714 -53.271)" fill="#93212e"/>
        <path id="Path_59084" data-name="Path 59084" d="M404.938,351.733a13.114,13.114,0,0,1-3.026-1.991c-.131-.119-3.5-3.227-3.5-4.975,0-.692.283-1.853,2.165-1.853l.59-.018c3.114-.078,4.123-.31,4.149-2.74l.045-8.02c.021-2.769-.016-4.636-.7-5.361-.563-.6-1.882-.857-4.41-.857l-14.671.049c-4.094,0-5.2.557-5.2,4.482,0,.982.012,1.964.021,2.95.012,1.007.023,2.023.023,3.048a52.767,52.767,0,0,1-.284,6.15,55.237,55.237,0,0,1-1.491,7.37,14.878,14.878,0,0,1-1.226,3.048,7.461,7.461,0,0,0-1.068,3.7c0,.924,2.393,1.824,3.778,1.824,2.646,0,4.131-6.1,4.69-8.391l.043-.17a15.538,15.538,0,0,0,.218-1.8c.181-2.1.452-5.261,3.371-5.261h1.187a2.337,2.337,0,0,1,2.51,1.442,27.722,27.722,0,0,0,3.24,6.725c1.454,2.192,6.236,7.455,9.429,7.455a3.31,3.31,0,0,0,3.1-3.176c0-1.964-.97-2.562-2.989-3.626ZM397.152,338.3c-.29,0-.583-.016-.85-.027-.193-.01-.37-.019-.522-.019h-4.3c-.119,0-.286.006-.485.016-.329.016-.739.031-1.161.031-.931,0-3.763,0-3.763-2.239,0-.286-.01-.581-.019-.873-.045-1.344-.086-2.611.659-3.426a1.825,1.825,0,0,1,1.385-.6h8.231c2.081,0,3.808.224,3.808,2.968,0,.226-.01.452-.019.709-.012.294-.027.635-.027,1.08,0,.717-.286,2.383-2.938,2.383Z" transform="translate(-332.359 -51.741)" fill="#93212e"/>
        <path id="Path_59085" data-name="Path 59085" d="M388.348,373.419q-.971,8.728-7.755,31.622a4.732,4.732,0,0,1,.483,2.18q0,3.543,26.173,7.633a5.29,5.29,0,0,0,3.393-1.635,84.72,84.72,0,0,1,6.785-15.811q1.85-5.887,3.695-11.773c1.52-4.838,3.081-9.614,4.314-14.517a2.548,2.548,0,0,1,.351-.894,2.268,2.268,0,0,1,2.013-.678c1.029.051,2.052.06,3.079.06h6.563c5.031,0,10.105-.413,15.107.32,2.759.405,5.37,1.159,8.161,1.459,5.218.561,10.624.181,15.854.057,7.412-.175,14.823-.444,22.233-.674,2.8-.086,12.781-1.748,14.215,1.335.516,1.109.327,2.654.524,3.856.148.894.3,1.791.462,2.681.4,2.206.822,4.4,1.259,6.6q.842,4.224,1.736,8.437c.672,3.186,2.214,7.036,2.214,10.273q0,13.629,5.333,13.63h1.937q6.664-3.271,22.294-7.087,8.728-3.136,8.726-7.089c0-4.334-1.074-8.732-2.036-12.929-.737-3.219-1.787-6.386-2.722-9.552-1.261-4.281-2.467-8.511-3.35-12.876-.115-.569-.189-1.588.359-2a.781.781,0,0,1,.222-.107,16.774,16.774,0,0,1,2.789-.589,19.181,19.181,0,0,0,2.716-.836,3.533,3.533,0,0,0,.575-.238,3.274,3.274,0,0,0,1.391-1.945,19.115,19.115,0,0,0,.516-2.381,12.861,12.861,0,0,0,0-3.618c-.294-2.43-1.029-4.782-1.325-7.21-.3-2.475-1.559-4.776-1.559-7.325q0-11.446-6.785-11.448c-2.644.281-5.287.588-7.911,1.007-1.247.2-4.819,1.514-5.384-.041a9.332,9.332,0,0,1-.279-2.6c0-.974-.4-2.989.5-3.628,2.309-1.643,6-1.169,8.693-1.561a61.733,61.733,0,0,0,9.521-2.171,7.31,7.31,0,0,0,2.225-1c1.682-1.255.871-3.94.871-5.815,0-3.3-.246-6.6-.54-9.889-.2-2.245-.435-4.49-.688-6.73-.242-2.112.353-3.831-.456-6a4.713,4.713,0,0,0-2.64-2.872,6.988,6.988,0,0,0-2.732-.21q-4.946.269-9.891.544c-2.808.152-6.121.822-8.847-.1-1.993-.674-2.3-2.929-2.956-4.669-.8-2.138-1.676-4.252-2.354-6.434q-1.643-5.282-3.168-10.6c-1.354-4.723-1.953-9.6-3.12-14.381-.916-3.759-2.069-6.958-3.116-11.282a1.831,1.831,0,0,1,.01-.957c.294-1.011,1.785-1.51,3.615-1.876,2.009-.4,4.2-1.169,6.2-1.569a37.744,37.744,0,0,0,5.246-.928c2.51-.871,4.595-2.621,4.595-5.458V230.04a43.507,43.507,0,0,0-1.723-12.777c-1.413-4.6-1.109-11.847-6.2-14.067a3.79,3.79,0,0,0-1.134-.359c-1.684-.16-3.837,1.089-5.456,1.565-1.8.53-3.619,1-5.44,1.438-4.782,1.152-9.614,2.085-14.459,2.937l-40.229,2.182c-1.212,0-19.143-1.454-24.716-1.091-6.224.405-12.818-.3-19.047-.694-1.775-.111-3.541-.279-5.312-.458-2.695-.277-5.384-1.029-8.114-1.029h-.483q-2.908,0-3.878,3.272-2.788,18.4-5.819,25.622v2.18q0,3.274,16,3.274,10.417,3.271,11.146,3.27a27.775,27.775,0,0,0-1.939,8.72l-4.361,16.358c-1.218,4.566-2.4,9.139-3.811,13.652-.52,1.656-1.064,3.307-1.662,4.938-.514,1.407-.85,4.529-2.145,5.435a4.452,4.452,0,0,1-1.709.6l-17.424,3.537a3.162,3.162,0,0,0-2.426,1.356,10.9,10.9,0,0,0-.331,3.85c.018,1.193.105,2.385.179,3.574.189,3.137.45,6.271.734,9.4-.323,1.91-.485,3-.485,3.272q1.336,7.085,4.365,7.087a37.4,37.4,0,0,0,5.815-.546l2.907.546-3.393,11.448a21,21,0,0,0-8.241-1.635h-.483q-4.364.409-4.363,1.635-4.72,0-7.268,27.259a22.378,22.378,0,0,0,.968,4.907q.482,1.368,12.6,2.724Zm-1.939-26.709a23.3,23.3,0,0,1,7.268,1.635,28.01,28.01,0,0,0,3.9-.07c3.272-.462,5.986-5.941,6.764-8.656q3.388-11.855,3.393-17.989a4.5,4.5,0,0,0-3.671-4.166c-3.221-.7-6.6-.4-9.817-.9-.4-2.763-.431-5.633-.635-8.424a1.56,1.56,0,0,1,1.514-2.175l16.37-2.116c1.674-.216,2.533-3.509,3.147-4.866q1.517-3.332,2.808-6.76a149.521,149.521,0,0,0,4.823-15.3c.873-3.342,1.454-6.767,2.313-10.119.867-3.391,2.128-6.76,2.81-10.2a57.985,57.985,0,0,1,2.37-8.656c1.1-3.046,2.974-7.422-.491-9.519a12.375,12.375,0,0,0-3.451-1.247l-12.754-3.225c-1.748-.44-5.329-.626-6.738-1.7-1.477-1.126-.945-.312-1.14-2.1-.279-2.562.5-5.179,1.126-7.635.7-2.709,1.228-3.95,4.19-3.841,1.958.074,3.917.136,5.875.208q8.427.319,16.851.664a33.193,33.193,0,0,0,6.4-.284c2.545-.37,5.349.138,7.923.249q10.706.465,21.431.183,5.358-.143,10.709-.47c2.977-.181,5.982-.643,8.975-.643a176.233,176.233,0,0,0,19.823-1.5c2.859-.325,5.719-.672,8.543-1.232,1.493-.3,5.7-2.323,6.814-.811.824,1.122.968,3.141,1.265,4.454.477,2.106,1.28,4.412,1.1,6.584-.166,2.058-5.1,2.428-6.522,2.738-.844.185-5.9,2.693-9.963,4.141a7.164,7.164,0,0,0-3.363,1.976c-1.115,1.608-.791,3.8-.152,5.645,1.142,3.311,1.645,6.575,2.72,9.9q1.014,3.133,2.029,6.272a200.989,200.989,0,0,0,5.329,24.531c2.161,5.565,4.24,10.764,7.424,15.8a4.741,4.741,0,0,0,5.99,2.621c4.721-.629,9.447-1.142,14.209-1.619a3.89,3.89,0,0,1,2.048.166c1.372.647.953,4.059,1.043,5.386,0,2.6,2.27,6.744.308,9.071-1.113,1.317-3.784,1.495-5.341,1.919a105.938,105.938,0,0,1-11.132,2.311c-1.674.269-2.7,1.758-3.712,2.958a1.9,1.9,0,0,0-.318.46c-1.1,2.568.025,6.218.325,8.9q.555,4.966,1.111,9.932a7.355,7.355,0,0,0,.69,2.788,2.982,2.982,0,0,0,2.864,1.458h.485c2.742-.772,5.5-1.487,8.3-2.032.91-.177,5.224-1.327,5.758-.581a1.808,1.808,0,0,1,.249.889q.4,3.844.994,7.666c.269,1.711-.033,3.656.606,5.267,1.27,3.2-3.365,2.065-5.2,2.751-2.019.758-3.747,2.221-3.441,4.575q.576,4.408,1.152,8.81a62.657,62.657,0,0,0,3.921,14.766,54.413,54.413,0,0,1,1.945,5.951c.624,2.3,1.709,5.158,1.709,7.547v.544q0,1.365-19.874,6l-6.3-31.074a18.116,18.116,0,0,0-.8-4.8c-.458-1.633-.538-3.3-.875-4.984a5.486,5.486,0,0,0-2.689-4.073,7.065,7.065,0,0,0-3.375-.355c-4.082.236-8.184.1-12.212.7-1.421.21-2.829.468-4.252.659-4.357.583-33.553.316-46.56-1.863H431.223c-3.311,0-6.658.7-10,.928a1.109,1.109,0,0,0-1.181.855,156.232,156.232,0,0,0-8.43,24.385q0,2.043-7.268,17.989-3.639,0-13.087-2.179v-.546q0-2.724,4.363-16.357c0-1.44.774-3.3,1.074-4.727q.629-3.016,1.29-6.027c.62-2.831,1.873-5.357.027-7.892a3.27,3.27,0,0,0-2.806-1.795c-.713-.1-10.725-.965-10.733-1.914a76.261,76.261,0,0,1,1.939-15.8Z" transform="translate(-333.863 -168.507)" fill="#93212e"/>
        <path id="Path_59089" data-name="Path 59089" d="M481.928,325.769a2.814,2.814,0,0,0-3.055,2.672c-.09,1.015-.168,2.134-.249,3.311-.37,5.39-.836,12.1-3.09,16.409-.043.084-.111.234-.195.417-1,2.179-2.021,4.133-3.513,4.133a1.725,1.725,0,0,1-1.707-1.853,6.671,6.671,0,0,1,1.234-3.067c.263-.448.536-.91.731-1.321.006-2.005.051-4.03.092-5.992.047-2.036.094-4.145.094-6.208,0-4.17-1.651-4.4-5.717-4.554-.526-.019-1.068-.041-1.612-.078-1.952-.132-2-1.974-2.019-2.668a2.943,2.943,0,0,0-.064-.676c-.183-.343-.955-.524-2.28-.524a5.826,5.826,0,0,0-2.179.222,6.14,6.14,0,0,0-.674,2.034,1.911,1.911,0,0,1-2.13,1.565c-.444,0-.877-.014-1.309-.023-.413-.012-.826-.025-1.249-.025-2.3,0-2.73.528-2.73,3.322,0,2.182.922,2.4,3.361,2.426,1.341.016,3.587.039,3.587,2.315,0,6.247-2.455,10.994-7.956,15.39a2.078,2.078,0,0,0-.914,2.118c0,1.686,1.2,3.564,2.913,3.564a5.161,5.161,0,0,0,2.282-1.216l.2-.152c3.921-3.079,6.966-8.64,8.133-14.864.134-.709.2-1.356.269-2.042a23.459,23.459,0,0,1,.427-2.886,2.038,2.038,0,0,1,2.221-1.814,1.931,1.931,0,0,1,2.208,2.143c0,2.568-.021,5.086-.045,7.605s-.045,5.022-.045,7.582c0,3.533,1.908,5.643,5.105,5.643a6.623,6.623,0,0,0,5.758-3.227,48.737,48.737,0,0,0,7.257-25.583c0-3.141-.733-4.1-3.137-4.1Z" transform="translate(-264.042 -51.883)" fill="#93212e"/>
        <path id="Path_59091" data-name="Path 59091" d="M565.212,317.236q-1.307.126-2.5.214c-.214.023-.421.037-.633.055-.094-.082-.129-.123-.066-.1s.1.016.1-.045-.033-.057-.1,0-.1.06-.1,0a1.593,1.593,0,0,1-.8.131,7.341,7.341,0,0,0-.8-.043c0-.171.1-.23.3-.171a.436.436,0,0,0,.5-.173h-.8c.131.115.066.173-.2.173v-.259h-.4v.259c0-.173-.029-.187-.1-.043a.566.566,0,0,1-.053.093c.019.023.029.021.043.033h-.308a.25.25,0,0,0,.017-.084h-.4v.084h-.4c-.135,0-.17.016-.1.045s.027.043-.1.043c-.226,0-.421.006-.6.016v-.1a1.549,1.549,0,0,1-.16.115,3.562,3.562,0,0,0-.442.057v-.084a13.609,13.609,0,0,1-1.407.084c-.053,0-.117.006-.171.008l-.023-.008-.016.008c-.355.008-.744.033-1.192.08a3.029,3.029,0,0,1-.4.051v-.051l-.123.051a3.088,3.088,0,0,1-.378-.008,3.073,3.073,0,0,0-.9.043,4.8,4.8,0,0,1-1.1.043,3.126,3.126,0,0,0-.9.043,1.1,1.1,0,0,1,.6-.129,1.549,1.549,0,0,0,.6-.043h.2a7.591,7.591,0,0,0,1.4-.088,2.448,2.448,0,0,0-.8-.084v.084a6.146,6.146,0,0,0-1.2-.041q-.4.044-1.4.129h.6a1.8,1.8,0,0,0-.4.043,1.934,1.934,0,0,1-.4.043h.6a5.721,5.721,0,0,1-1,.082,3.852,3.852,0,0,1-.4-.082c0-.057.068-.072.2-.043s.2-.014.2-.131c0,.058-.062.072-.2.045a.454.454,0,0,0-.4.129c-.133,0-.735-.057-1.8-.173h-1v-.084h-1a14.346,14.346,0,0,1-1.506.084h0s-.959.033-2.689.088h-2.021q-2.4.085-6.015.129t-8.018.131c-.933,0-1.838.027-2.7.084s-1.839.088-2.905.088q-7.62.175-15.037.3c-3.741.066-7.533.119-11.354.168l-.035-.006c-6.393.253-14.33.357-22.886.363s-16.493-.109-22.886-.363l-.035.006c-3.819-.049-7.613-.1-11.353-.168q-7.421-.129-15.037-.3c-1.068,0-2.034-.029-2.905-.088s-1.769-.084-2.7-.084q-4.408-.088-8.018-.131t-6.013-.129h-2.023c-1.728-.055-2.687-.088-2.687-.088h0a14.309,14.309,0,0,1-1.5-.084h-1v.084h-1.005c-1.068.117-1.672.173-1.8.173a.457.457,0,0,0-.4-.129c-.133.027-.195.014-.195-.045,0,.117.062.16.195.131s.2-.014.2.043a3.926,3.926,0,0,1-.4.082,5.758,5.758,0,0,1-1-.082h.6a1.934,1.934,0,0,1-.4-.043,1.8,1.8,0,0,0-.4-.043h.6c-.67-.057-1.134-.1-1.4-.129a6.144,6.144,0,0,0-1.2.041v-.084a2.47,2.47,0,0,0-.8.084,7.6,7.6,0,0,0,1.4.088h.2a1.559,1.559,0,0,0,.6.043,1.1,1.1,0,0,1,.6.129,3.136,3.136,0,0,0-.9-.043,4.777,4.777,0,0,1-1.1-.043,3.077,3.077,0,0,0-.9-.043,3.091,3.091,0,0,1-.378.008l-.123-.051v.051a3.025,3.025,0,0,1-.4-.051c-.448-.047-.84-.072-1.195-.08l-.01,0a.063.063,0,0,0-.027,0c-.054,0-.119-.008-.173-.008a13.546,13.546,0,0,1-1.4-.084v.084a3.564,3.564,0,0,0-.442-.057,1.221,1.221,0,0,1-.16-.115v.1c-.177-.01-.374-.016-.6-.016-.131,0-.168-.014-.1-.043s.035-.045-.1-.045h-.4v-.084h-.4a.209.209,0,0,0,.018.084h-.31c.016-.012.025-.01.045-.033a.7.7,0,0,1-.055-.093c-.068-.144-.1-.131-.1.043v-.259h-.4v.259c-.269,0-.335-.058-.2-.173h-.8a.433.433,0,0,0,.5.173c.2-.058.3,0,.3.171a7.343,7.343,0,0,0-.8.043,1.58,1.58,0,0,1-.8-.131c0,.06-.029.06-.1,0s-.1-.057-.1,0,.033.074.1.045.027.016-.066.1c-.212-.018-.419-.031-.635-.055-.8-.058-1.633-.13-2.5-.214a8.607,8.607,0,0,0-2.307.043,2.1,2.1,0,0,0-.6-.134v.134a10.938,10.938,0,0,1,1.306.084c.466.06.9.115,1.3.171h-.2l1.2.173a1.619,1.619,0,0,0-.6.086c.752.109,1.619.189,2.6.246v.014c0,.057-.031.07-.1.043s-.1-.016-.1.043c0,.115.033.142.1.086s.171-.029.306.086v-.086a4.374,4.374,0,0,0,.9.086h.9v-.086a.484.484,0,0,1,.066-.023l.047,0c-.006.008,0,.006-.012.019-.064.057-.033.086.1.086a.448.448,0,0,1,.014-.1c.062.006.123.01.185.014,0,.027,0,.049,0,.082h.3c.07,0,.1.058.1.171h-.2c.4.057.933.1,1.6.131l.479.023a.454.454,0,0,1-.082.019h.2c.267.17.47.23.6.17v-.086c0,.117.029.173.1.173s.1-.027.1-.088v-.086a2.821,2.821,0,0,0,1.1.173,9.325,9.325,0,0,1,1.3.086.505.505,0,0,1-.5.086c-.2-.055-.3,0-.3.171a.735.735,0,0,0-.5-.171c-.2,0-.3.058-.3.171l-.2-.171c0,.115.033.171.1.171s.105.059.105.172c-.271.117-.435.086-.5-.086s-.168-.2-.3-.086c.134.059.134.086,0,.086,0-.172-.066-.244-.2-.214a.455.455,0,0,1-.4-.129v.257a11.721,11.721,0,0,1-2.2.129c-.67-.027-1.337-.043-2.009-.043a.865.865,0,0,1-.3-.041.765.765,0,0,0-.3-.045v.086a1.036,1.036,0,0,1-.6,0,.829.829,0,0,0-.6.086,1.346,1.346,0,0,1,1.1.131,2.066,2.066,0,0,0,1.306.214l.2-.259a7.115,7.115,0,0,0,2.609.345v-.173a.43.43,0,0,0,.5.173.876.876,0,0,1,.7.171c0,.059-.035.059-.1,0s-.1-.027-.1.086a.588.588,0,0,0,.5.131q.3-.044.3.129a2.594,2.594,0,0,1-.7-.086,1.947,1.947,0,0,0-.5-.086c-.269,0-.435.043-.5.127s-.037.045.1-.127a2.274,2.274,0,0,1-1-.043,1.545,1.545,0,0,0-.8-.045c-.4,0-.6-.027-.6-.086l-.2.086h-.2a5.64,5.64,0,0,0-2.4,0h-2.2c-.4,0-.6-.027-.6-.086s.037-.072.1-.043.1.016.1-.043a1.506,1.506,0,0,0-1,0,2.086,2.086,0,0,1-1,.086c0,.117-.033.144-.1.086s-.1-.027-.1.088a1.56,1.56,0,0,0,.6.043,1.1,1.1,0,0,1,.6.129v.088c0-.058-.133-.029-.4.084l.4.086a3.652,3.652,0,0,0-.6.172,2.1,2.1,0,0,0,1,.129,1.594,1.594,0,0,1,1,.216c-.269.117-.435.16-.5.129a1.222,1.222,0,0,0-.5.045v.084a2.734,2.734,0,0,0-1,.345,1.965,1.965,0,0,0,.4.129c.133.029.2.131.2.3,0-.113.07-.185.2-.212s.2-.016.2.043c0,.115-.066.17-.2.17s-.2.029-.2.088a3.225,3.225,0,0,0,.5-.131c.068-.025.035.016-.1.131h.2v-.088q0,.175.2,0c.134-.113.134-.055,0,.173.134,0,.2-.027.2-.086a2.2,2.2,0,0,0,.4.129,2.228,2.228,0,0,1,.4.13v-.088h.2c-.131.115-.168.173-.1.173s.1.027.1.084v.173c0,.057.068.084.2.084s.2-.027.2-.084v.172c.271-.115.4-.158.4-.131v.131h.2l.4-.172v.214c0-.027.068-.1.2-.214v.257a.477.477,0,0,0,.4,0c.134-.058.134-.027,0,.086l.4-.086v.086h.2c0,.057.064.115.2.172h.2v.173l.2-.086a1.734,1.734,0,0,1,.5.043c.068.029.17-.014.3-.13,0,.117.07.146.2.088s.2-.057.2,0v.086c.134-.056.23-.056.3,0s.168.029.3-.086v.17a2.433,2.433,0,0,1,.8.088,2.421,2.421,0,0,0,.8.086,2.446,2.446,0,0,0,.8.043.772.772,0,0,1,.6.131c.267,0,.4-.029.4-.086v-.014a1.606,1.606,0,0,0,.2.1h.2a1.576,1.576,0,0,1,.468.123.481.481,0,0,0-.07,0c-.133.031-.2.1-.2.216,0,.078.031.113.094.111-.059.014-.094.033-.094.06.267,0,.4.029.4.086s.068.031.2-.086v.173c0,.057.068.086.2.086l.2-.086h.2v.086l.2-.086v.086l.2-.086v.086a3.832,3.832,0,0,0,.8.084,3.741,3.741,0,0,1,.655.064l.166.006.181-.154a.343.343,0,0,0,.035.162l.263.01h0c.2-.115.3-.115.3,0,.134,0,.17-.016.1-.043s-.033-.045.1-.045a2.067,2.067,0,0,0,.357.117c25.788.9,56.392.362,81.628-.456,25.238.818,55.841,1.352,81.628.456a2.066,2.066,0,0,0,.357-.117c.133,0,.169.016.1.045s-.031.043.1.043c0-.115.1-.115.3,0h0l.261-.01a.321.321,0,0,0,.035-.162l.183.154.166-.006a3.705,3.705,0,0,1,.655-.064,3.859,3.859,0,0,0,.8-.084v-.086l.2.086v-.086l.2.086v-.086h.2l.2.086c.136,0,.2-.029.2-.086V324.5c.133.117.2.142.2.086s.133-.086.4-.086c0-.027-.039-.047-.1-.06.06,0,.1-.033.1-.111,0-.115-.07-.185-.2-.216a.466.466,0,0,0-.07,0,1.584,1.584,0,0,1,.47-.123h.2a1.555,1.555,0,0,0,.2-.1v.014c0,.057.136.086.4.086a.776.776,0,0,1,.6-.131,15.288,15.288,0,0,0,1.6-.129,2.418,2.418,0,0,1,.8-.088v-.17c.134.115.23.144.3.086s.166-.056.3,0v-.086q0-.085.2,0c.134.058.2.029.2-.088.129.117.23.16.3.13a1.754,1.754,0,0,1,.5-.043l.2.086v-.173h.2c.133-.057.2-.115.2-.172h.2v-.086l.4.086c-.134-.113-.134-.144,0-.086a.481.481,0,0,0,.4,0v-.257c.133.115.2.187.2.214v-.214l.4.172h.2v-.131c0-.027.133.016.4.131v-.172c0,.057.064.084.2.084s.2-.027.2-.084v-.173c0-.057.031-.084.1-.084s.027-.058-.1-.173h.2v.088a2.3,2.3,0,0,1,.4-.13,2.247,2.247,0,0,0,.4-.129c0,.059.066.086.2.086-.132-.228-.132-.286,0-.173s.2.117.2,0v.088h.2c-.133-.115-.168-.156-.1-.131a3.225,3.225,0,0,0,.5.131c0-.058-.07-.088-.2-.088s-.2-.055-.2-.17c0-.058.066-.072.2-.043s.2.1.2.212c0-.17.066-.271.2-.3a1.99,1.99,0,0,0,.4-.129,2.719,2.719,0,0,0-1-.345v-.084a1.212,1.212,0,0,0-.5-.045c-.068.031-.234-.012-.5-.129a1.585,1.585,0,0,1,1-.216,2.094,2.094,0,0,0,1-.129,3.738,3.738,0,0,0-.6-.172l.4-.086c-.265-.113-.4-.142-.4-.084v-.088a1.087,1.087,0,0,1,.6-.129,1.57,1.57,0,0,0,.6-.043c0-.115-.033-.144-.105-.088s-.1.031-.1-.086a2.085,2.085,0,0,1-1-.086,1.505,1.505,0,0,0-1,0c0,.058.029.074.1.043s.1-.012.1.043-.2.086-.6.086h-2.2a5.64,5.64,0,0,0-2.4,0h-.2l-.2-.086c0,.059-.2.086-.6.086a1.545,1.545,0,0,0-.8.045,2.275,2.275,0,0,1-1,.043c.134.171.168.214.1.127s-.232-.127-.5-.127a1.934,1.934,0,0,0-.5.086,2.608,2.608,0,0,1-.7.086c0-.115.1-.158.3-.129a.59.59,0,0,0,.5-.131c0-.113-.031-.14-.1-.086s-.1.059-.1,0a.872.872,0,0,1,.7-.171.429.429,0,0,0,.5-.173v.173a7.125,7.125,0,0,0,2.611-.345l.2.259a2.061,2.061,0,0,0,1.3-.214,1.346,1.346,0,0,1,1.1-.131.827.827,0,0,0-.6-.086,1.03,1.03,0,0,1-.6,0v-.086a.765.765,0,0,0-.3.045.87.87,0,0,1-.3.041c-.67,0-1.337.016-2.007.043a11.742,11.742,0,0,1-2.2-.129V319a.449.449,0,0,1-.4.129c-.135-.029-.2.043-.2.214-.133,0-.133-.027,0-.086-.133-.113-.23-.086-.3.086s-.232.2-.5.086c0-.113.035-.172.1-.172s.1-.056.1-.171l-.2.171c0-.113-.1-.171-.3-.171a.742.742,0,0,0-.5.171c0-.171-.1-.226-.3-.171a.505.505,0,0,1-.5-.086,9.315,9.315,0,0,1,1.3-.086,2.815,2.815,0,0,0,1.1-.173v.086c0,.06.035.088.1.088s.1-.057.1-.173v.086c.133.06.335,0,.6-.17h.2a.389.389,0,0,1-.082-.019l.479-.023c.668-.029,1.2-.074,1.6-.131h-.2c0-.113.033-.171.1-.171h.3c0-.033,0-.055,0-.082.06,0,.123-.008.183-.014a.448.448,0,0,1,.016.1c.131,0,.164-.029.1-.086-.014-.014-.006-.012-.01-.019l.047,0c.02.008.029.008.066.023v.086h.9a4.405,4.405,0,0,0,.9-.086v.086c.133-.115.234-.14.3-.086s.1.029.1-.086c0-.058-.033-.07-.1-.043s-.1.014-.1-.043v-.014c.984-.057,1.853-.136,2.605-.246a1.638,1.638,0,0,0-.6-.086l1.2-.173h-.2c.4-.057.834-.111,1.3-.171a10.911,10.911,0,0,1,1.306-.084v-.134a2.1,2.1,0,0,0-.6.134,8.607,8.607,0,0,0-2.307-.043Zm-187.922.9a.11.11,0,0,0-.023-.072c.021,0,.043,0,.066,0a.084.084,0,0,0,.051,0l.066.006c-.1.08-.16.107-.16.058Zm.8.086-.4-.086V318.1c.134.01.265.023.4.031l.006.008v.086Zm1.52-.861a1.211,1.211,0,0,1-.119-.084c.133-.115.2-.1.2.041,0,.029.01.029.016.043Zm.483.947h-.2c0-.018-.006-.019-.008-.033l.208.016v.018Zm-.22-.8c.131.01.271.016.419.019l0,.01a.741.741,0,0,1-.421-.029Zm.953.029h.273a1.592,1.592,0,0,1,.6.088,3.418,3.418,0,0,1-.871-.088Zm1.274.056a.5.5,0,0,1-.057-.025.336.336,0,0,0,.057-.031v.056Zm1.1.117a.1.1,0,0,0-.076.029l-.07,0a.378.378,0,0,0-.041-.053c.074,0,.154.012.228.016-.014,0-.023.012-.041.012Zm1.52.16-.014,0a.435.435,0,0,0-.014-.107l.121,0a.454.454,0,0,0-.094.107Zm-10.437,3.365c0,.058-.031.074-.1.043a.132.132,0,0,1-.1-.129c0-.057.029-.07.1-.043a.138.138,0,0,1,.1.129c.134-.055.2-.055.2,0s-.066.058-.2,0Zm.6.088v-.088c0,.058.134.088.4.088l-.4.084v-.084Zm0,1.374h-.2v-.084c0-.058.07-.086.2-.086,0,.113.1.142.3.086s.3,0,.3.169c-.4,0-.6-.025-.6-.086Zm1.2,0a.606.606,0,0,1-.4.173c-.132,0-.066-.057.2-.173l.2-.084v.084Zm-.4-1.331a.312.312,0,0,0-.4.041.479.479,0,0,1,.4-.129,1.746,1.746,0,0,0,.4.045.307.307,0,0,1-.4.043Zm11.425-3.474a5.2,5.2,0,0,1,.992.1,3.05,3.05,0,0,1-.39.064c-.2,0-.4-.012-.6-.018v-.146Zm-.8-.1.01.01c0,.033.041.07.1.1a.871.871,0,0,0-.257.084c-.092-.006-.183-.016-.273-.021a.672.672,0,0,1-.133-.189c.185,0,.372.014.557.014Zm-.639.035a.1.1,0,0,0-.06.008c-.068.031-.1.014-.1-.043a.294.294,0,0,1,.16.035Zm-.16,1.169c0,.057.064.086.2.086,0,.115-.039.129-.1.043s-.168-.1-.3-.043c.134-.115.2-.142.2-.086Zm-.6,1.076c0-.088.068-.072.2.041.131-.056.2-.056.2,0s.066.088.2.088c0-.057.031-.088.1-.088s.1.031.1.088h-.2c0,.056-.068.056-.2,0,0,.115.033.171.1.171s.1.058.1.171a.259.259,0,0,1-.4-.041c-.133-.144-.2-.131-.2.041,0-.171-.035-.257-.1-.257s-.1-.056-.1-.173c.129.059.2.045.2-.041Zm-1.6,0c.131.027.2.014.2-.045.267-.113.329-.113.2,0-.047.045-.06.066-.056.076a1.39,1.39,0,0,1-.142.01c0,.117.1.173.3.173s.3.029.3.086a.438.438,0,0,1-.5.043,1.865,1.865,0,0,1-.5-.3c0-.056.066-.072.2-.041Zm.6-.045c0,.039-.076.059-.183.07a1.375,1.375,0,0,0,.183-.07Zm-1.3.516c.064,0,.1.029.1.086v-.086a1.317,1.317,0,0,0,.7.129,2.022,2.022,0,0,1,.7.045c0,.115-.1.158-.3.129a2,2,0,0,1-.5-.129v.24a1.969,1.969,0,0,1-.2-.156v.172c-.4,0-.6-.084-.6-.255,0-.115.031-.173.1-.173Zm.9.429c0,.076-.062.07-.173,0Zm-2.305-.513a1.042,1.042,0,0,1,.7.084v.173c.134-.058.2-.058.2,0h-.2a.732.732,0,0,0-.7-.129c-.2.084-.437.014-.7-.216a1.05,1.05,0,0,0,.7.088Zm-1.3-.173h.2c-.133.115-.133.144,0,.086s.2-.057.2,0c0,.115-.068.171-.2.171s-.2-.057-.2-.171v-.086Zm-.8,1.117v-.084c0,.057.066.057.2,0l-.2.17V321.4Zm-1.705-.084a.47.47,0,0,0,.3.084c-.131.173-.228.216-.3.131a.352.352,0,0,0-.3-.131c.134-.113.232-.14.3-.084Zm-.3,0c0,.115-.035.156-.1.129a.14.14,0,0,1-.1-.129c.136.057.2.057.2,0Zm-.6.17-.2-.17c.273-.056.435-.045.5.043.047.053.074.064.09.037a.166.166,0,0,1-.09.134c-.064.029-.1-.014-.1-.131v.173l-.2-.088Zm.9,1.076a5.573,5.573,0,0,0-.7-.041,1.31,1.31,0,0,1,.8-.088,3.762,3.762,0,0,0,.8.088,3.4,3.4,0,0,1-.9.041Zm1.705.343v-.041a.141.141,0,0,1,.021-.059c.023.037.074.059.181.059-.136.115-.2.127-.2.041Zm.035-.133a.176.176,0,0,1,.168-.082c0,.051-.064.076-.168.082Zm-.035-.166c-.133.113-.2.127-.2.041s-.133-.07-.4.043c0-.057-.064-.084-.2-.084.133-.058.2-.115.2-.173,0,.115.07.144.2.088a.362.362,0,0,1,.4.086c0-.115.029-.142.1-.086s.105.027.105-.088v.129c0-.025.129-.014.4.045v-.086a.387.387,0,0,0,.3.041c.064-.025.164.016.3.129l.2-.17v.086a5.584,5.584,0,0,0,1.1.084,4.8,4.8,0,0,1,1.3.173c-.267.23-.4.23-.4,0v.257a1.165,1.165,0,0,1-.23-.125.244.244,0,0,0,.031-.133,16.233,16.233,0,0,0-1.705-.088,5.633,5.633,0,0,1-1.5-.169Zm3.207.429v.086c0-.058-.068-.058-.2,0,0-.058.029-.086.1-.086a.079.079,0,0,0,.06-.035l.041.035Zm-1.8.431c0-.057-.07-.057-.2,0,.131-.173.2-.216.2-.131s.064.1.2.043c-.136.117-.2.146-.2.088Zm1.1.043c-.111.016-.212.025-.3.033-.006-.049-.035-.076-.1-.076s-.1.029-.1.086c.117-.053.175-.049.187-.01-.064.006-.133.01-.187.01h-.4v-.086c0-.173.2-.173.6,0,0-.057.133-.144.4-.259.13.172.232.23.3.172s.17.031.3.257a1.381,1.381,0,0,0-.7-.127Zm.9.043v.084c0-.055-.066-.084-.2-.084.132-.056.2-.115.2-.173l-.2.088V323.3c.132,0,.2.029.2.086v.173Zm.4.257v-.086c0-.014.018-.021.025-.031a.2.2,0,0,0-.025.117Zm.1-.129c-.033-.016-.058-.012-.074.01.023-.031.074-.055.173-.055,0,.059-.033.074-.1.045Zm.639.75a.54.54,0,0,0,.06-.019c.131-.058.2-.058.2,0a1.439,1.439,0,0,0-.261.019Zm1.265.066a.32.32,0,0,0-.1-.257c-.068-.057-.1-.029-.1.086v-.259c.129,0,.2.117.2.345v.086Zm3.207-.688h-.2c-.136,0-.17.016-.1.043s.031.045-.1.045a10.852,10.852,0,0,0-2.2-.173c0-.056-.035-.088-.1-.088a.563.563,0,0,0-.3.173c-.271,0-.437-.055-.5-.173s-.236-.084-.5.088c0,.057-.029.031-.1-.088s-.1-.111-.1,0v-.084a1.29,1.29,0,0,1-1.4-.345,1.721,1.721,0,0,0,.6.172h.4v-.172a1.814,1.814,0,0,0,1,.259,2.42,2.42,0,0,1,.8.086v-.173c0-.057.033-.086.1-.086s.1.029.1.086v.173c.265,0,.565.014.9.043s.768.041,1.3.041l.2-.084c-.136.058-.136.115,0,.172h.2v.086Zm.8-2.409c0-.113.133-.113.4,0Zm161.166,0c.267-.113.4-.113.4,0Zm15.032-.171a.138.138,0,0,1,.1-.129c.066-.027.1-.014.1.043a.134.134,0,0,1-.1.129c-.072.031-.1.016-.1-.043q-.2.088-.2,0t.2,0Zm-.4,1.378v.084h-.2c0,.06-.2.086-.6.086,0-.169.1-.228.3-.169s.3.027.3-.086c.129,0,.2.027.2.086Zm-.2-1.378v.171l-.4-.084c.267,0,.4-.029.4-.088Zm-.807.043a.478.478,0,0,1,.4.129.312.312,0,0,0-.4-.041.3.3,0,0,1-.4-.043,1.728,1.728,0,0,0,.4-.045Zm-.4,1.335.2.084c.263.117.331.173.2.173a.6.6,0,0,1-.4-.173v-.084Zm-9.421-4.817c0,.057-.031.074-.1.043a.1.1,0,0,0-.06-.008.289.289,0,0,1,.16-.035Zm0,1.2c0-.057.066-.029.2.086-.134-.055-.232-.043-.3.043s-.1.072-.1-.043c.135,0,.2-.029.2-.086Zm-.811-1.195.01-.01h0c.185,0,.374-.01.559-.014a.715.715,0,0,1-.131.189c-.094.006-.183.016-.277.021a.84.84,0,0,0-.255-.084c.055-.033.09-.07.093-.1Zm-.793.086v.146c-.2.006-.4.018-.6.018a3.018,3.018,0,0,1-.388-.064,5.2,5.2,0,0,1,.992-.1Zm2.4,6.44c0-.115-.029-.142-.1-.086a.326.326,0,0,0-.1.257v-.086c0-.228.068-.345.2-.345v.259Zm1,.086a.559.559,0,0,0,.062.019,1.471,1.471,0,0,0-.261-.019c0-.058.068-.058.2,0Zm.7-.731c-.066.029-.1.014-.1-.045.1,0,.148.023.173.055-.017-.021-.041-.025-.074-.01Zm.1.129a.215.215,0,0,0-.023-.117c.008.01.023.018.023.031v.086Zm.4-.173v-.257c0-.057.066-.086.2-.086v.173l-.2-.088c0,.058.066.117.2.173-.135,0-.2.029-.2.084Zm1.8-.084h-.4c-.054,0-.121,0-.185-.01.012-.039.068-.043.185.01,0-.056-.029-.086-.1-.086s-.089.027-.093.076c-.092-.008-.193-.018-.306-.033a1.373,1.373,0,0,0-.7.127c.133-.226.238-.314.3-.257s.168,0,.3-.172c.267.115.4.2.4.259.4-.173.6-.173.6,0v.086Zm-1.6-.431v-.086l.041-.035a.076.076,0,0,0,.06.035c.066,0,.1.027.1.086-.131-.058-.2-.058-.2,0Zm1.8.345c0,.058-.066.029-.2-.088.136.058.2.043.2-.043s.068-.043.2.131c-.133-.057-.2-.057-.2,0Zm1.4-.561c0,.086-.066.074-.2-.041.105,0,.158-.021.179-.059.008.02.023.033.023.059v.041Zm-.2-.214a.18.18,0,0,1,.168.082c-.1-.006-.168-.031-.168-.082Zm2.51-1.331c.064-.088.228-.1.5-.043l-.2.17-.2.088V321.4c0,.117-.033.16-.1.131s-.074-.07-.092-.134c.018.027.047.016.092-.037Zm-.1-.043a.14.14,0,0,1-.1.129c-.068.027-.1-.014-.1-.129,0,.057.068.057.2,0Zm-.5,0c.066-.056.164-.029.3.084a.352.352,0,0,0-.3.131c-.072.086-.17.043-.3-.131a.472.472,0,0,0,.3-.084Zm-.1,1.117a1.3,1.3,0,0,1,.8.088,5.54,5.54,0,0,0-.7.041,3.4,3.4,0,0,1-.9-.041,3.808,3.808,0,0,0,.8-.088ZM560.3,321.32v.17l-.2-.17c.136.057.2.057.2,0Zm-1-.947c.133.058.133.029,0-.086h.2v.086c0,.115-.066.171-.2.171s-.2-.057-.2-.171c0-.057.068-.057.2,0Zm-1.8.345v-.173a1.043,1.043,0,0,1,.7-.084,1.055,1.055,0,0,0,.7-.088c-.267.23-.5.3-.7.216a.733.733,0,0,0-.7.129h-.2c0-.058.07-.058.2,0Zm.3,1.976a5.606,5.606,0,0,0,1.1-.084v-.086l.2.17c.135-.113.234-.154.3-.129a.388.388,0,0,0,.3-.041v.086c.271-.058.4-.07.4-.045v-.129c0,.115.033.144.1.088s.1-.029.1.086a.362.362,0,0,1,.4-.086c.134.057.2.027.2-.088,0,.059.062.115.2.173-.134,0-.2.027-.2.084-.271-.113-.4-.129-.4-.043s-.07.072-.2-.041a5.632,5.632,0,0,1-1.5.169,16.175,16.175,0,0,0-1.705.088.228.228,0,0,0,.031.133,1.254,1.254,0,0,1-.232.125v-.257c0,.23-.133.23-.4,0a4.814,4.814,0,0,1,1.3-.173Zm-2.206-2.407c.2,0,.3-.056.3-.173a1.279,1.279,0,0,1-.144-.01c0-.01-.01-.031-.058-.076-.131-.113-.066-.113.2,0,0,.059.066.072.2.045s.2-.016.2.041a1.848,1.848,0,0,1-.5.3.439.439,0,0,1-.5-.043c0-.057.1-.086.3-.086Zm-.1-.259a1.278,1.278,0,0,0,.183.07c-.107-.012-.183-.031-.183-.07Zm.5.645a1.32,1.32,0,0,0,.7-.129v.086c0-.057.031-.086.1-.086s.1.058.1.173c0,.172-.2.255-.6.255V320.8a1.989,1.989,0,0,1-.2.156v-.24a2.028,2.028,0,0,1-.5.129c-.2.029-.3-.014-.3-.129a2.03,2.03,0,0,1,.7-.045Zm.072.3c-.113.07-.171.076-.171,0Zm-1.177,2.5a1.83,1.83,0,0,0,1.005-.259v.172h.4a1.7,1.7,0,0,0,.6-.172,1.288,1.288,0,0,1-1.4.345v.084c0-.111-.035-.111-.1,0s-.1.144-.1.088c-.267-.172-.433-.2-.5-.088s-.234.173-.5.173a.563.563,0,0,0-.3-.173c-.066,0-.1.031-.1.088a10.886,10.886,0,0,0-2.206.173c-.129,0-.166-.016-.1-.045s.037-.043-.1-.043h-.2v-.086h.2c.138-.056.138-.113,0-.172l.2.084c.536,0,.97-.012,1.3-.041s.635-.043.9-.043v-.173c0-.057.033-.086.1-.086s.1.029.1.086v.173a2.435,2.435,0,0,1,.8-.086Zm-.2-3.355c0,.117-.029.173-.1.173s-.1.086-.1.257c0-.171-.07-.185-.2-.041a.259.259,0,0,1-.4.041c0-.113.033-.171.1-.171s.1-.057.1-.171c-.134.056-.2.056-.2,0h-.2c0-.057.039-.088.1-.088s.1.031.1.088c.134,0,.2-.029.2-.088s.07-.056.2,0c.131-.113.2-.129.2-.041s.068.1.2.041Zm0-2.249-.014,0a.414.414,0,0,0-.094-.107l.123,0a.535.535,0,0,0-.016.107Zm1.654-.133-.072,0a.1.1,0,0,0-.076-.029c-.018,0-.027-.01-.039-.012.072,0,.152-.012.228-.016a.382.382,0,0,0-.041.053Zm.951-.142v-.056a.334.334,0,0,0,.057.031.506.506,0,0,1-.057.025Zm.4.031a1.6,1.6,0,0,1,.6-.088h.273a3.417,3.417,0,0,1-.871.088Zm1.8.688h-.2v-.018l.209-.016c0,.014-.01.016-.01.033Zm-.4-.776,0-.01c.148,0,.286-.01.419-.019a.742.742,0,0,1-.421.029Zm.686-.171h-.105c.006-.014.018-.014.018-.043,0-.142.07-.156.2-.041-.041.033-.08.057-.117.084Zm1.919.775-.4.086v-.086l0-.008c.133-.008.265-.021.4-.031v.039Zm.4,0c0,.049-.06.021-.162-.058l.068-.006a.093.093,0,0,0,.053,0c.02,0,.043,0,.064,0a.11.11,0,0,0-.023.072Z" transform="translate(-337.184 -60.182)" fill="#93212e"/>
      </g>
      <path id="Path_59288" data-name="Path 59288" d="M413.887,308.924a9.838,9.838,0,0,0-5.08-.9,10.884,10.884,0,0,0-5.193,1.758,25.16,25.16,0,0,1,.8-2.964,3.192,3.192,0,0,1,1.456-1.976,3.756,3.756,0,0,1,2.886-.339,4.632,4.632,0,0,1,1.306.581,2.2,2.2,0,0,0,1.315.512,1.252,1.252,0,0,0,1.029-.7,3.175,3.175,0,0,0,.349-1.4,2.307,2.307,0,0,0-.427-1.7,4.434,4.434,0,0,0-1.612-1.027.658.658,0,0,0-.1-.037,5,5,0,0,1-1.68-.861,6.509,6.509,0,0,1-1.245-1.292.774.774,0,0,0-.049-.062c-.542-.629-.955-1-1.46-1a1.046,1.046,0,0,0-.536.162c-.8.532-.312,1.559-.023,2.169a7.731,7.731,0,0,0,1.329,1.966,6.971,6.971,0,0,0-1.795.4,5.341,5.341,0,0,0-3.145,2.822,18.363,18.363,0,0,0-1.294,3.983,24.372,24.372,0,0,1-.861,2.812,3.489,3.489,0,0,0-.347,1.736,1.921,1.921,0,0,0,.811,1.4,1.961,1.961,0,0,0,1.13.446,1.7,1.7,0,0,0,1.29-.844,10.659,10.659,0,0,1,1.814-1.791,6.557,6.557,0,0,1,2.521-1.454,9.463,9.463,0,0,1,2.27-.314,10.942,10.942,0,0,1,2.036.212,2.051,2.051,0,0,1,1.327.793,2.685,2.685,0,0,1,.5,1.676,4.182,4.182,0,0,1-.415,1.921,3.887,3.887,0,0,1-1.719,1.483,11.958,11.958,0,0,1-3.313,1.154,17.335,17.335,0,0,1-3.332.382c-1.292.094-1.877.212-2.165.717a1,1,0,0,0-.023.877c.284.583.842.711,3.3.772.129,0,.255,0,.384,0a17.568,17.568,0,0,0,4.721-.657,9.679,9.679,0,0,0,3.9-1.886,5.26,5.26,0,0,0,1.67-2.514,8.829,8.829,0,0,0,.312-2.2,9.454,9.454,0,0,0-.31-2.245,4.333,4.333,0,0,0-2.344-2.582Z" transform="translate(-310.416 -78.68)" fill="#93212e"/>
      <path id="Path_59289" data-name="Path 59289" d="M425.828,301.7a3.684,3.684,0,0,0-1.35-.349,4.14,4.14,0,0,0-1.181.271,41.554,41.554,0,0,1-5.062.7,3.279,3.279,0,0,0-1.436.361c-2.171-.072-3.794-.175-4.856-.308-.218-.018-.417-.025-.59-.025-1.639,0-1.816.863-1.816,1.235a1.7,1.7,0,0,0,.372.935,6.372,6.372,0,0,0,1.43,1.333,3.565,3.565,0,0,0,2.087.922,1.512,1.512,0,0,0,.166-.008,14.213,14.213,0,0,0,1.767-.3,48.745,48.745,0,0,1,5.06-.6,2.643,2.643,0,0,0,1.444-.39,35.343,35.343,0,0,1,4.661.2,2.2,2.2,0,0,0,.645.113,1.061,1.061,0,0,0,1.116-1.078c0-.38-.2-.779-.789-1.586a4.1,4.1,0,0,0-1.668-1.421Z" transform="translate(-300.892 -75.049)" fill="#93212e"/>
      <path id="Path_59290" data-name="Path 59290" d="M439.8,304.127a8.893,8.893,0,0,0-4-1.417,8.774,8.774,0,0,1,.5-1.428,1.53,1.53,0,0,0,.263-.947,1.777,1.777,0,0,0-.485-1.124,2.559,2.559,0,0,0-1.267-.783,3.816,3.816,0,0,0-1.039-.207,1.1,1.1,0,0,0-.867.4,1.436,1.436,0,0,0-.208,1.251,4,4,0,0,1,.093,1.485c-.049.4-.117.834-.2,1.306a9.51,9.51,0,0,0-2.777.766,16.734,16.734,0,0,0-1.863.939c-.175-.631-.3-1.161-.37-1.578a3.765,3.765,0,0,1-.06-1.265.847.847,0,0,0,.018-.172c0-.514-.271-1.2-1.567-1.524a3.147,3.147,0,0,0-1.728-.094,1.224,1.224,0,0,0-.935,1.167,1.925,1.925,0,0,0,.472,1.14,7.575,7.575,0,0,1,.807,1.818q.289.967.744,2.432a12.446,12.446,0,0,0-2.861,4.045,10.024,10.024,0,0,0-.855,3.652,9.746,9.746,0,0,0,.183,1.561,2.623,2.623,0,0,0,1.426,1.984,3.912,3.912,0,0,0,1.748.489,5.265,5.265,0,0,0,1.783-.456,7.949,7.949,0,0,0,2.091-1.2,10.742,10.742,0,0,0,1.255-1.2,2.49,2.49,0,0,0,1.054.579,1.659,1.659,0,0,0,1.6-.4,1.469,1.469,0,0,0,.538-1.013,1.561,1.561,0,0,0-.764-1.315,4.283,4.283,0,0,1-.565-.411,28.987,28.987,0,0,0,3.131-7.036,6.875,6.875,0,0,1,2.325.731,4.661,4.661,0,0,1,1.908,1.857,4.292,4.292,0,0,1,.353,2.874,6.348,6.348,0,0,1-1.44,3.128,11.061,11.061,0,0,1-2.931,2.406,12.34,12.34,0,0,1-3.034,1.331c-1.144.351-1.711.622-1.861,1.216a.958.958,0,0,0,.259.916,1.209,1.209,0,0,0,.871.312,10.1,10.1,0,0,0,2.734-.538,13.976,13.976,0,0,0,5.117-2.644,8.321,8.321,0,0,0,3.061-4.119,12.691,12.691,0,0,0,.538-3.219,7.716,7.716,0,0,0-.563-2.677,6.63,6.63,0,0,0-2.636-3.009Zm-7.94,1.586a25.413,25.413,0,0,1-1.812,4.334c-.08-.136-.162-.283-.246-.435a14.345,14.345,0,0,1-.976-2.482,12.518,12.518,0,0,1,2.011-1.079,8.046,8.046,0,0,1,1.023-.337Zm-3.706,7.108c-1.5,1.693-2.51,2.087-3.12,2.1-.156-.074-.36-.255-.421-.832a8.781,8.781,0,0,1,1.843-4.7,16.509,16.509,0,0,0,1.7,3.43Z" transform="translate(-289.429 -78.015)" fill="#93212e"/>
      <path id="Path_59291" data-name="Path 59291" d="M456.572,311.283a.92.92,0,0,0-.867-.674c-.6,0-.809.257-2.036,2.49a16.271,16.271,0,0,1-2.4,3.369,3.5,3.5,0,0,1-1.826,1.109,1.7,1.7,0,0,1-1.064-.08.941.941,0,0,1-.38-.606,9.236,9.236,0,0,1-.035-2.342c0-1.117-.019-2.19-.056-3.194a3.289,3.289,0,0,0-1.214-2.709,3.408,3.408,0,0,0-2.255-.668,5.813,5.813,0,0,0-2.249.68,60.036,60.036,0,0,1,3.469-6.35,2.915,2.915,0,0,0,.727-1.58,2.267,2.267,0,0,0-.419-1.2,3.173,3.173,0,0,0-1.011-1.011,2.2,2.2,0,0,0-1.136-.413,1.241,1.241,0,0,0-1.122.709,2.136,2.136,0,0,0-.142,1.214,4.943,4.943,0,0,1-.454,1.569c-.366.951-1.495,3.357-3.354,7.151s-3.129,6.2-3.778,7.177c-.875,1.311-1.1,2.356-.676,3.188a1.814,1.814,0,0,0,1.569,1.222,1.676,1.676,0,0,0,.171-.012c.571-.074,1.113-.514,2.354-2.66a28.914,28.914,0,0,1,2.354-3.778,8.375,8.375,0,0,1,2.282-2.251,3.5,3.5,0,0,1,1.456-.612.886.886,0,0,1,.131.035,2.884,2.884,0,0,1,.086.655c.037.785.055,1.814.057,3.013a9.588,9.588,0,0,0,.327,3.541,3.266,3.266,0,0,0,1.993,2.126,4.842,4.842,0,0,0,1.664.3,4.619,4.619,0,0,0,.963-.1,7.5,7.5,0,0,0,2.36-.953,8.1,8.1,0,0,0,2.43-2.71,15.121,15.121,0,0,0,1.674-3.476c.485-1.58.475-1.88.407-2.169Z" transform="translate(-277.6 -78.125)" fill="#93212e"/>
    </g>
  </g>
</svg>
