<svg id="Group_17465" data-name="Group 17465" xmlns="http://www.w3.org/2000/svg" width="119.448" height="165.698" viewBox="0 0 119.448 165.698">
  <path id="Path_303" data-name="Path 303" d="M29.468,1135.647H19.315c-2.239,0-2.239.463-2.239,3.043v14.556c0,1.864.179,2.191,1.216,2.191,1.4,0,1.576-.122,1.627-1.2l.137-3.163a1.355,1.355,0,0,1,1.479-1.355h5.216a1.383,1.383,0,0,1,1.369,1.419c0,1.14-.979,1.347-1.506,1.463-.721.161-1.052.228-1.052,1.175,0,1.288.315,1.519,1.19,1.519H29.8c.4,0,1.462,0,1.462-2.161v-14.588c0-2.277-.222-2.9-1.792-2.9m-2.751,11.766-5.559-.086c-.262,0-1.159-.105-1.159-1.478l.027-5.957a1.209,1.209,0,0,1,1.4-1.357h5.241c1.12,0,1.618.536,1.618,1.742l.029,5.394c0,1.108-.576,1.742-1.593,1.742" transform="translate(12.795 -989.748)" fill="#fff"/>
  <path id="Path_304" data-name="Path 304" d="M49.809,1149.312a32.443,32.443,0,0,1-1.2-9.1,2.089,2.089,0,0,1,1.09-2.07c.327-.2.493-.306.493-1.133,0-1.335-.394-2.014-1.162-2.014a15.454,15.454,0,0,0-2.962.412,16.926,16.926,0,0,1-3.278.439c-1.08,0-2.182-.007-3.291-.012s-2.2-.018-3.28-.018c-1.6,0-1.936,1.573-1.936,2.9v5.169a18.463,18.463,0,0,1-1.8,7.113,9.544,9.544,0,0,0-1.145,3.15,1.25,1.25,0,0,0,.359.875,1.8,1.8,0,0,0,1.39.622c1.136-.087,1.552-.843,2.021-1.9,1.641-3.561,2.374-8.993,2.374-12.8a1.422,1.422,0,0,1,1.37-1.592c.378,0,1.259.179,1.259,1.829,0,2.216-.021,4.339-.047,6.423-.02,2-.039,3.964-.039,5.933,0,1.806.245,2.1,1.739,2.1,1.313,0,1.381-.073,1.381-1.543,0-2.221.008-4.363.008-6.5s.016-4.285.016-6.5a1.5,1.5,0,0,1,1.371-1.682c1.336,0,1.336,1.272,1.336,2.034,0,6.881,1.2,14.193,3.437,14.193.828,0,2.094-.779,2.094-1.454a13.155,13.155,0,0,0-1.013-3.3c-.23-.585-.448-1.133-.585-1.572" transform="translate(17.197 -989.949)" fill="#fff"/>
  <path id="Path_305" data-name="Path 305" d="M56.736,1139.25l6.912.025c1.582,0,1.765-.152,1.765-1.484,0-1.474-.611-1.695-2.713-1.695H54.572c-.734,0-.967-.7-1.085-1.048-.177-.517-.293-.857-1.186-.857-1.712,0-1.8.228-2.458,2.021-.126.327-.287.73-.463,1.167a16.274,16.274,0,0,0-1.343,4.226c0,.793,1.228,1.312,2.04,1.312s1.116-.662,1.471-2.145c.222-.891.467-1.906,1.383-1.906a1.084,1.084,0,0,1,1.119,1.128,6.52,6.52,0,0,1-2.386,5.274c-.047.755-.1,3.37-.1,8.751,0,1.377.514,1.752,2.4,1.755l9.814-.033c1.131,0,1.5-.406,1.5-1.662,0-.608-.122-1.107-1.573-1.107H56.791c-1.924,0-1.924-1.656-1.924-2.856,0-.839,0-3.059,1.426-3.059H63.06c1.487,0,1.742-.367,1.742-1.458,0-.967-.26-1.285-1.769-1.285H56.681c-1.167,0-1.755-.8-1.755-2.385,0-2.218.984-2.679,1.81-2.679" transform="translate(22.352 -990.198)" fill="#fff"/>
  <path id="Path_306" data-name="Path 306" d="M16.184,1151.313a8.136,8.136,0,0,1-1.833-1.213c-.081-.07-2.12-1.957-2.12-3.014,0-.425.169-1.124,1.313-1.124l.356-.012c1.888-.05,2.5-.188,2.517-1.664l.03-4.863c.012-1.684-.008-2.815-.427-3.255-.339-.367-1.139-.521-2.671-.521l-8.9.03c-2.487,0-3.155.341-3.155,2.722,0,.593.008,1.187.017,1.788s.008,1.227.008,1.845a32.17,32.17,0,0,1-.169,3.736,33.682,33.682,0,0,1-.907,4.472,9.176,9.176,0,0,1-.739,1.848,4.439,4.439,0,0,0-.649,2.243c0,.56,1.449,1.106,2.29,1.106,1.606,0,2.5-3.695,2.841-5.089l.031-.1a9.39,9.39,0,0,0,.13-1.093c.113-1.27.274-3.191,2.049-3.191h.718a1.418,1.418,0,0,1,1.523.871,16.606,16.606,0,0,0,1.97,4.079c.881,1.333,3.782,4.524,5.715,4.524A2.01,2.01,0,0,0,18,1153.512c0-1.193-.593-1.557-1.818-2.2m-4.72-8.152c-.181,0-.356-.012-.518-.017-.115-.007-.228-.013-.322-.013h-2.6c-.077,0-.174,0-.3.009-.2.009-.448.021-.7.021-.569,0-2.285,0-2.285-1.36,0-.173-.005-.352-.009-.53a2.855,2.855,0,0,1,.4-2.077,1.1,1.1,0,0,1,.84-.369H10.96c1.266,0,2.311.14,2.311,1.8,0,.135-.007.276-.013.433,0,.175-.017.385-.017.651,0,.436-.173,1.448-1.777,1.448" transform="translate(7.168 -989.748)" fill="#fff"/>
  <path id="Path_307" data-name="Path 307" d="M5.649,1128.036q-.587,5.29-4.7,19.184a2.9,2.9,0,0,1,.292,1.322q0,2.154,15.881,4.633a3.207,3.207,0,0,0,2.065-.995,51.388,51.388,0,0,1,4.108-9.591l5.3-16.87H45.054q0,1.243,19.413,1.987,12.644-1,12.638-1.655a2.155,2.155,0,0,0,1.178.333H81.23q0,2.727,3.824,20.176c0,5.512,1.07,8.27,3.231,8.27h1.178q4.04-1.987,13.524-4.3,5.292-1.9,5.294-4.3,0-3.8-2.935-14.552-1.845,0-2.064-8.27c3.532,0,5.287-1.437,5.287-4.3v-3.31q-1.751-5.289-1.755-6.944,0-6.947-4.117-6.948a40.385,40.385,0,0,0-7.949,1.323l-.289-2.314v-2.318a32.325,32.325,0,0,1,3.235-.662q10,0,10-3.638v-1.985a104.026,104.026,0,0,0-.877-11.247c.195,0,.294-.328.294-.989v-.334c0-2.2-2.066-3.308-6.178-3.308H99.165c-3.333.443-5.2.662-5.584.662H92.107l-1.173-.993a22.226,22.226,0,0,0-2.649-5.622q-1.1-7.277-1.764-7.277A68.736,68.736,0,0,0,82.7,1047.65l4.41-1.983q7.95,0,7.944-3.97v-.661A22.9,22.9,0,0,0,92.7,1030.12q0-5.958-3.532-5.959-.879.418-.881.663a94.844,94.844,0,0,1-14.114,3.307h-7.94a68.57,68.57,0,0,0-9.116,1.325H49.758a64.773,64.773,0,0,1-6.759-.995q-3.164,0-8.238.335-14.774-.334-16.173-1a16.27,16.27,0,0,1-1.765.331,3.189,3.189,0,0,0-1.763-.661h-.3a2.35,2.35,0,0,0-2.346,1.986q-1.7,11.164-3.536,15.546v1.323q0,1.985,9.707,1.987,6.321,1.987,6.762,1.986a16.807,16.807,0,0,0-1.174,5.291l-2.649,9.926q-2.646,10.333-4.41,13.892a2.1,2.1,0,0,1-1.174-.334,7.884,7.884,0,0,1-1.179.334,6.615,6.615,0,0,1-4.116,1.984,2.724,2.724,0,0,0-1.471-.331H8.589q0-1.651-2.059-1.653H6.237q-2.65,0-2.647,3.971v.661q0,3.143.589,9.594-.294,1.734-.294,1.983c.539,2.867,1.416,4.3,2.646,4.3a22.632,22.632,0,0,0,3.53-.331l1.765.331-2.055,6.948a12.777,12.777,0,0,0-5.006-.992H4.471q-2.646.247-2.646.992-2.866,0-4.412,16.542A13.632,13.632,0,0,0-2,1126.383q.292.825,7.644,1.653m-1.178-16.209a14.132,14.132,0,0,1,4.41.993h1.767q2.057,0,2.059-1.653c1.764-1.327,2.645-2.536,2.645-3.642a43.6,43.6,0,0,0,2.06-10.917q0-2.065-3.235-2.975c0,.219-.094.329-.294.329a43.765,43.765,0,0,1-4.412-.329v-.332a45.127,45.127,0,0,0-.589-6.286l1.472.33q4.187,0,6.18-1.653c0,.442.484.665,1.467.665h.588l1.471-.335a77.056,77.056,0,0,0,6.176-16.535q2.057-9.927,2.939-9.927,0-5.457,2.06-8.273v-1.322a3.4,3.4,0,0,0-2.06-2.974q0-3.228-10.878-4.633H15.647l1.47-8.27q1.4,0,17.644.661.736,0,7.944-.328c1.955.22,3.134.548,3.527.99H58.878a29.676,29.676,0,0,1,7.641-1.323h9.419a6.154,6.154,0,0,0,3.231-.993,56.76,56.76,0,0,0,8.23-1.65,29.229,29.229,0,0,1,2.36,7.935h-.885q-7.942,1.492-7.942,2.978-5.589.993-5.585,3.969v.334c0,1.213.78,2.314,2.354,3.3l2.352,7.28a121.337,121.337,0,0,0,3.232,14.884q2.8,7.2,3.236,7.609.8,4.634,3.238,4.63h.291a3.461,3.461,0,0,0,2.358-1.322h3.231a30.98,30.98,0,0,0,3.229-.661h2.947v.993q0,1.733.588,7.94v.328a11.954,11.954,0,0,0-3.238.333q-9.116,0-9.115,3.967v.993l.3.665c-.551,0-1.034,1.432-1.474,4.3.195,0,.292.111.292.331q.889,7.61,3.532,7.607h.293a36.03,36.03,0,0,1,8.527-1.653v.993a29.721,29.721,0,0,0,1.763,8.271l-1.467.33-.59-.33q-3.822,1.152-3.825,3.637l1.468,11.247q2.283,3.139,3.829,11.247v.33q0,.826-12.063,3.639L86.815,1128.7q-.732-8.932-5.584-8.932l-2.65.329a17.122,17.122,0,0,0-1.765-.329q0,.825-12.641,1.982a125.639,125.639,0,0,1-20.3-1.982h-14.7a3.635,3.635,0,0,0-2.352-1.324h-.294q-3.235.744-3.238,3.64v.33l.3,1.655q-.952,1.074-3.823,11.575,0,1.243-4.412,10.917a42.168,42.168,0,0,1-7.94-1.327v-.326q0-1.657,2.649-9.927,0-3.06,2.941-10.583v-.33q0-2.4-2.941-2.979c0,.163-1.378.5-4.117.993a11,11,0,0,1-2.649-.665,46.391,46.391,0,0,1,1.177-9.59" transform="translate(6.725 -1024.162)" fill="#fff"/>
  <path id="Path_308" data-name="Path 308" d="M21.043,1095.6a22.383,22.383,0,0,0,7.352-1.326,15.657,15.657,0,0,0,2.941.666h.3a102.79,102.79,0,0,1,12.056.659,92.6,92.6,0,0,1,10.884-.659c.589,0,.883-.111.883-.332q4.7-.418,5.588-1l1.17.33c3.382-.219,5.347-.33,5.886-.33a25.935,25.935,0,0,0,4.116.661q2.354,0,2.356-2.645v-.66a75.627,75.627,0,0,1-1.765-9.927c-1.233-2.866-2.895-4.3-5-4.3a161.093,161.093,0,0,0-25.585,2.644q0-.579-2.353-.992a6.1,6.1,0,0,1-2.06.661,4.5,4.5,0,0,0-2.352-.661H32.513q-2.5,0-7.354-.331-4.411,5.377-6.172,14.887c.144,1.767.831,2.646,2.055,2.646m6.763-11.577.589.328h5.588a3.168,3.168,0,0,1,1.764.661,51.015,51.015,0,0,1,6.47.333,35.327,35.327,0,0,1,5.294-.333c.393,0,.586-.11.586-.328a108.389,108.389,0,0,1,18.532-1.985c.974,0,1.47,1.324,1.47,3.967v1H66.923l-.594-.333c0,.279-.882.5-2.646.662a13.489,13.489,0,0,1-2.353-.33,177.889,177.889,0,0,1-17.937,1.985H43.1l-14.7-1.326a7.76,7.76,0,0,0-2.053.33h-.3a10.229,10.229,0,0,1,1.763-4.627" transform="translate(13.385 -1007.931)" fill="#fff"/>
  <path id="Path_309" data-name="Path 309" d="M25.9,1079.706h.3a3.444,3.444,0,0,0,2.349-1.322h.885a79.5,79.5,0,0,0,7.942-.663q2.346.666,10.288.995l1.179-.331a26.666,26.666,0,0,0,5,.661,63.236,63.236,0,0,1,6.759-.33h1.763q1.694,0,4.12-3.972a25.808,25.808,0,0,0-2.939-11.245q-1.252-10.088-2.354-11.579-2.5-11.578-4.994-11.577c-.441,0-1.523.112-3.238.331l-.585-.331v.331c-.255,0-1.23-.109-2.948-.331-.1,0-1.563.222-4.41.663H39.433l-3.533-.332L33.842,1042q-1.541,5.544-2.646,6.945a68.821,68.821,0,0,1-4.113,10.917q-1.476,7.777-3.827,16.539.44,3.31,2.646,3.308m4.116-7.939c.345-1.985.636-2.978.883-2.978q1.25-7.354,2.352-8.93,2.723-8.271,3.234-8.6,1.472-4.3,1.767-4.3h7.058a14.151,14.151,0,0,0,4.115-.664,13.868,13.868,0,0,0,2.948.332h.289l1.474-.332q2.935,10.012,2.939,10.92A68.277,68.277,0,0,0,60.9,1072.43v.33H57.956a22.652,22.652,0,0,0-3.819.329l-5.593-.66-1.466.33a44.943,44.943,0,0,1-8.824-.993q-1.69,0-8.236.662Z" transform="translate(14.702 -1019.167)" fill="#fff"/>
  <path id="Path_310" data-name="Path 310" d="M84.272,1135.513a1.713,1.713,0,0,0-1.861,1.62c-.054.617-.1,1.294-.149,2.01-.224,3.272-.5,7.345-1.877,9.957-.021.048-.063.143-.116.251-.6,1.324-1.229,2.509-2.131,2.509a1.045,1.045,0,0,1-1.036-1.122,4.042,4.042,0,0,1,.746-1.866c.165-.268.33-.551.452-.8,0-1.214.024-2.443.054-3.635.029-1.234.047-2.515.047-3.766,0-2.53-.992-2.67-3.463-2.767-.323-.009-.645-.022-.98-.042-1.184-.087-1.208-1.2-1.222-1.623a1.394,1.394,0,0,0-.044-.408c-.1-.205-.573-.318-1.377-.318a3.589,3.589,0,0,0-1.324.134,3.721,3.721,0,0,0-.4,1.234,1.164,1.164,0,0,1-1.3.95c-.263,0-.527-.009-.792-.016-.249-.005-.5-.012-.754-.012-1.4,0-1.657.322-1.657,2.018,0,1.322.551,1.453,2.035,1.467.817.009,2.179.027,2.179,1.405,0,3.794-1.493,6.673-4.832,9.339a1.264,1.264,0,0,0-.55,1.285,2.056,2.056,0,0,0,1.765,2.161,3.062,3.062,0,0,0,1.383-.737l.12-.092a15.219,15.219,0,0,0,4.939-9.019c.08-.427.119-.825.166-1.237a12.755,12.755,0,0,1,.253-1.751,1.241,1.241,0,0,1,1.351-1.1,1.171,1.171,0,0,1,1.336,1.3c0,1.561-.016,3.089-.022,4.616s-.03,3.048-.03,4.6c0,2.142,1.16,3.421,3.1,3.421a4.036,4.036,0,0,0,3.5-1.955A29.644,29.644,0,0,0,86.165,1138c0-1.907-.436-2.488-1.894-2.488" transform="translate(27.253 -989.789)" fill="#fff"/>
  <path id="Path_311" data-name="Path 311" d="M111.923,1127.74c-.527.052-1.027.094-1.514.127-.133.016-.255.021-.385.034-.058-.051-.079-.073-.043-.06s.062.009.062-.028-.018-.03-.062,0-.06.036-.06,0a.961.961,0,0,1-.486.083,4.024,4.024,0,0,0-.489-.029c0-.1.065-.136.185-.1a.268.268,0,0,0,.3-.106h-.489c.081.072.046.106-.122.106v-.155h-.243v.155c0-.106-.014-.115-.056-.025a.187.187,0,0,1-.037.055c.014.016.021.012.03.018h-.19a.107.107,0,0,0,.01-.048H108.1v.048h-.25c-.073,0-.094.012-.054.028s.013.026-.063.026c-.141,0-.26.008-.366.009v-.063c-.035.03-.065.048-.093.073a2.255,2.255,0,0,0-.274.034v-.053a7.551,7.551,0,0,1-.851.053h-.126l-.005.005a6.44,6.44,0,0,0-.725.049,2.03,2.03,0,0,1-.236.026v-.026l-.075.026c-.081,0-.153,0-.232,0a1.756,1.756,0,0,0-.551.028,3.1,3.1,0,0,1-.67.024,1.938,1.938,0,0,0-.546.028.664.664,0,0,1,.366-.08.974.974,0,0,0,.366-.024h.119a4.619,4.619,0,0,0,.853-.054,1.5,1.5,0,0,0-.489-.053v.053a3.609,3.609,0,0,0-.732-.025l-.844.078h.36a1.116,1.116,0,0,0-.242.024,1.085,1.085,0,0,1-.245.028h.369a3.9,3.9,0,0,1-.609.047c-.085-.014-.158-.027-.245-.047,0-.038.047-.047.13-.028s.115-.009.115-.077c0,.035-.041.043-.115.026a.3.3,0,0,0-.254.079c-.079,0-.44-.038-1.088-.106h-.614v-.053h-.609a8.005,8.005,0,0,1-.91.053h0s-.582.017-1.632.054H95.81c-.968.033-2.189.061-3.649.076s-3.081.044-4.868.077c-.565,0-1.11.02-1.642.051s-1.11.056-1.758.056q-4.629.1-9.123.178-3.414.063-6.892.1l-.021,0c-3.875.154-8.694.219-13.889.22s-10-.066-13.886-.22l-.021,0c-2.312-.028-4.62-.062-6.888-.1q-4.5-.075-9.124-.178-.974,0-1.76-.056c-.526-.031-1.076-.051-1.642-.051q-2.678-.049-4.866-.077c-1.46-.015-2.679-.043-3.653-.076H10.9c-1.044-.037-1.631-.054-1.631-.054h0a8.133,8.133,0,0,1-.911-.053H7.75v.053H7.144c-.649.068-1.017.106-1.094.106a.281.281,0,0,0-.246-.079c-.082.017-.115.009-.115-.026,0,.068.033.1.115.077s.122-.009.122.028c-.082.02-.16.033-.237.047a3.868,3.868,0,0,1-.612-.047h.366a1.248,1.248,0,0,1-.25-.028,1.008,1.008,0,0,0-.238-.024H5.32l-.852-.078a3.6,3.6,0,0,0-.729.025v-.053a1.506,1.506,0,0,0-.488.053,4.638,4.638,0,0,0,.853.054h.123a.95.95,0,0,0,.363.024.649.649,0,0,1,.365.08,1.933,1.933,0,0,0-.547-.028,3.088,3.088,0,0,1-.669-.024,1.723,1.723,0,0,0-.547-.028c-.076.007-.154,0-.229,0l-.075-.026V1128a2.452,2.452,0,0,1-.246-.026,6.244,6.244,0,0,0-.722-.049l-.008,0H1.793a7.724,7.724,0,0,1-.853-.053v.053a2.017,2.017,0,0,0-.266-.034.79.79,0,0,1-.1-.073v.063c-.1,0-.225-.009-.361-.009-.082,0-.106-.009-.064-.026s.026-.028-.06-.028H-.153v-.048H-.4a.1.1,0,0,0,.012.048H-.574c.008-.007.012,0,.022-.018a.188.188,0,0,1-.024-.055c-.046-.09-.062-.081-.062.025v-.155H-.882v.155c-.164,0-.205-.034-.122-.106h-.491a.27.27,0,0,0,.306.106c.128-.034.185,0,.185.1a4.109,4.109,0,0,0-.491.029.982.982,0,0,1-.488-.083c0,.036-.016.036-.056,0s-.062-.03-.062,0,.017.045.062.028.014.009-.044.06c-.127-.013-.255-.018-.383-.034-.48-.033-.989-.075-1.518-.127a4.965,4.965,0,0,0-1.4.025,1.22,1.22,0,0,0-.365-.081v.081a7.585,7.585,0,0,1,.79.048c.283.036.551.073.788.107h-.115l.725.106a1,1,0,0,0-.364.052c.459.065.985.115,1.582.148v.009c0,.033-.021.042-.062.023s-.063-.005-.063.025c0,.072.024.088.063.055s.1-.02.185.051v-.051a2.747,2.747,0,0,0,.543.051h.55v-.051a.219.219,0,0,1,.039-.016c.013,0,.021,0,.029,0s0,0,0,.012c-.046.033-.027.051.056.051a.283.283,0,0,1,.008-.055c.037,0,.072,0,.11.006,0,.018,0,.031,0,.05H-.7c.042,0,.063.037.063.1H-.764a8.837,8.837,0,0,0,.978.078l.292.017c-.021,0-.035.01-.05.01H.575c.162.106.287.139.365.106v-.055c0,.072.016.1.064.1s.056-.015.056-.047v-.055a1.709,1.709,0,0,0,.67.1,4.771,4.771,0,0,1,.792.059.308.308,0,0,1-.3.048c-.126-.03-.186,0-.186.1a.47.47,0,0,0-.3-.1c-.124,0-.181.037-.181.1l-.12-.1c0,.068.016.1.059.1s.062.04.062.107c-.166.069-.263.055-.309-.052s-.1-.12-.181-.055c.082.04.082.055,0,.055,0-.1-.035-.148-.12-.127a.3.3,0,0,1-.242-.079v.15a6.922,6.922,0,0,1-1.335.083c-.408-.023-.813-.028-1.221-.028a.572.572,0,0,1-.181-.023.392.392,0,0,0-.181-.031v.055a.685.685,0,0,1-.369,0,.508.508,0,0,0-.363.052.813.813,0,0,1,.67.077,1.246,1.246,0,0,0,.787.131l.122-.153a4.281,4.281,0,0,0,1.586.2v-.1a.252.252,0,0,0,.3.1.538.538,0,0,1,.425.106c0,.039-.017.039-.063,0s-.059-.016-.059.055a.358.358,0,0,0,.3.076c.119-.016.185.012.185.082a1.572,1.572,0,0,1-.429-.055,1.164,1.164,0,0,0-.3-.051c-.162,0-.262.024-.3.079s-.02.027.063-.079a1.392,1.392,0,0,1-.612-.027.931.931,0,0,0-.487-.025c-.239,0-.363-.016-.363-.055l-.12.055h-.126a3.487,3.487,0,0,0-1.458,0h-1.34c-.242,0-.364-.016-.364-.055s.024-.042.065-.027.056.012.056-.02a.889.889,0,0,0-.607,0,1.263,1.263,0,0,1-.607.047c0,.07-.022.088-.063.055s-.059-.016-.059.052a.849.849,0,0,0,.363.024.694.694,0,0,1,.366.082v.051c0-.033-.079-.016-.242.049l.242.058a2.651,2.651,0,0,0-.366.1,1.253,1.253,0,0,0,.612.078.97.97,0,0,1,.6.134c-.162.067-.259.094-.3.076a.62.62,0,0,0-.3.031v.048a1.8,1.8,0,0,0-.612.205.941.941,0,0,0,.243.079.166.166,0,0,1,.123.184c0-.065.041-.111.124-.129s.122-.006.122.026c0,.068-.044.1-.122.1s-.124.019-.124.055a2.178,2.178,0,0,0,.3-.081c.041-.016.024.008-.058.081h.12v-.055c0,.073.041.073.119,0s.082-.035,0,.1c.082,0,.122-.016.122-.049a1.7,1.7,0,0,0,.242.079,1.025,1.025,0,0,1,.246.078v-.054H-3.8c-.084.069-.106.106-.068.106s.068.014.068.047v.107c0,.036.034.051.114.051s.123-.016.123-.051v.1c.162-.067.246-.093.246-.075v.075H-3.2l.245-.1v.131c0-.019.042-.061.12-.131v.157a.311.311,0,0,0,.242,0c.084-.035.084-.014,0,.051l.246-.051v.051h.123c0,.034.037.071.119.1h.118v.106l.124-.051a1.094,1.094,0,0,1,.306.025c.039.014.1-.007.179-.08,0,.072.044.089.126.055s.12-.033.12,0v.051c.081-.034.14-.034.179,0s.1.016.183-.051v.1a1.49,1.49,0,0,1,.487.052,1.515,1.515,0,0,0,.491.051,1.424,1.424,0,0,0,.484.028.463.463,0,0,1,.363.079c.165,0,.246-.017.246-.055v-.005a.946.946,0,0,0,.123.06h.12a.947.947,0,0,1,.287.073.375.375,0,0,0-.046,0c-.081.02-.122.061-.122.131,0,.046.018.067.062.067-.043.009-.062.021-.062.035.165,0,.243.019.243.055s.042.015.122-.055v.106c0,.034.042.05.123.05l.123-.05H2.4v.05l.122-.05v.05l.12-.05v.05a2.062,2.062,0,0,0,.484.054,2.524,2.524,0,0,1,.4.038c.035,0,.067,0,.1.005l.11-.1a.244.244,0,0,0,.021.1c.051,0,.109.005.16.005h0c.123-.065.186-.065.186,0,.076,0,.1-.008.06-.026s-.017-.025.063-.025a1.951,1.951,0,0,0,.216.073c15.645.543,34.212.219,49.526-.279,15.316.5,33.885.822,49.531.279a2.069,2.069,0,0,0,.217-.073c.082,0,.1.009.059.025s-.016.026.063.026c0-.065.062-.065.182,0h0c.055,0,.113,0,.162-.005a.233.233,0,0,0,.017-.1l.115.1c.033,0,.065-.005.1-.005a2.625,2.625,0,0,1,.394-.038,2.09,2.09,0,0,0,.492-.054v-.05l.12.05v-.05l.122.05v-.05h.122l.12.05c.081,0,.126-.016.126-.05v-.106c.081.07.113.089.113.055s.089-.055.25-.055c0-.015-.021-.026-.059-.035.038,0,.059-.021.059-.067,0-.07-.041-.111-.124-.131a.406.406,0,0,0-.041,0,.912.912,0,0,1,.287-.073h.119a1.248,1.248,0,0,0,.122-.06v.005c0,.038.082.055.246.055a.466.466,0,0,1,.366-.079,1.428,1.428,0,0,0,.484-.028,1.473,1.473,0,0,0,.483-.051,1.5,1.5,0,0,1,.493-.052v-.1c.072.067.135.088.182.051s.1-.034.179,0v-.051c0-.033.045-.033.12,0s.124.017.124-.055c.076.072.143.094.181.08a1.067,1.067,0,0,1,.308-.025l.118.051v-.106h.122c.081-.033.122-.07.122-.1h.12v-.051l.242.051c-.076-.065-.076-.086,0-.051a.327.327,0,0,0,.249,0v-.157c.075.07.12.112.12.131v-.131l.243.1h.118v-.075c0-.018.081.008.247.075v-.1c0,.036.038.051.122.051s.122-.016.122-.051v-.107c0-.033.016-.047.059-.047s.014-.037-.059-.106h.118v.054a1.054,1.054,0,0,1,.242-.078,1.87,1.87,0,0,0,.246-.079c0,.033.043.049.119.049-.076-.139-.076-.169,0-.1s.123.073.123,0v.055h.126c-.082-.073-.107-.1-.068-.081a2.41,2.41,0,0,0,.309.081c0-.036-.045-.055-.123-.055s-.118-.035-.118-.1c0-.033.038-.042.118-.026s.123.064.123.129a.164.164,0,0,1,.122-.184.974.974,0,0,0,.246-.079,1.825,1.825,0,0,0-.609-.205v-.048a.635.635,0,0,0-.309-.031c-.038.018-.14-.009-.3-.076a.993.993,0,0,1,.614-.134,1.248,1.248,0,0,0,.609-.078,2.914,2.914,0,0,0-.368-.1l.243-.058c-.164-.064-.243-.081-.243-.049v-.051a.69.69,0,0,1,.368-.082.88.88,0,0,0,.369-.024c0-.068-.021-.089-.072-.052s-.06.015-.06-.055a1.255,1.255,0,0,1-.6-.047.9.9,0,0,0-.609,0c0,.032.021.04.059.02s.06,0,.06.027-.119.055-.365.055h-1.332a3.5,3.5,0,0,0-1.461,0h-.124l-.12-.055c0,.039-.124.055-.361.055a.961.961,0,0,0-.493.025,1.357,1.357,0,0,1-.6.027c.079.106.1.13.058.079s-.136-.079-.3-.079a1.13,1.13,0,0,0-.3.051,1.562,1.562,0,0,1-.431.055c0-.071.062-.1.183-.082a.334.334,0,0,0,.3-.076c0-.07-.012-.084-.051-.055s-.067.039-.067,0a.554.554,0,0,1,.433-.106.255.255,0,0,0,.3-.1v.1a4.277,4.277,0,0,0,1.582-.2l.12.153a1.268,1.268,0,0,0,.792-.131.8.8,0,0,1,.669-.077.527.527,0,0,0-.369-.052.655.655,0,0,1-.363,0v-.055a.408.408,0,0,0-.183.031.566.566,0,0,1-.178.023c-.412,0-.811.005-1.222.028a6.884,6.884,0,0,1-1.332-.083v-.15a.31.31,0,0,1-.249.079c-.078-.021-.118.025-.118.127-.08,0-.08-.015,0-.055-.08-.065-.144-.047-.185.055s-.144.122-.3.052c0-.068.014-.107.065-.107.033,0,.054-.034.054-.1l-.119.1c0-.065-.059-.1-.186-.1a.474.474,0,0,0-.3.1c0-.1-.063-.132-.187-.1a.311.311,0,0,1-.3-.048,4.822,4.822,0,0,1,.788-.059,1.724,1.724,0,0,0,.673-.1v.055c0,.032.025.047.059.047s.059-.03.059-.1v.055c.081.032.2,0,.366-.106h.122c-.021,0-.03-.01-.046-.01.085-.005.182-.012.291-.017a8.894,8.894,0,0,0,.976-.078h-.128c0-.067.016-.1.062-.1h.182v-.05c.042,0,.075,0,.115-.006a.293.293,0,0,1,.007.055c.081,0,.109-.018.065-.051-.01-.008-.005-.008-.005-.012s.018,0,.029,0,.02.005.035.016v.051h.542a2.765,2.765,0,0,0,.552-.051v.051q.122-.106.181-.051c.042.033.064.017.064-.055,0-.03-.022-.039-.064-.025s-.06.009-.06-.023v-.009c.6-.033,1.124-.082,1.581-.148a.979.979,0,0,0-.361-.052l.729-.106h-.126c.246-.034.506-.071.792-.107a7.668,7.668,0,0,1,.8-.048v-.081a1.139,1.139,0,0,0-.369.081,5.022,5.022,0,0,0-1.407-.025m-114.023.543a.056.056,0,0,0-.016-.039h.038a.14.14,0,0,0,.033,0c.016,0,.027,0,.042,0-.059.052-.1.067-.1.034m.483.055-.241-.055v-.022c.082.006.158.013.241.018v.059Zm.928-.525a.4.4,0,0,1-.075-.048c.085-.073.127-.064.127.027,0,.014,0,.012,0,.021Zm.292.576H-.521l0-.022a1.243,1.243,0,0,0,.126.013Zm-.132-.488c.075.006.158.009.253.012v.008a.441.441,0,0,1-.253-.02m.577.02H.213a.906.906,0,0,1,.361.054,2.219,2.219,0,0,1-.527-.054m.771.031c-.009,0-.021-.012-.03-.015a.287.287,0,0,0,.03-.017Zm.67.074c-.026,0-.043.006-.051.017a.121.121,0,0,0-.038,0c-.008-.01-.02-.021-.029-.033.044,0,.1.009.144.012-.012,0-.016.008-.026.008m.92.1-.008,0a.348.348,0,0,0-.008-.067.628.628,0,0,0,.072,0,.475.475,0,0,0-.056.067m-6.333,2.043c0,.033-.02.042-.06.024a.077.077,0,0,1-.056-.076c0-.037.014-.046.056-.028a.085.085,0,0,1,.06.08c.081-.036.127-.036.127,0s-.046.033-.127,0m.364.055v-.055c0,.033.08.055.246.055l-.246.048Zm0,.828h-.123V1131c0-.037.046-.053.123-.053,0,.067.062.085.183.053s.182,0,.182.1c-.245,0-.365-.018-.365-.055m.73,0a.352.352,0,0,1-.243.107c-.076,0-.043-.034.123-.107l.12-.047Zm-.243-.808a.184.184,0,0,0-.241.027.273.273,0,0,1,.241-.08,1.161,1.161,0,0,0,.243.031.189.189,0,0,1-.243.021m6.932-2.11a3.09,3.09,0,0,1,.6.064c-.075.014-.152.03-.233.039-.123,0-.246-.009-.369-.009Zm-.486-.053,0,.005c0,.021.027.042.058.064a.364.364,0,0,0-.154.051c-.055-.005-.11-.012-.164-.015a.316.316,0,0,1-.082-.117c.114,0,.225.011.339.011m-.391.021c-.008,0-.018,0-.035.005-.039.016-.058.007-.058-.026a.168.168,0,0,1,.093.021m-.093.712c0,.029.039.048.118.048,0,.068-.025.08-.06.03s-.1-.06-.185-.03c.085-.069.127-.089.127-.048m-.366.65c0-.058.042-.046.12.025.082-.037.119-.037.119,0s.046.052.127.052c0-.038.018-.052.058-.052s.06.015.06.052H2.888c0,.035-.042.035-.127,0,0,.068.021.106.064.106s.063.036.063.1a.16.16,0,0,1-.246-.022c-.079-.088-.12-.077-.12.022,0-.1-.02-.155-.06-.155s-.062-.034-.062-.1c.079.033.122.025.122-.025m-.972,0c.076.018.119.009.119-.03.165-.065.2-.065.122,0-.029.03-.037.042-.037.048a.478.478,0,0,1-.085.007c0,.069.062.1.182.1s.183.017.183.055a.276.276,0,0,1-.3.024,1.067,1.067,0,0,1-.3-.182c0-.037.037-.046.12-.025m.363-.03c0,.025-.044.039-.111.048.029-.011.059-.023.111-.048m-.79.313c.042,0,.062.021.062.058v-.058a.782.782,0,0,0,.423.079,1.2,1.2,0,0,1,.428.03c0,.067-.059.1-.183.076a1.343,1.343,0,0,1-.3-.076V1130a.652.652,0,0,1-.12-.094v.106c-.246,0-.369-.049-.369-.154,0-.072.021-.109.062-.109m.547.263c0,.046-.034.043-.1,0Zm-1.4-.312a.682.682,0,0,1,.425.049v.109c.081-.039.12-.039.12,0H.7a.438.438,0,0,0-.425-.079.419.419,0,0,1-.425-.13.66.66,0,0,0,.425.051m-.793-.106H-.4c-.075.073-.075.091,0,.055s.12-.038.12,0c0,.065-.042.1-.12.1s-.123-.034-.123-.1Zm-.483.679v-.048c0,.033.038.033.122,0l-.122.1Zm-1.035-.048a.292.292,0,0,0,.181.048c-.076.1-.14.13-.181.078a.216.216,0,0,0-.181-.078c.082-.071.136-.089.181-.048m-.181,0c0,.065-.021.093-.062.075s-.062-.042-.062-.075c.081.033.123.033.123,0m-.369.1-.12-.1c.162-.041.266-.031.3.021.026.036.042.042.05.024a.111.111,0,0,1-.05.082c-.039.014-.063-.006-.063-.078v.1Zm.55.654a2.98,2.98,0,0,0-.428-.025.761.761,0,0,1,.484-.054,2.578,2.578,0,0,0,.488.054,2.19,2.19,0,0,1-.544.025m1.035.209v-.028a.082.082,0,0,1,.01-.036c.017.025.046.036.111.036-.084.07-.122.078-.122.028m.021-.082a.1.1,0,0,1,.1-.052c0,.035-.042.048-.1.052M-1,1131c-.084.069-.123.075-.123.02s-.084-.041-.246.027c0-.033-.039-.047-.122-.047.082-.037.122-.073.122-.106,0,.069.044.085.126.054A.213.213,0,0,1-1,1131c0-.073.017-.089.056-.053s.065.016.065-.054v.079c0-.018.079-.009.245.028v-.053a.247.247,0,0,0,.181.025c.038-.018.1.007.179.075l.124-.1V1131a3.556,3.556,0,0,0,.667.047,2.865,2.865,0,0,1,.792.107c-.164.143-.246.143-.246,0v.157a1.177,1.177,0,0,1-.137-.076.121.121,0,0,0,.017-.081,9.822,9.822,0,0,0-1.031-.052A3.373,3.373,0,0,1-1,1131m1.943.256v.055c0-.035-.038-.035-.122,0a.051.051,0,0,1,.059-.055.042.042,0,0,0,.041-.021.066.066,0,0,0,.022.021m-1.093.264c0-.033-.042-.033-.124,0,.082-.106.124-.131.124-.081s.035.061.12.026c-.085.072-.12.089-.12.055m.667.025c-.065.009-.133.014-.185.021,0-.031-.021-.046-.058-.046s-.059.017-.059.051c.069-.03.1-.026.114-.005-.044,0-.08.005-.114.005H-.033v-.051c0-.106.122-.106.368,0,0-.033.077-.088.239-.158.079.1.141.138.183.1s.1.022.182.157a.824.824,0,0,0-.425-.077m.546.026v.051c0-.035-.035-.051-.12-.051.085-.034.12-.072.12-.106l-.12.055v-.106c.085,0,.12.018.12.051Zm.246.154v-.051c0-.006.009-.012.012-.018a.145.145,0,0,0-.012.069m.058-.076a.029.029,0,0,0-.043,0c.012-.019.043-.032.109-.032,0,.034-.021.046-.065.028m.39.451a.162.162,0,0,0,.037-.009c.082-.037.122-.037.122,0-.068,0-.119.006-.158.009m.768.042a.2.2,0,0,0-.06-.157c-.044-.033-.062-.015-.062.055v-.159c.079,0,.122.071.122.21Zm1.943-.418h-.12c-.081,0-.1.011-.06.028s.02.024-.058.024a6.844,6.844,0,0,0-1.339-.1c0-.034-.021-.052-.063-.052a.347.347,0,0,0-.183.1c-.164,0-.263-.034-.3-.1s-.141-.051-.306.052c0,.034-.016.017-.059-.052s-.063-.068-.063,0v-.051a.785.785,0,0,1-.852-.21,1.05,1.05,0,0,0,.369.1h.239v-.1a1.121,1.121,0,0,0,.611.158,1.461,1.461,0,0,1,.482.051v-.106c0-.033.021-.051.064-.051s.063.018.063.051v.106c.158,0,.34.007.543.021a7.15,7.15,0,0,0,.8.03l.118-.051c-.081.036-.081.069,0,.1h.12Zm.489-1.459c0-.071.08-.071.238,0Zm97.788,0c.165-.071.242-.071.242,0Zm9.123-.1a.084.084,0,0,1,.058-.08c.044-.018.065-.009.065.028s-.021.057-.065.076-.058.009-.058-.024q-.118.049-.118,0t.118,0m-.239.836v.047H111.5c0,.037-.126.055-.365.055,0-.1.06-.139.182-.1s.183.014.183-.053c.077,0,.122.016.122.053m-.122-.836v.1l-.247-.048c.164,0,.247-.022.247-.055m-.489.024a.272.272,0,0,1,.242.08.185.185,0,0,0-.242-.027.184.184,0,0,1-.239-.021,1.126,1.126,0,0,0,.239-.031m-.239.813.12.047c.162.073.2.107.119.107a.343.343,0,0,1-.239-.107Zm-5.718-2.924c0,.033-.018.042-.064.026a.031.031,0,0,0-.033-.005.168.168,0,0,1,.1-.021m0,.733c0-.041.038-.021.123.048-.085-.03-.141-.028-.187.03s-.06.038-.06-.03c.088,0,.124-.02.124-.048m-.5-.728.008-.005h0c.114,0,.226-.006.34-.011a.445.445,0,0,1-.078.117c-.052,0-.113.009-.17.015a.352.352,0,0,0-.15-.051c.03-.022.051-.043.051-.064m-.48.048v.094c-.116,0-.243.009-.363.009-.08-.009-.16-.025-.24-.039a3.208,3.208,0,0,1,.6-.064m1.463,3.912c0-.07-.018-.088-.065-.055a.208.208,0,0,0-.056.157v-.051c0-.139.042-.21.122-.21Zm.606.051a.2.2,0,0,0,.035.009,1.578,1.578,0,0,0-.161-.009c0-.037.046-.037.126,0m.425-.442c-.037.018-.06.006-.06-.028.06,0,.1.013.1.032-.008-.013-.024-.016-.043,0m.062.076a.14.14,0,0,0-.014-.069c.005.006.014.012.014.018Zm.246-.1v-.157c0-.033.039-.051.118-.051v.106l-.118-.055c0,.034.039.072.118.106-.078,0-.118.016-.118.051m1.09-.051h-.24c-.039,0-.077-.005-.118-.005.009-.021.041-.025.118.005,0-.034-.025-.051-.063-.051s-.055.014-.055.046c-.058-.007-.123-.012-.182-.021a.849.849,0,0,0-.433.077c.081-.135.147-.19.186-.157s.1,0,.181-.1c.168.071.246.126.246.158.241-.106.36-.106.36,0Zm-.972-.261v-.055c.012,0,.016-.012.029-.021a.041.041,0,0,0,.038.021c.039,0,.051.02.051.055-.072-.035-.118-.035-.118,0m1.1.209c0,.034-.045.017-.127-.055.082.034.127.025.127-.026s.037-.025.116.081c-.08-.033-.116-.033-.116,0m.847-.339c0,.05-.033.042-.122-.028.072,0,.1-.011.109-.036a.07.07,0,0,1,.013.036Zm-.122-.135a.11.11,0,0,1,.106.052c-.064,0-.106-.017-.106-.052m1.521-.808c.042-.052.144-.062.3-.021l-.12.1-.118.053v-.1c0,.072-.022.093-.064.078s-.039-.043-.051-.082c.012.018.031.012.051-.024m-.06-.021a.085.085,0,0,1-.058.075c-.039.018-.063-.009-.063-.075,0,.033.041.033.12,0m-.3,0c.043-.041.1-.022.183.048a.223.223,0,0,0-.183.078c-.044.051-.1.026-.178-.078a.288.288,0,0,0,.178-.048m-.06.675a.766.766,0,0,1,.488.054,2.98,2.98,0,0,0-.428.025,2.2,2.2,0,0,1-.546-.025,2.5,2.5,0,0,0,.486-.054m-.975-.675v.1l-.122-.1c.089.033.122.033.122,0m-.607-.576c.082.036.082.018,0-.055h.119v.055c0,.065-.037.1-.119.1s-.123-.034-.123-.1c0-.038.047-.038.123,0m-1.09.208v-.109a.671.671,0,0,1,.421-.049.671.671,0,0,0,.429-.051.425.425,0,0,1-.429.13.431.431,0,0,0-.421.079h-.131c0-.039.047-.039.131,0m.185,1.2a3.6,3.6,0,0,0,.666-.047v-.053l.116.1c.081-.068.148-.093.187-.075a.247.247,0,0,0,.178-.025V1131c.166-.037.243-.046.243-.028v-.079c0,.069.02.085.067.054s.055-.021.055.053a.215.215,0,0,1,.245-.053c.081.032.124.016.124-.054,0,.033.035.069.12.106-.085,0-.12.014-.12.047-.166-.068-.245-.075-.245-.027s-.043.05-.124-.02a3.341,3.341,0,0,1-.912.1,9.855,9.855,0,0,0-1.034.052.128.128,0,0,0,.021.081c-.043.021-.08.05-.139.076v-.157c0,.143-.08.143-.246,0a2.882,2.882,0,0,1,.8-.107m-1.336-1.459c.113,0,.177-.034.177-.1a.565.565,0,0,1-.089-.007c0-.006-.005-.018-.035-.048-.08-.065-.037-.065.124,0,0,.039.041.048.122.03s.119-.012.119.025a1.037,1.037,0,0,1-.3.182.269.269,0,0,1-.3-.024c0-.038.054-.055.186-.055m-.073-.158c.062.025.089.037.114.048-.058-.009-.114-.023-.114-.048m.313.392a.765.765,0,0,0,.421-.079v.058a.057.057,0,0,1,.062-.058c.042,0,.063.037.063.109,0,.106-.124.154-.368.154v-.106a.648.648,0,0,1-.119.094v-.142a1.529,1.529,0,0,1-.3.076c-.132.021-.186-.009-.186-.076a1.174,1.174,0,0,1,.425-.03m.042.184c-.069.043-.1.046-.1,0Zm-.713,1.515a1.1,1.1,0,0,0,.609-.158v.1h.241a1.038,1.038,0,0,0,.368-.1.792.792,0,0,1-.859.21v.051c0-.068-.017-.068-.059,0s-.054.086-.054.052c-.162-.1-.266-.12-.3-.052s-.145.1-.308.1a.354.354,0,0,0-.182-.1c-.045,0-.062.018-.062.052a6.868,6.868,0,0,0-1.34.1c-.077,0-.1-.005-.067-.024.05-.017.025-.028-.058-.028h-.116v-.051h.116c.082-.034.082-.067,0-.1l.124.051a6.976,6.976,0,0,0,.792-.03c.2-.014.387-.021.548-.021v-.106c0-.033.017-.051.062-.051s.062.018.062.051v.106a1.458,1.458,0,0,1,.484-.051m-.122-2.036c0,.069-.018.1-.065.1s-.056.055-.056.155c0-.1-.042-.11-.12-.022a.158.158,0,0,1-.243.022c0-.064.017-.1.062-.1s.062-.038.062-.106c-.085.035-.123.035-.123,0h-.124c0-.038.027-.052.06-.052s.064.015.064.052c.079,0,.123-.02.123-.052s.041-.037.12,0c.079-.07.12-.082.12-.025s.042.058.122.025m0-1.366-.01,0a.268.268,0,0,0-.055-.067.639.639,0,0,0,.073,0,.5.5,0,0,0-.008.067m1-.08a.178.178,0,0,0-.042,0,.047.047,0,0,0-.039-.017c-.016,0-.018-.008-.03-.008.047,0,.093-.009.139-.012l-.027.033m.576-.088v-.031c.01.008.029.01.037.017a.367.367,0,0,1-.037.015m.249.022a.94.94,0,0,1,.366-.054h.162a2.151,2.151,0,0,1-.529.054m1.091.415h-.119v-.009a1.059,1.059,0,0,0,.122-.013l0,.022m-.242-.469.005-.008c.088,0,.178-.005.253-.012a.455.455,0,0,1-.258.02m.419-.107h-.062c.005-.009.008-.007.008-.021,0-.091.041-.1.128-.027-.027.021-.055.034-.075.048m1.169.47-.251.055v-.055l0,0,.249-.018Zm.24,0c0,.033-.034.018-.1-.034l.046,0a.1.1,0,0,0,.03,0h.037a.07.07,0,0,0-.016.039" transform="translate(5.749 -992.229)" fill="#fff"/>
  <path id="Path_312" data-name="Path 312" d="M28.478,1116.907a6.015,6.015,0,0,0-3.082-.544,6.679,6.679,0,0,0-3.151,1.067,14.068,14.068,0,0,1,.489-1.8,1.947,1.947,0,0,1,.879-1.2,2.305,2.305,0,0,1,1.755-.206,2.814,2.814,0,0,1,.788.355,1.356,1.356,0,0,0,.8.312.754.754,0,0,0,.619-.429,1.923,1.923,0,0,0,.216-.848,1.44,1.44,0,0,0-.26-1.031,2.638,2.638,0,0,0-.983-.624.232.232,0,0,0-.059-.022,3.1,3.1,0,0,1-1.018-.522,4.008,4.008,0,0,1-.758-.783.355.355,0,0,0-.031-.039c-.325-.382-.575-.6-.883-.6a.648.648,0,0,0-.326.1c-.482.322-.186.946-.012,1.312a4.542,4.542,0,0,0,.809,1.194,4.14,4.14,0,0,0-1.091.243,3.224,3.224,0,0,0-1.908,1.708,10.881,10.881,0,0,0-.783,2.416,17.635,17.635,0,0,1-.525,1.709,2.151,2.151,0,0,0-.213,1.054,1.306,1.306,0,0,0,1.178,1.122,1.045,1.045,0,0,0,.785-.512,6.154,6.154,0,0,1,1.1-1.086,4,4,0,0,1,1.53-.883,5.774,5.774,0,0,1,1.378-.191,6.637,6.637,0,0,1,1.235.13,1.242,1.242,0,0,1,.8.482,1.62,1.62,0,0,1,.3,1.018,2.541,2.541,0,0,1-.254,1.167,2.366,2.366,0,0,1-1.042.9,7.207,7.207,0,0,1-2.011.7,10.4,10.4,0,0,1-2.023.233c-.781.057-1.137.129-1.3.433a.608.608,0,0,0-.02.534c.178.354.51.433,2,.466.077,0,.156,0,.232,0a10.89,10.89,0,0,0,2.869-.4,5.861,5.861,0,0,0,2.367-1.141,3.2,3.2,0,0,0,1.009-1.527,5.18,5.18,0,0,0,.19-1.334,5.876,5.876,0,0,0-.183-1.364,2.648,2.648,0,0,0-1.424-1.568" transform="translate(13.619 -997.668)" fill="#fff"/>
  <path id="Path_313" data-name="Path 313" d="M38.7,1113.659a2.225,2.225,0,0,0-.817-.209,2.37,2.37,0,0,0-.713.164,25.81,25.81,0,0,1-3.078.419,2.063,2.063,0,0,0-.868.221q-1.979-.064-2.947-.188c-.133-.009-.251-.015-.36-.015-.995,0-1.1.524-1.1.75a1.064,1.064,0,0,0,.22.568,4.048,4.048,0,0,0,.869.809,2.166,2.166,0,0,0,1.271.558c.034,0,.065,0,.1,0a8.876,8.876,0,0,0,1.072-.186,29.553,29.553,0,0,1,3.069-.363,1.6,1.6,0,0,0,.874-.237,22.14,22.14,0,0,1,2.828.12,1.233,1.233,0,0,0,.39.07.644.644,0,0,0,.679-.654c0-.229-.119-.472-.476-.961a2.516,2.516,0,0,0-1.017-.863" transform="translate(16.42 -996.6)" fill="#fff"/>
  <path id="Path_314" data-name="Path 314" d="M50.77,1114.21a5.478,5.478,0,0,0-2.43-.864,5.237,5.237,0,0,1,.3-.866.891.891,0,0,0,.165-.572,1.066,1.066,0,0,0-.3-.682,1.548,1.548,0,0,0-.768-.475,2.292,2.292,0,0,0-.628-.126.663.663,0,0,0-.529.24.868.868,0,0,0-.122.759,2.483,2.483,0,0,1,.052.9c-.026.239-.068.5-.118.79a5.756,5.756,0,0,0-1.688.466,10.584,10.584,0,0,0-1.129.569,8.382,8.382,0,0,1-.222-.957,2.349,2.349,0,0,1-.043-.768.311.311,0,0,0,.012-.1c0-.313-.165-.725-.946-.925a1.887,1.887,0,0,0-1.051-.058.749.749,0,0,0-.568.707,1.187,1.187,0,0,0,.285.693,4.475,4.475,0,0,1,.488,1.1c.122.394.267.885.455,1.479a7.431,7.431,0,0,0-1.737,2.451,6.033,6.033,0,0,0-.516,2.216,5.825,5.825,0,0,0,.107.951,1.592,1.592,0,0,0,.866,1.2,2.381,2.381,0,0,0,1.059.3,3.172,3.172,0,0,0,1.081-.275,4.721,4.721,0,0,0,1.267-.73,6.516,6.516,0,0,0,.768-.728,1.5,1.5,0,0,0,.637.352,1,1,0,0,0,.966-.245.894.894,0,0,0,.331-.613.939.939,0,0,0-.466-.8,2.637,2.637,0,0,1-.342-.252,17.361,17.361,0,0,0,1.9-4.267,4.1,4.1,0,0,1,1.411.447,2.834,2.834,0,0,1,1.156,1.123,2.549,2.549,0,0,1,.209,1.745,3.821,3.821,0,0,1-.868,1.9,6.7,6.7,0,0,1-1.777,1.463,7.632,7.632,0,0,1-1.843.81c-.691.208-1.038.376-1.127.735a.567.567,0,0,0,.152.555.741.741,0,0,0,.533.187,6.058,6.058,0,0,0,1.662-.323,8.542,8.542,0,0,0,3.1-1.607,5.106,5.106,0,0,0,1.856-2.5,7.8,7.8,0,0,0,.327-1.954,4.6,4.6,0,0,0-.343-1.625,4.045,4.045,0,0,0-1.6-1.824m-4.819.962a15.5,15.5,0,0,1-1.1,2.627c-.05-.083-.1-.169-.156-.26a10.126,10.126,0,0,1-.592-1.506,7.449,7.449,0,0,1,1.221-.655,5.106,5.106,0,0,1,.628-.206m-2.248,4.311c-.912,1.027-1.526,1.269-1.9,1.276-.1-.045-.221-.157-.259-.5a5.393,5.393,0,0,1,1.123-2.853,9.559,9.559,0,0,0,1.033,2.081" transform="translate(19.79 -997.472)" fill="#fff"/>
  <path id="Path_315" data-name="Path 315" d="M64.643,1118.515a.551.551,0,0,0-.522-.408c-.364,0-.5.157-1.243,1.512a9.878,9.878,0,0,1-1.453,2.046,2.138,2.138,0,0,1-1.106.671,1,1,0,0,1-.644-.051.57.57,0,0,1-.236-.362,6.3,6.3,0,0,1-.021-1.424c0-.679-.007-1.331-.034-1.939a2,2,0,0,0-.735-1.642,2.067,2.067,0,0,0-1.364-.407,3.564,3.564,0,0,0-1.368.416,36.1,36.1,0,0,1,2.106-3.858,1.757,1.757,0,0,0,.437-.954,1.34,1.34,0,0,0-.251-.729,1.844,1.844,0,0,0-.616-.611,1.289,1.289,0,0,0-.688-.254.762.762,0,0,0-.682.433,1.289,1.289,0,0,0-.08.735,3.122,3.122,0,0,1-.279.952c-.219.577-.908,2.036-2.036,4.34s-1.9,3.761-2.29,4.355c-.533.793-.669,1.429-.411,1.936a1.092,1.092,0,0,0,.954.735c.021,0,.077,0,.1-.005.347-.042.679-.312,1.433-1.615a17.322,17.322,0,0,1,1.43-2.292,5.032,5.032,0,0,1,1.374-1.362,2.026,2.026,0,0,1,.891-.37.376.376,0,0,1,.077.014,1.973,1.973,0,0,1,.055.4c.018.476.034,1.1.034,1.831a5.753,5.753,0,0,0,.195,2.145,1.984,1.984,0,0,0,1.209,1.292,2.99,2.99,0,0,0,1.013.185,2.894,2.894,0,0,0,.582-.062,4.635,4.635,0,0,0,1.433-.578,5.1,5.1,0,0,0,1.476-1.645,9.329,9.329,0,0,0,1.012-2.115c.293-.956.288-1.136.247-1.313" transform="translate(23.267 -997.505)" fill="#fff"/>
</svg>
