<svg xmlns="http://www.w3.org/2000/svg" width="80.659" height="71.55" viewBox="0 0 80.659 71.55">
    <path id="Icon" d="M44.876,71.55A35.066,35.066,0,0,1,22.94,63.96a3.847,3.847,0,0,1-1.482-2.809,4.027,4.027,0,0,1,1.164-3.114,3.928,3.928,0,0,1,2.793-1.164,3.982,3.982,0,0,1,2.454.845A27.2,27.2,0,0,0,44.876,63.6,27.686,27.686,0,0,0,64.455,16.2,27.592,27.592,0,0,0,45.273,7.962l-.362,0A27.812,27.812,0,0,0,17.059,35.782H24.17a1.971,1.971,0,0,1,1.852,1.234,1.934,1.934,0,0,1-.421,2.143L14.513,50.29a1.965,1.965,0,0,1-2.818,0L.6,39.159a1.927,1.927,0,0,1-.454-2.142,1.955,1.955,0,0,1,1.846-1.235H9.108A35.83,35.83,0,0,1,44.9,0c.338,0,.678,0,1.01.014A36.194,36.194,0,0,1,80.645,34.748a35.8,35.8,0,0,1-35.768,36.8ZM56.769,48.673a3.022,3.022,0,0,1-1.52-.412l-12.4-7.354A4.008,4.008,0,0,1,40.9,37.492V22.866a2.981,2.981,0,0,1,5.963-.039v13.51l11.446,6.8a2.977,2.977,0,0,1-1.541,5.537Z" fill="#f5f5f5" />
</svg>
  