<svg id="Group_17491" data-name="Group 17491" xmlns="http://www.w3.org/2000/svg" width="108.533" height="97.127" viewBox="0 0 108.533 97.127">
    <path id="Path_54511" data-name="Path 54511" d="M105.4,22.959a3.131,3.131,0,0,0,3.131-3.131V3.131A3.131,3.131,0,0,0,105.4,0H36.526V15.654a3.131,3.131,0,0,1-6.261,0V0H3.131A3.131,3.131,0,0,0,0,3.131v16.7a3.131,3.131,0,0,0,3.131,3.131,9.392,9.392,0,0,1,0,18.785A3.131,3.131,0,0,0,0,44.874v16.7A3.131,3.131,0,0,0,3.131,64.7H30.264V49.049a3.131,3.131,0,0,1,6.261,0V64.7H105.4a3.131,3.131,0,0,0,3.131-3.131v-16.7a3.131,3.131,0,0,0-3.131-3.131,9.392,9.392,0,1,1,0-18.785ZM36.526,36.526a3.131,3.131,0,0,1-6.261,0V28.177a3.131,3.131,0,1,1,6.261,0Z" transform="translate(0 32.425)" fill="#e1222d" />
    <path id="Path_59296" data-name="Path 59296" d="M96.061,100.194h83.624a12.392,12.392,0,0,1,3.761.582l-7.568-22.334a8.076,8.076,0,0,0-10.261-4.872L93.747,100.407l-.025.01A12.46,12.46,0,0,1,96.061,100.194Z" transform="translate(-83.629 -73.101)" fill="#f2ece4" />
</svg>
  