<svg xmlns="http://www.w3.org/2000/svg" xmlns:xlink="http://www.w3.org/1999/xlink" width="445.815" height="574.354" viewBox="0 0 445.815 574.354">
  <defs>
    <filter id="Subtraction_4" x="0" y="0" width="445.815" height="574.354" filterUnits="userSpaceOnUse">
      <feOffset dx="2" dy="2" input="SourceAlpha"/>
      <feGaussianBlur stdDeviation="15" result="blur"/>
      <feFlood flood-opacity="0.071"/>
      <feComposite operator="in" in2="blur"/>
      <feComposite in="SourceGraphic"/>
    </filter>
  </defs>
  <g id="Group_17492" data-name="Group 17492" transform="translate(13 -113)">
    <g transform="matrix(1, 0, 0, 1, -13, 113)" filter="url(#Subtraction_4)">
      <path id="Subtraction_4-2" data-name="Subtraction 4" d="M342.709,484.354h0l-6.244-6.841-6.243,6.841-6.244-6.841-6.245,6.841-6.243-6.841-6.245,6.841L299,477.512l-6.245,6.841-6.244-6.841-6.244,6.841-6.244-6.841-6.244,6.841-6.244-6.841-6.244,6.841-6.244-6.841-6.243,6.841-6.245-6.841-6.245,6.841-6.243-6.841-6.243,6.841-6.245-6.841-6.244,6.841-6.244-6.841-6.244,6.841-6.243-6.841-6.245,6.841-6.244-6.841-6.244,6.841-6.244-6.841-6.244,6.841-6.244-6.841-6.244,6.841-6.244-6.841-6.244,6.841-6.244-6.841-6.245,6.841-6.243-6.841-6.245,6.841-6.243-6.841-6.246,6.841L86.7,477.512l-6.244,6.841-6.243-6.841-6.245,6.841-6.244-6.841-6.244,6.841-6.244-6.841L43,484.353l-6.245-6.841-6.244,6.841-6.243-6.841-6.245,6.841-6.243-6.841-6.246,6.841L0,478.291V258.472H0a7.241,7.241,0,0,0,5.342-2.386,8.425,8.425,0,0,0,2.214-5.762,8.422,8.422,0,0,0-2.214-5.761A7.243,7.243,0,0,0,0,242.177V0L6.245,6.842,12.489,0l6.244,6.842L24.976,0l6.245,6.842L37.465,0l6.243,6.842L49.953,0,56.2,6.842,62.441,0l6.244,6.842L74.928,0l6.245,6.842L87.416,0l6.245,6.842L99.9,0l6.245,6.842L112.393,0l6.244,6.842L124.881,0l6.243,6.842L137.369,0l6.244,6.842L149.857,0,156.1,6.842,162.345,0l6.245,6.842L174.832,0l6.244,6.842L187.321,0l6.244,6.842L199.809,0l6.244,6.842L212.3,0l6.244,6.842L224.785,0l6.244,6.842L237.273,0l6.244,6.842L249.761,0l6.245,6.842L262.249,0l6.244,6.842L274.737,0l6.244,6.842L287.225,0l6.244,6.842L299.713,0l6.245,6.842L312.2,0l6.244,6.842L324.689,0l6.244,6.842L337.178,0l6.244,6.842L349.665,0l6.15,6.738V242.177a7.246,7.246,0,0,0-5.345,2.387,8.6,8.6,0,0,0,0,11.522,7.246,7.246,0,0,0,5.344,2.386V483.677l-.617.675-6.244-6.841-6.244,6.841Z" transform="translate(398.81 527.35) rotate(180)" fill="#fff"/>
    </g>
  </g>
</svg>
