<svg xmlns="http://www.w3.org/2000/svg" width="29.428" height="31.571" viewBox="0 0 29.428 31.571">
  <g id="Group_17493" data-name="Group 17493" transform="translate(-16.427 -14.287)">
    <g id="Group_210" data-name="Group 210" transform="translate(16.427 14.287)">
      <g id="Group_209" data-name="Group 209" transform="translate(0)">
        <g id="Group_206" data-name="Group 206" transform="translate(0 4.74)">
          <g id="Group_205" data-name="Group 205">
            <g id="Group_204" data-name="Group 204">
              <path id="Path_603" data-name="Path 603" d="M307.814,175.147l-2.471-.091-.536,14.631,2.471.09Z" transform="translate(-287.084 -169.001)" fill="#fff"/>
              <rect id="Rectangle_55" data-name="Rectangle 55" width="2.473" height="14.632" transform="translate(13.477 6.1)" fill="#fff"/>
              <path id="Path_604" data-name="Path 604" d="M161.426,189.681l-.536-14.632-2.471.091.536,14.632Z" transform="translate(-149.722 -168.995)" fill="#fff"/>
              <path id="Path_605" data-name="Path 605" d="M17.379,76.867V79.34h2.577L22,102.57a1.236,1.236,0,0,0,1.232,1.128H40.913a1.236,1.236,0,0,0,1.232-1.129l2.044-23.23h2.618V76.867Zm22.4,24.358H24.364L22.438,79.34H41.706Z" transform="translate(-17.379 -76.867)" fill="#fff"/>
            </g>
          </g>
        </g>
        <g id="Group_208" data-name="Group 208" transform="translate(8.614)">
          <g id="Group_207" data-name="Group 207">
            <path id="Path_606" data-name="Path 606" d="M167.215,0h-8.078a2.063,2.063,0,0,0-2.061,2.061V5.976h2.473v-3.5H166.8v3.5h2.473V2.061A2.063,2.063,0,0,0,167.215,0Z" transform="translate(-157.076 0)" fill="#fff"/>
          </g>
        </g>
      </g>
    </g>
  </g>
</svg>
