<svg xmlns="http://www.w3.org/2000/svg" width="92.7" height="93.083" viewBox="0 0 92.7 93.083">
    <g id="Group_139" data-name="Group 139" transform="translate(0)">
        <g id="_046---Noodles" data-name="046---Noodles" transform="translate(12.021 0)">
            <g id="Layer_4" data-name="Layer 4" transform="translate(1.551 1.552)">
                <g id="Shape" transform="translate(0 4.655)">
                    <path id="Path_475" data-name="Path 475" d="M-57.711-163.923v6.206h-74.473a3.112,3.112,0,0,1-3.1-3.1,3.126,3.126,0,0,1,3.1-3.1Z" transform="translate(135.287 163.923)" fill="#e6a0a0" />
                </g>
                <g id="Shape-2" data-name="Shape" transform="translate(0 4.655)">
                    <path id="Path_476" data-name="Path 476" d="M-62.365-163.923v6.206h-69.818a3.112,3.112,0,0,1-3.1-3.1,3.126,3.126,0,0,1,3.1-3.1Z" transform="translate(135.287 163.923)" fill="#fcdad7" />
                </g>
                <g id="Shape-3" data-name="Shape" transform="translate(6.206)">
                    <path id="Path_477" data-name="Path 477" d="M-94.947-186.42v38.235h-6.206V-186.42a3.112,3.112,0,0,1,3.1-3.1,3.033,3.033,0,0,1,2.188.915A3.033,3.033,0,0,1-94.947-186.42Z" transform="translate(101.153 189.523)" fill="#fcdad7" />
                </g>
                <g id="Shape-4" data-name="Shape" transform="translate(12.412)">
                    <path id="Path_478" data-name="Path 478" d="M-60.814-186.42v38.235h-.016c.016,0-3.059,0-4.639,0H-67.02V-186.42a3.112,3.112,0,0,1,3.1-3.1,3.034,3.034,0,0,1,2.188.915,3.034,3.034,0,0,1,.915,2.188Z" transform="translate(67.02 189.523)" fill="#e6a0a0" />
                </g>
            </g>
            <g id="Group_129" data-name="Group 129" transform="translate(0)">
                <g id="Shape-5" data-name="Shape">
                    <path id="Path_479" data-name="Path 479" d="M-122.1-155.169v-28.926h57.406a1.552,1.552,0,0,0,1.551-1.552v-6.206a1.551,1.551,0,0,0-1.551-1.551H-122.1a4.635,4.635,0,0,0-2.754-4.256,4.634,4.634,0,0,0-5,.812,4.634,4.634,0,0,0-5-.812,4.635,4.635,0,0,0-2.754,4.256h-1.551a4.654,4.654,0,0,0-4.655,4.655,4.655,4.655,0,0,0,4.655,4.655h1.551v28.926h3.1V-193.4a1.552,1.552,0,0,1,1.551-1.552,1.552,1.552,0,0,1,1.552,1.552v38.235h3.1V-193.4a1.552,1.552,0,0,1,1.552-1.552A1.573,1.573,0,0,1-125.2-193.4v38.235ZM-63.141-130.6v-2.291m-76.024-54.3a1.551,1.551,0,0,1-1.551-1.551,1.573,1.573,0,0,1,1.551-1.552h1.551v3.1Zm72.922,0H-122.1v-3.1h55.855Z" transform="translate(143.82 198.059)" fill="#ac0e25" />
                </g>
            </g>
        </g>
        <g id="Group_138" data-name="Group 138" transform="translate(0 10.059)">
            <g id="Layer_4-2" data-name="Layer 4" transform="translate(1.833 2.002)">
                <g id="Shape-6" data-name="Shape" transform="translate(28.205 70.948)">
                    <path id="Path_480" data-name="Path 480" d="M-12.5,258.491v6.044a2.015,2.015,0,0,1-2.015,2.014h-28.2a2.015,2.015,0,0,1-2.015-2.014v-6.044Z" transform="translate(44.73 -258.491)" fill="#e6a0a0" />
                </g>
                <g id="Shape-7" data-name="Shape" transform="translate(28.205 70.948)">
                    <path id="Path_481" data-name="Path 481" d="M-18.54,258.491v6.044a2.014,2.014,0,0,1-2.015,2.014H-42.715a2.015,2.015,0,0,1-2.015-2.014v-6.044Z" transform="translate(44.73 -258.491)" fill="#fcdad7" />
                </g>
                <g id="Shape-8" data-name="Shape" transform="translate(53.408)">
                    <path id="Path_482" data-name="Path 482" d="M127.107-113.591a17.723,17.723,0,0,1-1.048,6.044H108.976a16.1,16.1,0,0,0-15.09-16.077,18.047,18.047,0,0,1,12.088-7.837,16.466,16.466,0,0,1,3-.262,18.132,18.132,0,0,1,18.132,18.132Z" transform="translate(-93.886 131.723)" fill="#e6a0a0" />
                </g>
                <g id="Shape-9" data-name="Shape" transform="translate(53.408 0.262)">
                    <path id="Path_483" data-name="Path 483" d="M121.063-112.411a17.728,17.728,0,0,1-1.048,6.044h-11.04a16.1,16.1,0,0,0-15.09-16.077,18.047,18.047,0,0,1,12.088-7.837A18.144,18.144,0,0,1,121.063-112.411Z" transform="translate(-93.886 130.281)" fill="#fff" />
                </g>
                <g id="Shape-10" data-name="Shape" transform="translate(36.263 8.059)">
                    <path id="Path_484" data-name="Path 484" d="M31.825-71.283H-.409A16.055,16.055,0,0,1,7.65-85.224a14.355,14.355,0,0,1,2.015-.987,15.584,15.584,0,0,1,3.042-.907,16.318,16.318,0,0,1,3-.282c.343,0,.685.02,1.027.04a15.821,15.821,0,0,1,8.079,2.8A16.037,16.037,0,0,1,31.825-71.283Z" transform="translate(0.409 87.4)" fill="#e6a0a0" />
                </g>
                <g id="Shape-11" data-name="Shape" transform="translate(61.487 8.059)">
                    <path id="Path_485" data-name="Path 485" d="M155.4-77.327a9.956,9.956,0,0,1-2.015,6.044H145.33a16.036,16.036,0,0,0-7.011-13.276,10.022,10.022,0,0,1,4.009-2.377,9.846,9.846,0,0,1,3-.463A10.073,10.073,0,0,1,155.4-77.327Z" transform="translate(-138.319 87.4)" fill="#e6a0a0" />
                </g>
                <g id="Shape-12" data-name="Shape" transform="translate(61.487 8.522)">
                    <path id="Path_486" data-name="Path 486" d="M149.359-75.241a9.954,9.954,0,0,1-2.015,6.044H145.33a16.036,16.036,0,0,0-7.011-13.276,10.022,10.022,0,0,1,4.009-2.377,10.073,10.073,0,0,1,7.031,9.61Z" transform="translate(-138.319 84.851)" fill="#fcdad7" />
                </g>
                <g id="Shape-13" data-name="Shape" transform="translate(36.263 8.341)">
                    <path id="Path_487" data-name="Path 487" d="M25.781-70.014H-.409A16.055,16.055,0,0,1,7.65-83.955a15.616,15.616,0,0,1,5.057-1.894A16.129,16.129,0,0,1,25.781-70.014Z" transform="translate(0.409 85.849)" fill="#fff" />
                </g>
                <g id="Shape-14" data-name="Shape" transform="translate(44.322 16.117)">
                    <path id="Path_488" data-name="Path 488" d="M60.03-35.021H43.913a8.014,8.014,0,0,1,5.037-7.454,7.565,7.565,0,0,1,3.022-.6A8.059,8.059,0,0,1,60.03-35.021Z" transform="translate(-43.913 43.079)" fill="#e6a0a0" />
                </g>
                <g id="Shape-15" data-name="Shape" transform="translate(44.322 16.722)">
                    <path id="Path_489" data-name="Path 489" d="M53.986-32.3H43.913a8.014,8.014,0,0,1,5.037-7.454A8.014,8.014,0,0,1,53.986-32.3Z" transform="translate(-43.913 39.754)" fill="#fcdad7" />
                </g>
                <g id="Shape-16" data-name="Shape" transform="translate(0 24.176)">
                    <path id="Path_490" data-name="Path 490" d="M-111.212,3.258v8.884c0,14.607-12.628,35.874-28.2,35.874h-32.234c-15.577,0-28.2-20.3-28.2-35.874V3.258a2.015,2.015,0,0,1,2.015-2.015h84.615A2.015,2.015,0,0,1-111.212,3.258Z" transform="translate(199.856 -1.243)" fill="#fcdad7" />
                </g>
                <g id="Shape-17" data-name="Shape" transform="translate(0 24.176)">
                    <path id="Path_491" data-name="Path 491" d="M-111.212,3.258V9.3h-88.644V3.258a2.015,2.015,0,0,1,2.015-2.015h84.615A2.015,2.015,0,0,1-111.212,3.258Z" transform="translate(199.856 -1.243)" fill="#e6a0a0" />
                </g>
                <g id="Shape-18" data-name="Shape" transform="translate(0 24.176)">
                    <path id="Path_492" data-name="Path 492" d="M-117.256,3.258V9.3h-82.6V3.258a2.015,2.015,0,0,1,2.015-2.015h78.571A2.015,2.015,0,0,1-117.256,3.258Z" transform="translate(199.856 -1.243)" fill="#fcdad7" />
                </g>
            </g>
            <g id="Shape-19" data-name="Shape" transform="translate(1.833 26.177)">
                <path id="Path_493" data-name="Path 493" d="M-169.637,56.074h6.044a2.015,2.015,0,0,1-2.015-2.015V48.016c-15.577,0-28.2-20.3-28.2-35.874V3.258A2.015,2.015,0,0,1-191.8,1.243h-6.044a2.015,2.015,0,0,0-2.015,2.015v8.884c0,15.577,12.628,35.874,28.2,35.874V54.06A2.015,2.015,0,0,0-169.637,56.074Z" transform="translate(199.856 -1.243)" fill="#fff" />
            </g>
            <g id="Group_130" data-name="Group 130" transform="translate(15.604 65.064)">
                <path id="Path_494" data-name="Path 494" d="M-109.678,225.139a2.159,2.159,0,0,1-.27-.017,26.4,26.4,0,0,1-13.5-6.317,2.132,2.132,0,0,1-.09-3.014,2.132,2.132,0,0,1,3.011-.092,22.383,22.383,0,0,0,11.11,5.193,2.132,2.132,0,0,1,1.848,2.383A2.132,2.132,0,0,1-109.678,225.139Z" transform="translate(124.115 -215.121)" fill="#fff" />
            </g>
            <g id="Shape-20" data-name="Shape" transform="translate(21.378 69.063)">
                <path id="Path_495" data-name="Path 495" d="M-92.246,238.458a2.014,2.014,0,0,0,.413,2.029,2.014,2.014,0,0,0,1.984.593,2.015,2.015,0,0,0,1.459-1.47,2.014,2.014,0,0,0-1.379-2.413,2.014,2.014,0,0,0-2.477,1.26Z" transform="translate(92.361 -237.112)" fill="#ac0e25" />
            </g>
            <g id="Shape-21" data-name="Shape" transform="translate(0.015 26.374)">
                <path id="Path_496" data-name="Path 496" d="M-191.441,46.042a1.811,1.811,0,0,1-1.151-.412,51.038,51.038,0,0,1-12.413-14.852,37.494,37.494,0,0,1-4.85-17.752V4.142a1.818,1.818,0,0,1,1.818-1.818,1.818,1.818,0,0,1,1.818,1.818v8.884c0,10.326,6.1,21.741,15.932,29.791a1.818,1.818,0,0,1,.254,2.559A1.815,1.815,0,0,1-191.441,46.042Z" transform="translate(209.856 -2.324)" fill="#ac0e25" />
            </g>
            <g id="Group_137" data-name="Group 137" transform="translate(0 0)">
                <g id="Group_131" data-name="Group 131" transform="translate(66.64 12.091)">
                    <path id="Path_497" data-name="Path 497" d="M156.579-75.315a18.075,18.075,0,0,1,5.587,11.153h5.067a8.022,8.022,0,0,0-1.124-9.591A8.022,8.022,0,0,0,156.579-75.315Z" transform="translate(-156.579 76.234)" fill="none" />
                </g>
                <g id="Group_132" data-name="Group 132" transform="translate(59.012 4.017)">
                    <path id="Path_498" data-name="Path 498" d="M125.947-120.641a16.044,16.044,0,0,0-11.318,4.694,18,18,0,0,1,4.174,1.733,12.037,12.037,0,0,1,14.372-.036,12.037,12.037,0,0,1,4.163,13.755h4.211a15.8,15.8,0,0,0,.516-4.029A16.135,16.135,0,0,0,125.947-120.641Z" transform="translate(-114.629 120.641)" fill="none" />
                </g>
                <g id="Group_133" data-name="Group 133" transform="translate(40.268 12.075)">
                    <path id="Path_499" data-name="Path 499" d="M25.481-76.32a14.044,14.044,0,0,0-7.051,1.9,14.2,14.2,0,0,0-6.894,10.184H15.61A10.073,10.073,0,0,1,25.481-72.3a10.073,10.073,0,0,1,9.872,8.069h4.07A14.1,14.1,0,0,0,25.481-76.32Z" transform="translate(-11.536 76.32)" fill="none" />
                </g>
                <g id="Group_134" data-name="Group 134" transform="translate(48.54 20.132)">
                    <path id="Path_500" data-name="Path 500" d="M62.705-32.008a6.008,6.008,0,0,0-5.673,4.031H68.379A6.008,6.008,0,0,0,62.705-32.008Z" transform="translate(-57.032 32.008)" fill="none" />
                </g>
                <g id="Group_135" data-name="Group 135" transform="translate(32.052 74.965)">
                    <rect id="Rectangle_48" data-name="Rectangle 48" width="28.205" height="4.029" transform="translate(0 0)" fill="none" />
                </g>
                <g id="Group_136" data-name="Group 136">
                    <path id="Path_501" data-name="Path 501" d="M-206.271-105.656v-.826h34.431a2.015,2.015,0,0,0,2.015-2.015,2.015,2.015,0,0,0-2.015-2.015h-34.431v-4.029h85.16v4.029h-42.671A2.015,2.015,0,0,0-165.8-108.5a2.015,2.015,0,0,0,2.015,2.015h42.671v.826c-.015,13.488-11.734,33.842-26.19,33.859h-32.6a2.015,2.015,0,0,0-2.015,2.015v6.044a4.029,4.029,0,0,0,4.029,4.029h28.2a4.029,4.029,0,0,0,4.029-4.029V-67.87c15.854-1.066,28.181-22.864,28.2-37.786v-8.884a4.029,4.029,0,0,0-2.5-3.725,20.1,20.1,0,0,0-9.893-21.969,20.225,20.225,0,0,0-15.631-1.619,20.042,20.042,0,0,0-5.695,2.75,19.987,19.987,0,0,0-4.174,4.37,17.879,17.879,0,0,0-2.5.205,23.427,23.427,0,0,0-2.793.562,17.316,17.316,0,0,0-9.185,5.755,17.736,17.736,0,0,0-2.106,3.243,18.432,18.432,0,0,0-1.924,6.4H-206.09a3.878,3.878,0,0,0-3.847,4.029v8.884m48.54-12.914a6.008,6.008,0,0,1,5.673-4.031,6.008,6.008,0,0,1,5.673,4.031Zm15.545,0a10.073,10.073,0,0,0-9.872-8.069,10.073,10.073,0,0,0-9.872,8.069h-4.074a14.2,14.2,0,0,1,6.894-10.184,14.044,14.044,0,0,1,7.051-1.9,14.1,14.1,0,0,1,13.941,12.088Zm13.208,0h-5.067a18.075,18.075,0,0,0-5.587-11.153,8.022,8.022,0,0,1,9.529,1.562A8.022,8.022,0,0,1-132.644-118.569Zm8.639,0h-4.211a12.037,12.037,0,0,0-4.163-13.755,12.037,12.037,0,0,0-14.372.036,18.006,18.006,0,0,0-4.174-1.733,16.044,16.044,0,0,1,11.318-4.694A16.135,16.135,0,0,1-123.49-122.6,15.8,15.8,0,0,1-124.005-118.569ZM-149.68-63.738h-28.2v-4.029h28.2Z" transform="translate(209.937 142.732)" fill="#ac0e25" />
                </g>
            </g>
        </g>
    </g>
</svg>
  