<svg xmlns="http://www.w3.org/2000/svg" xmlns:xlink="http://www.w3.org/1999/xlink" width="415" height="900" viewBox="0 0 415 900">
  <defs>
    <clipPath id="clip-path">
      <rect id="Rectangle_11497" data-name="Rectangle 11497" width="415" height="900" fill="#fff" stroke="#707070" stroke-width="1"/>
    </clipPath>
    <linearGradient id="linear-gradient" x1="0.5" x2="0.5" y2="0.871" gradientUnits="objectBoundingBox">
      <stop offset="0" stop-color="#93202e"/>
      <stop offset="1" stop-color="#bd2130"/>
    </linearGradient>
    <clipPath id="clip-path-2">
      <path id="Path_59047" data-name="Path 59047" d="M0,0H415V270.652H0Z" fill="#bd2130"/>
    </clipPath>
  </defs>
  <g id="Mask_Group_12474" data-name="Mask Group 12474" clip-path="url(#clip-path)">
    <g id="Component_4_1" data-name="Component 4 – 1" transform="translate(-333 -212)">
      <ellipse id="Background" cx="541" cy="540.5" rx="541" ry="540.5" fill="url(#linear-gradient)" style="mix-blend-mode: multiply;isolation: isolate"/>
      <g id="Group_17541" data-name="Group 17541" transform="translate(333 841)">
        <g id="Group_14568" data-name="Group 14568">
          <g id="Mask_Group_12473" data-name="Mask Group 12473" opacity="0.05" clip-path="url(#clip-path-2)">
            <g id="Group_14564" data-name="Group 14564" transform="translate(-10.513 15.333)">
              <g id="Group_14543" data-name="Group 14543" transform="translate(0 0)">
                <g id="Group_14542" data-name="Group 14542">
                  <g id="Group_14524" data-name="Group 14524" transform="translate(165.373 254.388)">
                    <path id="Path_59011" data-name="Path 59011" d="M292.389,838.636l-1.089-3.169c5.339-2.848,10.859-5.792,17.934-5.792s12.6,2.945,17.935,5.792l-1.09,3.168c-5.316-2.836-10.337-5.514-16.845-5.514S297.705,835.8,292.389,838.636Z" transform="translate(-291.3 -829.675)" fill="#e4dbcd"/>
                  </g>
                  <g id="Group_14525" data-name="Group 14525" transform="translate(95.812 254.388)">
                    <path id="Path_59012" data-name="Path 59012" d="M166.677,838.636l-1.089-3.169c5.339-2.848,10.859-5.792,17.935-5.792s12.6,2.945,17.934,5.792l-1.089,3.169c-5.316-2.836-10.337-5.514-16.845-5.514S171.993,835.8,166.677,838.636Z" transform="translate(-165.588 -829.675)" fill="#e4dbcd"/>
                  </g>
                  <g id="Group_14526" data-name="Group 14526" transform="translate(26.252 254.388)">
                    <path id="Path_59013" data-name="Path 59013" d="M74.657,838.636c-5.316-2.836-10.338-5.514-16.846-5.514s-11.529,2.678-16.845,5.514l-1.089-3.168c5.339-2.848,10.859-5.792,17.934-5.792s12.6,2.945,17.935,5.792Z" transform="translate(-39.877 -829.675)" fill="#e4dbcd"/>
                  </g>
                  <g id="Group_14527" data-name="Group 14527" transform="translate(0 237.429)">
                    <path id="Path_59014" data-name="Path 59014" d="M210.52,819.824c-7.075,0-12.6-2.944-17.935-5.792-5.316-2.835-10.338-5.514-16.846-5.514s-11.529,2.678-16.845,5.514c-5.339,2.848-10.86,5.792-17.935,5.792s-12.6-2.944-17.935-5.792c-5.316-2.836-10.338-5.514-16.845-5.514s-11.529,2.679-16.846,5.514c-5.339,2.848-10.86,5.792-17.935,5.792s-12.6-2.944-17.935-5.792c-5.317-2.836-10.338-5.514-16.846-5.514S25.09,811.2,19.774,814.032c-5.339,2.848-10.86,5.792-17.935,5.792a27.059,27.059,0,0,1-9.406-1.748l.779-3.307a24.825,24.825,0,0,0,8.628,1.609c6.508,0,11.529-2.679,16.846-5.514,5.339-2.848,10.86-5.792,17.935-5.792s12.6,2.945,17.935,5.792c5.316,2.835,10.338,5.514,16.846,5.514s11.529-2.678,16.846-5.514c5.339-2.848,10.86-5.792,17.935-5.792s12.6,2.945,17.935,5.792c5.316,2.835,10.338,5.514,16.846,5.514s11.529-2.679,16.846-5.514c5.339-2.848,10.859-5.792,17.934-5.792s12.6,2.945,17.935,5.792c5.316,2.835,10.338,5.514,16.845,5.514a24.823,24.823,0,0,0,8.628-1.609l.779,3.307A27.055,27.055,0,0,1,210.52,819.824Z" transform="translate(7.567 -805.072)" fill="#e4dbcd"/>
                  </g>
                  <g id="Group_14528" data-name="Group 14528" transform="translate(0 220.469)">
                    <path id="Path_59015" data-name="Path 59015" d="M210.52,795.22c-7.075,0-12.6-2.944-17.935-5.791-5.316-2.836-10.338-5.515-16.846-5.515s-11.529,2.679-16.845,5.515c-5.339,2.847-10.86,5.791-17.935,5.791s-12.6-2.944-17.935-5.791c-5.316-2.836-10.338-5.515-16.845-5.515s-11.529,2.679-16.846,5.515C84,792.276,78.475,795.22,71.4,795.22s-12.6-2.944-17.935-5.791c-5.317-2.836-10.338-5.515-16.846-5.515s-11.529,2.679-16.846,5.515c-5.339,2.847-10.86,5.791-17.935,5.791a27.063,27.063,0,0,1-9.406-1.747l.778-3.307a24.836,24.836,0,0,0,8.628,1.608c6.507,0,11.529-2.678,16.846-5.514,5.339-2.848,10.86-5.792,17.935-5.792s12.6,2.945,17.935,5.792c5.316,2.836,10.338,5.514,16.846,5.514s11.529-2.678,16.846-5.514c5.339-2.848,10.86-5.792,17.935-5.792s12.6,2.945,17.935,5.792c5.316,2.836,10.338,5.514,16.846,5.514s11.529-2.678,16.846-5.514c5.339-2.848,10.859-5.792,17.934-5.792s12.6,2.945,17.935,5.792c5.316,2.836,10.338,5.514,16.845,5.514a24.836,24.836,0,0,0,8.628-1.608l.778,3.307A27.061,27.061,0,0,1,210.52,795.22Z" transform="translate(7.567 -780.468)" fill="#e4dbcd"/>
                  </g>
                  <g id="Group_14529" data-name="Group 14529" transform="translate(0 203.51)">
                    <path id="Path_59016" data-name="Path 59016" d="M210.52,770.617c-7.075,0-12.6-2.945-17.935-5.792-5.316-2.836-10.338-5.514-16.846-5.514s-11.529,2.679-16.845,5.514c-5.339,2.847-10.86,5.792-17.935,5.792s-12.6-2.945-17.935-5.792c-5.316-2.836-10.338-5.514-16.845-5.514s-11.529,2.679-16.846,5.514c-5.339,2.847-10.86,5.792-17.935,5.792s-12.6-2.945-17.935-5.792c-5.317-2.836-10.338-5.514-16.846-5.514s-11.529,2.679-16.846,5.514c-5.339,2.847-10.86,5.792-17.935,5.792a27.044,27.044,0,0,1-9.406-1.748l.779-3.307a24.809,24.809,0,0,0,8.628,1.609c6.507,0,11.529-2.678,16.846-5.514,5.339-2.847,10.86-5.792,17.935-5.792s12.6,2.945,17.935,5.792c5.316,2.836,10.338,5.514,16.846,5.514s11.529-2.678,16.846-5.514c5.339-2.847,10.86-5.792,17.935-5.792s12.6,2.945,17.935,5.792c5.316,2.836,10.338,5.514,16.846,5.514s11.529-2.678,16.846-5.514c5.339-2.847,10.859-5.792,17.934-5.792s12.6,2.945,17.935,5.792c5.316,2.836,10.338,5.514,16.845,5.514a24.814,24.814,0,0,0,8.628-1.609l.778,3.307A27.042,27.042,0,0,1,210.52,770.617Z" transform="translate(7.567 -755.865)" fill="#e4dbcd"/>
                  </g>
                  <g id="Group_14530" data-name="Group 14530" transform="translate(0 186.551)">
                    <path id="Path_59017" data-name="Path 59017" d="M210.52,746.014c-7.075,0-12.6-2.945-17.935-5.792-5.316-2.836-10.338-5.514-16.846-5.514s-11.529,2.678-16.845,5.514c-5.339,2.848-10.86,5.792-17.935,5.792s-12.6-2.945-17.935-5.792c-5.316-2.836-10.338-5.514-16.845-5.514s-11.529,2.678-16.846,5.514C84,743.07,78.475,746.014,71.4,746.014s-12.6-2.945-17.935-5.792c-5.317-2.836-10.338-5.514-16.846-5.514s-11.529,2.678-16.846,5.514c-5.339,2.848-10.86,5.792-17.935,5.792a27.058,27.058,0,0,1-9.406-1.748l.779-3.307a24.827,24.827,0,0,0,8.628,1.609c6.507,0,11.529-2.679,16.846-5.514,5.339-2.847,10.86-5.792,17.935-5.792s12.6,2.945,17.935,5.792c5.316,2.836,10.338,5.514,16.846,5.514s11.529-2.679,16.846-5.514c5.339-2.847,10.86-5.792,17.935-5.792s12.6,2.945,17.935,5.792c5.316,2.836,10.338,5.514,16.846,5.514s11.529-2.679,16.846-5.514c5.339-2.847,10.859-5.792,17.934-5.792s12.6,2.945,17.935,5.792c5.316,2.836,10.338,5.514,16.845,5.514a24.826,24.826,0,0,0,8.628-1.609l.779,3.307A27.054,27.054,0,0,1,210.52,746.014Z" transform="translate(7.567 -731.262)" fill="#e4dbcd"/>
                  </g>
                  <g id="Group_14531" data-name="Group 14531" transform="translate(0 169.592)">
                    <path id="Path_59018" data-name="Path 59018" d="M210.52,721.411c-7.075,0-12.6-2.945-17.935-5.792-5.316-2.835-10.338-5.514-16.846-5.514s-11.529,2.678-16.845,5.514c-5.339,2.847-10.86,5.792-17.935,5.792s-12.6-2.945-17.935-5.792c-5.316-2.836-10.338-5.514-16.845-5.514s-11.529,2.679-16.846,5.514c-5.339,2.847-10.86,5.792-17.935,5.792s-12.6-2.945-17.935-5.792c-5.317-2.836-10.338-5.514-16.846-5.514s-11.529,2.679-16.846,5.514c-5.339,2.847-10.86,5.792-17.935,5.792a27.038,27.038,0,0,1-9.406-1.749l.779-3.307a24.813,24.813,0,0,0,8.628,1.609c6.508,0,11.529-2.679,16.846-5.514,5.339-2.847,10.86-5.792,17.935-5.792s12.6,2.945,17.935,5.792c5.316,2.835,10.338,5.514,16.846,5.514s11.529-2.678,16.846-5.514c5.339-2.847,10.86-5.792,17.935-5.792s12.6,2.945,17.935,5.792c5.316,2.835,10.338,5.514,16.846,5.514s11.529-2.679,16.846-5.514c5.339-2.847,10.859-5.792,17.934-5.792s12.6,2.945,17.935,5.792c5.316,2.835,10.338,5.514,16.845,5.514a24.818,24.818,0,0,0,8.628-1.609l.779,3.307A27.043,27.043,0,0,1,210.52,721.411Z" transform="translate(7.567 -706.659)" fill="#e4dbcd"/>
                  </g>
                  <g id="Group_14532" data-name="Group 14532" transform="translate(0 152.633)">
                    <path id="Path_59019" data-name="Path 59019" d="M210.52,696.808c-7.075,0-12.6-2.945-17.935-5.792-5.316-2.835-10.338-5.514-16.846-5.514s-11.529,2.678-16.845,5.514c-5.339,2.847-10.86,5.792-17.935,5.792s-12.6-2.945-17.935-5.792c-5.316-2.836-10.338-5.514-16.845-5.514s-11.529,2.679-16.846,5.514c-5.339,2.847-10.86,5.792-17.935,5.792s-12.6-2.945-17.935-5.792c-5.317-2.836-10.338-5.514-16.846-5.514s-11.529,2.679-16.846,5.514c-5.339,2.847-10.86,5.792-17.935,5.792a27.05,27.05,0,0,1-9.406-1.749l.779-3.307a24.82,24.82,0,0,0,8.628,1.61c6.508,0,11.529-2.679,16.846-5.514,5.339-2.847,10.86-5.792,17.935-5.792s12.6,2.945,17.935,5.792c5.316,2.835,10.338,5.514,16.846,5.514s11.529-2.678,16.846-5.514c5.339-2.847,10.86-5.792,17.935-5.792s12.6,2.945,17.935,5.792c5.316,2.835,10.338,5.514,16.846,5.514s11.529-2.679,16.846-5.514c5.339-2.847,10.859-5.792,17.934-5.792s12.6,2.945,17.935,5.792c5.316,2.835,10.338,5.514,16.845,5.514a24.825,24.825,0,0,0,8.628-1.61l.778,3.307A27.05,27.05,0,0,1,210.52,696.808Z" transform="translate(7.567 -682.056)" fill="#e4dbcd"/>
                  </g>
                  <g id="Group_14533" data-name="Group 14533" transform="translate(0 135.674)">
                    <path id="Path_59020" data-name="Path 59020" d="M210.52,672.2c-7.075,0-12.6-2.944-17.935-5.792-5.316-2.836-10.338-5.514-16.846-5.514s-11.529,2.678-16.845,5.514c-5.339,2.847-10.86,5.792-17.935,5.792s-12.6-2.944-17.935-5.792c-5.316-2.836-10.338-5.514-16.845-5.514s-11.529,2.678-16.846,5.514C84,669.261,78.475,672.2,71.4,672.2s-12.6-2.944-17.935-5.792c-5.317-2.836-10.338-5.514-16.846-5.514s-11.529,2.678-16.846,5.514c-5.339,2.847-10.86,5.792-17.935,5.792a27.047,27.047,0,0,1-9.406-1.748l.779-3.307a24.817,24.817,0,0,0,8.628,1.609c6.508,0,11.529-2.678,16.846-5.514,5.339-2.847,10.86-5.792,17.935-5.792s12.6,2.944,17.935,5.792c5.316,2.836,10.338,5.514,16.846,5.514s11.529-2.678,16.846-5.514c5.339-2.847,10.86-5.792,17.935-5.792s12.6,2.944,17.935,5.792c5.316,2.836,10.338,5.514,16.846,5.514s11.529-2.678,16.846-5.514c5.339-2.847,10.859-5.792,17.934-5.792s12.6,2.944,17.935,5.792c5.316,2.836,10.338,5.514,16.845,5.514a24.823,24.823,0,0,0,8.628-1.609l.778,3.307A27.048,27.048,0,0,1,210.52,672.2Z" transform="translate(7.567 -657.453)" fill="#e4dbcd"/>
                  </g>
                  <g id="Group_14534" data-name="Group 14534" transform="translate(0 118.714)">
                    <path id="Path_59021" data-name="Path 59021" d="M210.52,647.6c-7.075,0-12.6-2.945-17.935-5.792-5.316-2.835-10.338-5.514-16.846-5.514s-11.529,2.678-16.845,5.514c-5.339,2.848-10.86,5.792-17.935,5.792s-12.6-2.945-17.935-5.792c-5.316-2.836-10.338-5.514-16.845-5.514s-11.529,2.679-16.846,5.514C84,644.657,78.475,647.6,71.4,647.6s-12.6-2.945-17.935-5.792c-5.317-2.836-10.338-5.514-16.846-5.514s-11.529,2.679-16.846,5.514c-5.339,2.848-10.86,5.792-17.935,5.792a27.056,27.056,0,0,1-9.406-1.748l.779-3.307a24.807,24.807,0,0,0,8.628,1.609c6.508,0,11.529-2.679,16.846-5.514,5.339-2.848,10.86-5.792,17.935-5.792s12.6,2.944,17.935,5.792c5.316,2.835,10.338,5.514,16.846,5.514s11.529-2.678,16.846-5.514c5.339-2.848,10.86-5.792,17.935-5.792s12.6,2.944,17.935,5.792c5.316,2.835,10.338,5.514,16.846,5.514s11.529-2.679,16.846-5.514c5.339-2.848,10.859-5.792,17.934-5.792s12.6,2.944,17.935,5.792c5.316,2.835,10.338,5.514,16.845,5.514a24.812,24.812,0,0,0,8.628-1.609l.778,3.307A27.056,27.056,0,0,1,210.52,647.6Z" transform="translate(7.567 -632.849)" fill="#e4dbcd"/>
                  </g>
                  <g id="Group_14535" data-name="Group 14535" transform="translate(0 101.755)">
                    <path id="Path_59022" data-name="Path 59022" d="M210.52,623c-7.075,0-12.6-2.945-17.935-5.792-5.316-2.835-10.338-5.514-16.846-5.514s-11.529,2.678-16.845,5.514c-5.339,2.848-10.86,5.792-17.935,5.792s-12.6-2.945-17.935-5.792c-5.316-2.836-10.338-5.514-16.845-5.514s-11.529,2.679-16.846,5.514C84,620.054,78.475,623,71.4,623s-12.6-2.945-17.935-5.792c-5.317-2.836-10.338-5.514-16.846-5.514s-11.529,2.679-16.846,5.514C14.435,620.054,8.914,623,1.839,623a27.06,27.06,0,0,1-9.406-1.748l.779-3.307a24.829,24.829,0,0,0,8.628,1.609c6.508,0,11.529-2.679,16.846-5.514,5.339-2.848,10.86-5.792,17.935-5.792s12.6,2.944,17.935,5.792c5.316,2.835,10.338,5.514,16.846,5.514s11.529-2.678,16.846-5.514c5.339-2.848,10.86-5.792,17.935-5.792s12.6,2.944,17.935,5.792c5.316,2.835,10.338,5.514,16.846,5.514s11.529-2.679,16.846-5.514c5.339-2.848,10.859-5.792,17.934-5.792s12.6,2.944,17.935,5.792c5.316,2.835,10.338,5.514,16.845,5.514a24.834,24.834,0,0,0,8.628-1.609l.778,3.307A27.057,27.057,0,0,1,210.52,623Z" transform="translate(7.567 -608.246)" fill="#e4dbcd"/>
                  </g>
                  <g id="Group_14536" data-name="Group 14536" transform="translate(0 84.796)">
                    <path id="Path_59023" data-name="Path 59023" d="M210.52,598.394c-7.075,0-12.6-2.944-17.935-5.792-5.316-2.835-10.338-5.514-16.846-5.514s-11.529,2.679-16.845,5.514c-5.339,2.848-10.86,5.792-17.935,5.792s-12.6-2.944-17.935-5.792c-5.316-2.835-10.338-5.514-16.845-5.514s-11.529,2.679-16.846,5.514C84,595.45,78.475,598.394,71.4,598.394S58.8,595.45,53.465,592.6c-5.317-2.835-10.338-5.514-16.846-5.514S25.09,589.767,19.774,592.6c-5.339,2.848-10.86,5.792-17.935,5.792a27.054,27.054,0,0,1-9.406-1.747l.779-3.307a24.823,24.823,0,0,0,8.628,1.608c6.508,0,11.529-2.678,16.846-5.514,5.339-2.848,10.86-5.792,17.935-5.792s12.6,2.945,17.935,5.792c5.316,2.836,10.338,5.514,16.846,5.514s11.529-2.678,16.846-5.514c5.339-2.848,10.86-5.792,17.935-5.792s12.6,2.945,17.935,5.792c5.316,2.836,10.338,5.514,16.846,5.514s11.529-2.678,16.846-5.514c5.339-2.848,10.859-5.792,17.934-5.792s12.6,2.945,17.935,5.792c5.316,2.836,10.338,5.514,16.845,5.514a24.828,24.828,0,0,0,8.628-1.608l.778,3.307A27.054,27.054,0,0,1,210.52,598.394Z" transform="translate(7.567 -583.642)" fill="#e4dbcd"/>
                  </g>
                  <g id="Group_14537" data-name="Group 14537" transform="translate(0 67.837)">
                    <path id="Path_59024" data-name="Path 59024" d="M210.52,573.791c-7.075,0-12.6-2.945-17.935-5.792-5.316-2.835-10.338-5.514-16.846-5.514S164.211,565.164,158.9,568c-5.339,2.848-10.86,5.792-17.935,5.792s-12.6-2.945-17.935-5.792c-5.316-2.835-10.338-5.514-16.845-5.514S94.651,565.164,89.334,568c-5.339,2.848-10.86,5.792-17.935,5.792S58.8,570.847,53.465,568c-5.317-2.835-10.338-5.514-16.846-5.514S25.09,565.164,19.774,568c-5.339,2.848-10.86,5.792-17.935,5.792a27.044,27.044,0,0,1-9.406-1.748l.779-3.307a24.812,24.812,0,0,0,8.628,1.609c6.507,0,11.529-2.678,16.846-5.514,5.339-2.848,10.86-5.792,17.935-5.792s12.6,2.945,17.935,5.792c5.316,2.836,10.338,5.514,16.846,5.514s11.529-2.678,16.846-5.514c5.339-2.848,10.86-5.792,17.935-5.792s12.6,2.945,17.935,5.792c5.316,2.836,10.338,5.514,16.846,5.514s11.529-2.678,16.846-5.514c5.339-2.848,10.859-5.792,17.934-5.792s12.6,2.945,17.935,5.792c5.316,2.836,10.338,5.514,16.845,5.514a24.81,24.81,0,0,0,8.628-1.609l.779,3.307A27.04,27.04,0,0,1,210.52,573.791Z" transform="translate(7.567 -559.039)" fill="#e4dbcd"/>
                  </g>
                  <g id="Group_14538" data-name="Group 14538" transform="translate(0 50.878)">
                    <path id="Path_59025" data-name="Path 59025" d="M210.52,549.189c-7.075,0-12.6-2.945-17.935-5.792-5.316-2.835-10.338-5.514-16.846-5.514s-11.529,2.679-16.845,5.514c-5.339,2.847-10.86,5.792-17.935,5.792s-12.6-2.945-17.935-5.792c-5.316-2.835-10.338-5.514-16.845-5.514s-11.529,2.679-16.846,5.514c-5.339,2.847-10.86,5.792-17.935,5.792s-12.6-2.945-17.935-5.792c-5.317-2.835-10.338-5.514-16.846-5.514S25.09,540.561,19.774,543.4c-5.339,2.847-10.86,5.792-17.935,5.792a27.064,27.064,0,0,1-9.406-1.748l.778-3.307a24.822,24.822,0,0,0,8.628,1.609c6.508,0,11.529-2.678,16.846-5.514,5.339-2.847,10.86-5.792,17.935-5.792s12.6,2.945,17.935,5.792c5.316,2.836,10.338,5.514,16.846,5.514s11.529-2.678,16.846-5.514c5.339-2.847,10.86-5.792,17.935-5.792s12.6,2.945,17.934,5.792c5.317,2.836,10.338,5.514,16.846,5.514s11.529-2.678,16.846-5.514c5.339-2.847,10.859-5.792,17.934-5.792s12.6,2.945,17.935,5.792c5.316,2.836,10.338,5.514,16.845,5.514a24.822,24.822,0,0,0,8.628-1.609l.778,3.307A27.062,27.062,0,0,1,210.52,549.189Z" transform="translate(7.567 -534.436)" fill="#e4dbcd"/>
                  </g>
                  <g id="Group_14539" data-name="Group 14539" transform="translate(0 33.919)">
                    <path id="Path_59026" data-name="Path 59026" d="M210.52,524.585c-7.075,0-12.6-2.945-17.935-5.792-5.316-2.835-10.338-5.514-16.846-5.514s-11.529,2.679-16.845,5.514c-5.339,2.848-10.86,5.792-17.935,5.792s-12.6-2.945-17.935-5.792c-5.316-2.835-10.338-5.514-16.845-5.514s-11.529,2.679-16.846,5.514c-5.339,2.848-10.86,5.792-17.935,5.792s-12.6-2.945-17.935-5.792c-5.317-2.835-10.338-5.514-16.846-5.514s-11.529,2.679-16.846,5.514c-5.339,2.848-10.86,5.792-17.935,5.792a27.047,27.047,0,0,1-9.406-1.748l.779-3.307a24.819,24.819,0,0,0,8.628,1.609c6.507,0,11.529-2.679,16.846-5.514,5.339-2.848,10.86-5.792,17.935-5.792s12.6,2.945,17.935,5.792c5.316,2.835,10.338,5.514,16.846,5.514s11.529-2.679,16.846-5.514c5.339-2.848,10.86-5.792,17.935-5.792s12.6,2.945,17.935,5.792c5.316,2.835,10.338,5.514,16.846,5.514s11.529-2.679,16.846-5.514c5.339-2.848,10.859-5.792,17.934-5.792s12.6,2.945,17.935,5.792c5.316,2.835,10.338,5.514,16.845,5.514a24.824,24.824,0,0,0,8.628-1.609l.778,3.307A27.047,27.047,0,0,1,210.52,524.585Z" transform="translate(7.567 -509.833)" fill="#e4dbcd"/>
                  </g>
                  <g id="Group_14540" data-name="Group 14540" transform="translate(0 16.96)">
                    <path id="Path_59027" data-name="Path 59027" d="M210.52,499.983c-7.075,0-12.6-2.945-17.935-5.792-5.316-2.835-10.338-5.514-16.846-5.514s-11.529,2.679-16.845,5.514c-5.339,2.848-10.86,5.792-17.935,5.792s-12.6-2.945-17.935-5.792c-5.316-2.835-10.338-5.514-16.845-5.514s-11.529,2.679-16.846,5.514c-5.339,2.848-10.86,5.792-17.935,5.792s-12.6-2.945-17.935-5.792c-5.317-2.835-10.338-5.514-16.846-5.514s-11.529,2.679-16.846,5.514c-5.339,2.848-10.86,5.792-17.935,5.792a27.063,27.063,0,0,1-9.406-1.749l.778-3.307a24.823,24.823,0,0,0,8.628,1.609c6.507,0,11.529-2.679,16.846-5.514,5.339-2.848,10.86-5.792,17.935-5.792s12.6,2.945,17.935,5.792c5.316,2.835,10.338,5.514,16.846,5.514s11.529-2.679,16.846-5.514c5.339-2.848,10.86-5.792,17.935-5.792s12.6,2.945,17.935,5.792c5.316,2.835,10.338,5.514,16.846,5.514s11.529-2.679,16.846-5.514c5.339-2.848,10.859-5.792,17.934-5.792s12.6,2.945,17.935,5.792c5.316,2.835,10.338,5.514,16.845,5.514a24.807,24.807,0,0,0,8.628-1.609l.779,3.307A27.05,27.05,0,0,1,210.52,499.983Z" transform="translate(7.567 -485.23)" fill="#e4dbcd"/>
                  </g>
                  <g id="Group_14541" data-name="Group 14541">
                    <path id="Path_59028" data-name="Path 59028" d="M210.52,475.378c-7.075,0-12.6-2.944-17.935-5.792-5.316-2.835-10.338-5.514-16.846-5.514s-11.529,2.679-16.845,5.514c-5.339,2.848-10.86,5.792-17.935,5.792s-12.6-2.944-17.935-5.792c-5.316-2.835-10.338-5.514-16.845-5.514s-11.529,2.679-16.846,5.514c-5.339,2.848-10.86,5.792-17.935,5.792s-12.6-2.944-17.935-5.792c-5.317-2.835-10.338-5.514-16.846-5.514s-11.529,2.679-16.846,5.514c-5.339,2.848-10.86,5.792-17.935,5.792a27.04,27.04,0,0,1-9.406-1.748l.779-3.307a24.811,24.811,0,0,0,8.628,1.609c6.508,0,11.529-2.679,16.846-5.514,5.339-2.848,10.86-5.792,17.935-5.792s12.6,2.945,17.935,5.792c5.316,2.835,10.338,5.514,16.846,5.514s11.529-2.678,16.846-5.514c5.339-2.848,10.86-5.792,17.935-5.792s12.6,2.945,17.935,5.792c5.316,2.835,10.338,5.514,16.846,5.514s11.529-2.679,16.846-5.514c5.339-2.848,10.859-5.792,17.934-5.792s12.6,2.945,17.935,5.792c5.316,2.835,10.338,5.514,16.845,5.514a24.817,24.817,0,0,0,8.628-1.609l.779,3.307A27.045,27.045,0,0,1,210.52,475.378Z" transform="translate(7.567 -460.626)" fill="#e4dbcd"/>
                  </g>
                </g>
              </g>
              <g id="Group_14563" data-name="Group 14563" transform="translate(208.702 0)">
                <g id="Group_14562" data-name="Group 14562">
                  <g id="Group_14544" data-name="Group 14544" transform="translate(165.373 254.388)">
                    <path id="Path_59029" data-name="Path 59029" d="M669.561,838.636l-1.089-3.169c5.339-2.848,10.859-5.792,17.934-5.792s12.6,2.945,17.935,5.792l-1.089,3.168c-5.316-2.836-10.337-5.514-16.845-5.514S674.877,835.8,669.561,838.636Z" transform="translate(-668.472 -829.675)" fill="#e4dbcd"/>
                  </g>
                  <g id="Group_14545" data-name="Group 14545" transform="translate(95.812 254.388)">
                    <path id="Path_59030" data-name="Path 59030" d="M543.849,838.636l-1.089-3.169c5.339-2.848,10.859-5.792,17.935-5.792s12.6,2.945,17.934,5.792l-1.089,3.169c-5.316-2.836-10.337-5.514-16.845-5.514S549.165,835.8,543.849,838.636Z" transform="translate(-542.76 -829.675)" fill="#e4dbcd"/>
                  </g>
                  <g id="Group_14546" data-name="Group 14546" transform="translate(26.252 254.388)">
                    <path id="Path_59031" data-name="Path 59031" d="M451.829,838.636c-5.316-2.836-10.338-5.514-16.846-5.514s-11.529,2.678-16.845,5.514l-1.089-3.168c5.339-2.848,10.86-5.792,17.934-5.792s12.6,2.945,17.935,5.792Z" transform="translate(-417.049 -829.675)" fill="#e4dbcd"/>
                  </g>
                  <g id="Group_14547" data-name="Group 14547" transform="translate(0 237.429)">
                    <path id="Path_59032" data-name="Path 59032" d="M587.692,819.824c-7.075,0-12.6-2.944-17.935-5.792-5.316-2.835-10.338-5.514-16.846-5.514s-11.529,2.678-16.845,5.514c-5.339,2.848-10.86,5.792-17.935,5.792s-12.6-2.944-17.935-5.792c-5.316-2.836-10.338-5.514-16.845-5.514s-11.529,2.679-16.846,5.514c-5.339,2.848-10.86,5.792-17.935,5.792s-12.6-2.944-17.935-5.792c-5.316-2.836-10.338-5.514-16.846-5.514s-11.529,2.679-16.846,5.514c-5.339,2.848-10.86,5.792-17.935,5.792a27.059,27.059,0,0,1-9.406-1.748l.779-3.307a24.825,24.825,0,0,0,8.628,1.609c6.508,0,11.529-2.679,16.846-5.514,5.339-2.848,10.86-5.792,17.935-5.792s12.6,2.945,17.935,5.792c5.316,2.835,10.338,5.514,16.846,5.514s11.529-2.678,16.846-5.514c5.339-2.848,10.86-5.792,17.935-5.792s12.6,2.945,17.935,5.792c5.316,2.835,10.338,5.514,16.846,5.514s11.529-2.679,16.846-5.514c5.339-2.848,10.859-5.792,17.934-5.792s12.6,2.945,17.935,5.792c5.316,2.835,10.338,5.514,16.845,5.514a24.823,24.823,0,0,0,8.628-1.609l.779,3.307A27.053,27.053,0,0,1,587.692,819.824Z" transform="translate(-369.605 -805.072)" fill="#e4dbcd"/>
                  </g>
                  <g id="Group_14548" data-name="Group 14548" transform="translate(0 220.469)">
                    <path id="Path_59033" data-name="Path 59033" d="M587.692,795.22c-7.075,0-12.6-2.944-17.935-5.791-5.316-2.836-10.338-5.515-16.846-5.515s-11.529,2.679-16.845,5.515c-5.339,2.847-10.86,5.791-17.935,5.791s-12.6-2.944-17.935-5.791c-5.316-2.836-10.338-5.515-16.845-5.515s-11.529,2.679-16.846,5.515c-5.339,2.847-10.86,5.791-17.935,5.791s-12.6-2.944-17.935-5.791c-5.316-2.836-10.338-5.515-16.846-5.515s-11.529,2.679-16.846,5.515c-5.339,2.847-10.86,5.791-17.935,5.791a27.062,27.062,0,0,1-9.406-1.747l.778-3.307a24.836,24.836,0,0,0,8.628,1.608c6.507,0,11.529-2.678,16.846-5.514,5.339-2.848,10.86-5.792,17.935-5.792s12.6,2.945,17.935,5.792c5.316,2.836,10.338,5.514,16.846,5.514s11.529-2.678,16.846-5.514c5.339-2.848,10.86-5.792,17.935-5.792s12.6,2.945,17.935,5.792c5.316,2.836,10.338,5.514,16.846,5.514s11.529-2.678,16.846-5.514c5.339-2.848,10.859-5.792,17.934-5.792s12.6,2.945,17.935,5.792c5.316,2.836,10.338,5.514,16.845,5.514a24.836,24.836,0,0,0,8.628-1.608l.778,3.307A27.06,27.06,0,0,1,587.692,795.22Z" transform="translate(-369.605 -780.468)" fill="#e4dbcd"/>
                  </g>
                  <g id="Group_14549" data-name="Group 14549" transform="translate(0 203.51)">
                    <path id="Path_59034" data-name="Path 59034" d="M587.692,770.617c-7.075,0-12.6-2.945-17.935-5.792-5.316-2.836-10.338-5.514-16.846-5.514s-11.529,2.679-16.845,5.514c-5.339,2.847-10.86,5.792-17.935,5.792s-12.6-2.945-17.935-5.792c-5.316-2.836-10.338-5.514-16.845-5.514s-11.529,2.679-16.846,5.514c-5.339,2.847-10.86,5.792-17.935,5.792s-12.6-2.945-17.935-5.792c-5.316-2.836-10.338-5.514-16.846-5.514s-11.529,2.679-16.846,5.514c-5.339,2.847-10.86,5.792-17.935,5.792a27.044,27.044,0,0,1-9.406-1.748l.779-3.307a24.809,24.809,0,0,0,8.628,1.609c6.507,0,11.529-2.678,16.846-5.514,5.339-2.847,10.86-5.792,17.935-5.792s12.6,2.945,17.935,5.792c5.316,2.836,10.338,5.514,16.846,5.514s11.529-2.678,16.846-5.514c5.339-2.847,10.86-5.792,17.935-5.792s12.6,2.945,17.935,5.792c5.316,2.836,10.338,5.514,16.846,5.514s11.529-2.678,16.846-5.514c5.339-2.847,10.859-5.792,17.934-5.792s12.6,2.945,17.935,5.792c5.316,2.836,10.338,5.514,16.845,5.514a24.815,24.815,0,0,0,8.628-1.609l.778,3.307A27.041,27.041,0,0,1,587.692,770.617Z" transform="translate(-369.605 -755.865)" fill="#e4dbcd"/>
                  </g>
                  <g id="Group_14550" data-name="Group 14550" transform="translate(0 186.551)">
                    <path id="Path_59035" data-name="Path 59035" d="M587.692,746.014c-7.075,0-12.6-2.945-17.935-5.792-5.316-2.836-10.338-5.514-16.846-5.514s-11.529,2.678-16.845,5.514c-5.339,2.848-10.86,5.792-17.935,5.792s-12.6-2.945-17.935-5.792c-5.316-2.836-10.338-5.514-16.845-5.514s-11.529,2.678-16.846,5.514c-5.339,2.848-10.86,5.792-17.935,5.792s-12.6-2.945-17.935-5.792c-5.316-2.836-10.338-5.514-16.846-5.514s-11.529,2.678-16.846,5.514c-5.339,2.848-10.86,5.792-17.935,5.792a27.058,27.058,0,0,1-9.406-1.748l.779-3.307a24.827,24.827,0,0,0,8.628,1.609c6.507,0,11.529-2.679,16.846-5.514,5.339-2.847,10.86-5.792,17.935-5.792s12.6,2.945,17.935,5.792c5.316,2.836,10.338,5.514,16.846,5.514s11.529-2.679,16.846-5.514c5.339-2.847,10.86-5.792,17.935-5.792s12.6,2.945,17.935,5.792c5.316,2.836,10.338,5.514,16.846,5.514s11.529-2.679,16.846-5.514c5.339-2.847,10.859-5.792,17.934-5.792s12.6,2.945,17.935,5.792c5.316,2.836,10.338,5.514,16.845,5.514a24.826,24.826,0,0,0,8.628-1.609l.779,3.307A27.052,27.052,0,0,1,587.692,746.014Z" transform="translate(-369.605 -731.262)" fill="#e4dbcd"/>
                  </g>
                  <g id="Group_14551" data-name="Group 14551" transform="translate(0 169.592)">
                    <path id="Path_59036" data-name="Path 59036" d="M587.692,721.411c-7.075,0-12.6-2.945-17.935-5.792-5.316-2.835-10.338-5.514-16.846-5.514s-11.529,2.678-16.845,5.514c-5.339,2.847-10.86,5.792-17.935,5.792s-12.6-2.945-17.935-5.792c-5.316-2.836-10.338-5.514-16.845-5.514s-11.529,2.679-16.846,5.514c-5.339,2.847-10.86,5.792-17.935,5.792s-12.6-2.945-17.935-5.792c-5.316-2.836-10.338-5.514-16.846-5.514s-11.529,2.679-16.846,5.514c-5.339,2.847-10.86,5.792-17.935,5.792a27.038,27.038,0,0,1-9.406-1.749l.779-3.307a24.813,24.813,0,0,0,8.628,1.609c6.508,0,11.529-2.679,16.846-5.514,5.339-2.847,10.86-5.792,17.935-5.792s12.6,2.945,17.935,5.792c5.316,2.835,10.338,5.514,16.846,5.514s11.529-2.678,16.846-5.514c5.339-2.847,10.86-5.792,17.935-5.792s12.6,2.945,17.935,5.792c5.316,2.835,10.338,5.514,16.846,5.514s11.529-2.679,16.846-5.514c5.339-2.847,10.859-5.792,17.934-5.792s12.6,2.945,17.935,5.792c5.316,2.835,10.338,5.514,16.845,5.514a24.818,24.818,0,0,0,8.628-1.609l.779,3.307A27.043,27.043,0,0,1,587.692,721.411Z" transform="translate(-369.605 -706.659)" fill="#e4dbcd"/>
                  </g>
                  <g id="Group_14552" data-name="Group 14552" transform="translate(0 152.633)">
                    <path id="Path_59037" data-name="Path 59037" d="M587.692,696.808c-7.075,0-12.6-2.945-17.935-5.792-5.316-2.835-10.338-5.514-16.846-5.514s-11.529,2.678-16.845,5.514c-5.339,2.847-10.86,5.792-17.935,5.792s-12.6-2.945-17.935-5.792c-5.316-2.836-10.338-5.514-16.845-5.514s-11.529,2.679-16.846,5.514c-5.339,2.847-10.86,5.792-17.935,5.792s-12.6-2.945-17.935-5.792c-5.316-2.836-10.338-5.514-16.846-5.514s-11.529,2.679-16.846,5.514c-5.339,2.847-10.86,5.792-17.935,5.792a27.05,27.05,0,0,1-9.406-1.749l.779-3.307a24.82,24.82,0,0,0,8.628,1.61c6.508,0,11.529-2.679,16.846-5.514,5.339-2.847,10.86-5.792,17.935-5.792s12.6,2.945,17.935,5.792c5.316,2.835,10.338,5.514,16.846,5.514s11.529-2.678,16.846-5.514c5.339-2.847,10.86-5.792,17.935-5.792s12.6,2.945,17.935,5.792c5.316,2.835,10.338,5.514,16.846,5.514s11.529-2.679,16.846-5.514c5.339-2.847,10.859-5.792,17.934-5.792s12.6,2.945,17.935,5.792c5.316,2.835,10.338,5.514,16.845,5.514a24.826,24.826,0,0,0,8.628-1.61l.778,3.307A27.05,27.05,0,0,1,587.692,696.808Z" transform="translate(-369.605 -682.056)" fill="#e4dbcd"/>
                  </g>
                  <g id="Group_14553" data-name="Group 14553" transform="translate(0 135.674)">
                    <path id="Path_59038" data-name="Path 59038" d="M587.692,672.2c-7.075,0-12.6-2.944-17.935-5.792-5.316-2.836-10.338-5.514-16.846-5.514s-11.529,2.678-16.845,5.514c-5.339,2.847-10.86,5.792-17.935,5.792s-12.6-2.944-17.935-5.792c-5.316-2.836-10.338-5.514-16.845-5.514s-11.529,2.678-16.846,5.514c-5.339,2.847-10.86,5.792-17.935,5.792s-12.6-2.944-17.935-5.792c-5.316-2.836-10.338-5.514-16.846-5.514s-11.529,2.678-16.846,5.514c-5.339,2.847-10.86,5.792-17.935,5.792a27.047,27.047,0,0,1-9.406-1.748l.779-3.307a24.817,24.817,0,0,0,8.628,1.609c6.508,0,11.529-2.678,16.846-5.514,5.339-2.847,10.86-5.792,17.935-5.792s12.6,2.944,17.935,5.792c5.316,2.836,10.338,5.514,16.846,5.514s11.529-2.678,16.846-5.514c5.339-2.847,10.86-5.792,17.935-5.792s12.6,2.944,17.935,5.792c5.316,2.836,10.338,5.514,16.846,5.514s11.529-2.678,16.846-5.514c5.339-2.847,10.859-5.792,17.934-5.792s12.6,2.944,17.935,5.792c5.316,2.836,10.338,5.514,16.845,5.514a24.823,24.823,0,0,0,8.628-1.609l.778,3.307A27.047,27.047,0,0,1,587.692,672.2Z" transform="translate(-369.605 -657.453)" fill="#e4dbcd"/>
                  </g>
                  <g id="Group_14554" data-name="Group 14554" transform="translate(0 118.714)">
                    <path id="Path_59039" data-name="Path 59039" d="M587.692,647.6c-7.075,0-12.6-2.945-17.935-5.792-5.316-2.835-10.338-5.514-16.846-5.514s-11.529,2.678-16.845,5.514c-5.339,2.848-10.86,5.792-17.935,5.792s-12.6-2.945-17.935-5.792c-5.316-2.836-10.338-5.514-16.845-5.514s-11.529,2.679-16.846,5.514c-5.339,2.848-10.86,5.792-17.935,5.792s-12.6-2.945-17.935-5.792c-5.316-2.836-10.338-5.514-16.846-5.514s-11.529,2.679-16.846,5.514c-5.339,2.848-10.86,5.792-17.935,5.792a27.056,27.056,0,0,1-9.406-1.748l.779-3.307a24.807,24.807,0,0,0,8.628,1.609c6.508,0,11.529-2.679,16.846-5.514,5.339-2.848,10.86-5.792,17.935-5.792s12.6,2.944,17.935,5.792c5.316,2.835,10.338,5.514,16.846,5.514s11.529-2.678,16.846-5.514c5.339-2.848,10.86-5.792,17.935-5.792s12.6,2.944,17.935,5.792c5.316,2.835,10.338,5.514,16.846,5.514s11.529-2.679,16.846-5.514c5.339-2.848,10.859-5.792,17.934-5.792s12.6,2.944,17.935,5.792c5.316,2.835,10.338,5.514,16.845,5.514a24.812,24.812,0,0,0,8.628-1.609l.778,3.307A27.054,27.054,0,0,1,587.692,647.6Z" transform="translate(-369.605 -632.849)" fill="#e4dbcd"/>
                  </g>
                  <g id="Group_14555" data-name="Group 14555" transform="translate(0 101.755)">
                    <path id="Path_59040" data-name="Path 59040" d="M587.692,623c-7.075,0-12.6-2.945-17.935-5.792-5.316-2.835-10.338-5.514-16.846-5.514s-11.529,2.678-16.845,5.514c-5.339,2.848-10.86,5.792-17.935,5.792s-12.6-2.945-17.935-5.792c-5.316-2.836-10.338-5.514-16.845-5.514s-11.529,2.679-16.846,5.514c-5.339,2.848-10.86,5.792-17.935,5.792s-12.6-2.945-17.935-5.792c-5.316-2.836-10.338-5.514-16.846-5.514s-11.529,2.679-16.846,5.514c-5.339,2.848-10.86,5.792-17.935,5.792a27.059,27.059,0,0,1-9.406-1.748l.779-3.307a24.829,24.829,0,0,0,8.628,1.609c6.508,0,11.529-2.679,16.846-5.514,5.339-2.848,10.86-5.792,17.935-5.792s12.6,2.944,17.935,5.792c5.316,2.835,10.338,5.514,16.846,5.514s11.529-2.678,16.846-5.514c5.339-2.848,10.86-5.792,17.935-5.792s12.6,2.944,17.935,5.792c5.316,2.835,10.338,5.514,16.846,5.514s11.529-2.679,16.846-5.514c5.339-2.848,10.859-5.792,17.934-5.792s12.6,2.944,17.935,5.792c5.316,2.835,10.338,5.514,16.845,5.514a24.834,24.834,0,0,0,8.628-1.609l.778,3.307A27.057,27.057,0,0,1,587.692,623Z" transform="translate(-369.605 -608.246)" fill="#e4dbcd"/>
                  </g>
                  <g id="Group_14556" data-name="Group 14556" transform="translate(0 84.796)">
                    <path id="Path_59041" data-name="Path 59041" d="M587.692,598.394c-7.075,0-12.6-2.944-17.935-5.792-5.316-2.835-10.338-5.514-16.846-5.514s-11.529,2.679-16.845,5.514c-5.339,2.848-10.86,5.792-17.935,5.792s-12.6-2.944-17.935-5.792c-5.316-2.835-10.338-5.514-16.845-5.514s-11.529,2.679-16.846,5.514c-5.339,2.848-10.86,5.792-17.935,5.792s-12.6-2.944-17.935-5.792c-5.316-2.835-10.338-5.514-16.846-5.514s-11.529,2.679-16.846,5.514c-5.339,2.848-10.86,5.792-17.935,5.792a27.054,27.054,0,0,1-9.406-1.747l.779-3.307a24.823,24.823,0,0,0,8.628,1.608c6.508,0,11.529-2.678,16.846-5.514,5.339-2.848,10.86-5.792,17.935-5.792s12.6,2.945,17.935,5.792c5.316,2.836,10.338,5.514,16.846,5.514s11.529-2.678,16.846-5.514c5.339-2.848,10.86-5.792,17.935-5.792s12.6,2.945,17.935,5.792c5.316,2.836,10.338,5.514,16.846,5.514s11.529-2.678,16.846-5.514c5.339-2.848,10.859-5.792,17.934-5.792s12.6,2.945,17.935,5.792c5.316,2.836,10.338,5.514,16.845,5.514a24.828,24.828,0,0,0,8.628-1.608l.778,3.307A27.051,27.051,0,0,1,587.692,598.394Z" transform="translate(-369.605 -583.642)" fill="#e4dbcd"/>
                  </g>
                  <g id="Group_14557" data-name="Group 14557" transform="translate(0 67.837)">
                    <path id="Path_59042" data-name="Path 59042" d="M587.692,573.791c-7.075,0-12.6-2.945-17.935-5.792-5.316-2.835-10.338-5.514-16.846-5.514s-11.529,2.679-16.845,5.514c-5.339,2.848-10.86,5.792-17.935,5.792s-12.6-2.945-17.935-5.792c-5.316-2.835-10.338-5.514-16.845-5.514s-11.529,2.679-16.846,5.514c-5.339,2.848-10.86,5.792-17.935,5.792s-12.6-2.945-17.935-5.792c-5.316-2.835-10.338-5.514-16.846-5.514s-11.529,2.679-16.846,5.514c-5.339,2.848-10.86,5.792-17.935,5.792a27.044,27.044,0,0,1-9.406-1.748l.779-3.307a24.812,24.812,0,0,0,8.628,1.609c6.507,0,11.529-2.678,16.846-5.514,5.339-2.848,10.86-5.792,17.935-5.792s12.6,2.945,17.935,5.792c5.316,2.836,10.338,5.514,16.846,5.514s11.529-2.678,16.846-5.514c5.339-2.848,10.86-5.792,17.935-5.792s12.6,2.945,17.935,5.792c5.316,2.836,10.338,5.514,16.846,5.514s11.529-2.678,16.846-5.514c5.339-2.848,10.859-5.792,17.934-5.792s12.6,2.945,17.935,5.792c5.316,2.836,10.338,5.514,16.845,5.514a24.81,24.81,0,0,0,8.628-1.609l.779,3.307A27.038,27.038,0,0,1,587.692,573.791Z" transform="translate(-369.605 -559.039)" fill="#e4dbcd"/>
                  </g>
                  <g id="Group_14558" data-name="Group 14558" transform="translate(0 50.878)">
                    <path id="Path_59043" data-name="Path 59043" d="M587.692,549.189c-7.075,0-12.6-2.945-17.935-5.792-5.316-2.835-10.338-5.514-16.846-5.514s-11.529,2.679-16.845,5.514c-5.339,2.847-10.86,5.792-17.935,5.792s-12.6-2.945-17.935-5.792c-5.316-2.835-10.338-5.514-16.845-5.514s-11.529,2.679-16.846,5.514c-5.339,2.847-10.86,5.792-17.935,5.792s-12.6-2.945-17.935-5.792c-5.316-2.835-10.338-5.514-16.846-5.514s-11.529,2.679-16.846,5.514c-5.339,2.847-10.86,5.792-17.935,5.792a27.064,27.064,0,0,1-9.406-1.748l.778-3.307a24.822,24.822,0,0,0,8.628,1.609c6.508,0,11.529-2.678,16.846-5.514,5.339-2.847,10.86-5.792,17.935-5.792s12.6,2.945,17.935,5.792c5.316,2.836,10.338,5.514,16.846,5.514s11.529-2.678,16.846-5.514c5.339-2.847,10.86-5.792,17.935-5.792s12.6,2.945,17.934,5.792c5.317,2.836,10.339,5.514,16.846,5.514s11.529-2.678,16.846-5.514c5.339-2.847,10.859-5.792,17.934-5.792s12.6,2.945,17.935,5.792c5.316,2.836,10.338,5.514,16.845,5.514a24.822,24.822,0,0,0,8.628-1.609l.778,3.307A27.062,27.062,0,0,1,587.692,549.189Z" transform="translate(-369.605 -534.436)" fill="#e4dbcd"/>
                  </g>
                  <g id="Group_14559" data-name="Group 14559" transform="translate(0 33.919)">
                    <path id="Path_59044" data-name="Path 59044" d="M587.692,524.585c-7.075,0-12.6-2.945-17.935-5.792-5.316-2.835-10.338-5.514-16.846-5.514s-11.529,2.679-16.845,5.514c-5.339,2.848-10.86,5.792-17.935,5.792s-12.6-2.945-17.935-5.792c-5.316-2.835-10.338-5.514-16.845-5.514s-11.529,2.679-16.846,5.514c-5.339,2.848-10.86,5.792-17.935,5.792s-12.6-2.945-17.935-5.792c-5.316-2.835-10.338-5.514-16.846-5.514s-11.529,2.679-16.846,5.514c-5.339,2.848-10.86,5.792-17.935,5.792a27.047,27.047,0,0,1-9.406-1.748l.779-3.307a24.818,24.818,0,0,0,8.628,1.609c6.507,0,11.529-2.679,16.846-5.514,5.339-2.848,10.86-5.792,17.935-5.792s12.6,2.945,17.935,5.792c5.316,2.835,10.338,5.514,16.846,5.514s11.529-2.679,16.846-5.514c5.339-2.848,10.86-5.792,17.935-5.792s12.6,2.945,17.935,5.792c5.316,2.835,10.338,5.514,16.846,5.514s11.529-2.679,16.846-5.514c5.339-2.848,10.859-5.792,17.934-5.792s12.6,2.945,17.935,5.792c5.316,2.835,10.338,5.514,16.845,5.514a24.824,24.824,0,0,0,8.628-1.609l.778,3.307A27.047,27.047,0,0,1,587.692,524.585Z" transform="translate(-369.605 -509.833)" fill="#e4dbcd"/>
                  </g>
                  <g id="Group_14560" data-name="Group 14560" transform="translate(0 16.96)">
                    <path id="Path_59045" data-name="Path 59045" d="M587.692,499.983c-7.075,0-12.6-2.945-17.935-5.792-5.316-2.835-10.338-5.514-16.846-5.514s-11.529,2.679-16.845,5.514c-5.339,2.848-10.86,5.792-17.935,5.792s-12.6-2.945-17.935-5.792c-5.316-2.835-10.338-5.514-16.845-5.514s-11.529,2.679-16.846,5.514c-5.339,2.848-10.86,5.792-17.935,5.792s-12.6-2.945-17.935-5.792c-5.316-2.835-10.338-5.514-16.846-5.514s-11.529,2.679-16.846,5.514c-5.339,2.848-10.86,5.792-17.935,5.792a27.063,27.063,0,0,1-9.406-1.749l.778-3.307a24.823,24.823,0,0,0,8.628,1.609c6.507,0,11.529-2.679,16.846-5.514,5.339-2.848,10.86-5.792,17.935-5.792s12.6,2.945,17.935,5.792c5.316,2.835,10.338,5.514,16.846,5.514s11.529-2.679,16.846-5.514c5.339-2.848,10.86-5.792,17.935-5.792s12.6,2.945,17.935,5.792c5.316,2.835,10.338,5.514,16.846,5.514s11.529-2.679,16.846-5.514c5.339-2.848,10.859-5.792,17.934-5.792s12.6,2.945,17.935,5.792c5.316,2.835,10.338,5.514,16.845,5.514a24.807,24.807,0,0,0,8.628-1.609l.779,3.307A27.05,27.05,0,0,1,587.692,499.983Z" transform="translate(-369.605 -485.23)" fill="#e4dbcd"/>
                  </g>
                  <g id="Group_14561" data-name="Group 14561">
                    <path id="Path_59046" data-name="Path 59046" d="M587.692,475.378c-7.075,0-12.6-2.944-17.935-5.792-5.316-2.835-10.338-5.514-16.846-5.514s-11.529,2.679-16.845,5.514c-5.339,2.848-10.86,5.792-17.935,5.792s-12.6-2.944-17.935-5.792c-5.316-2.835-10.338-5.514-16.845-5.514s-11.529,2.679-16.846,5.514c-5.339,2.848-10.86,5.792-17.935,5.792s-12.6-2.944-17.935-5.792c-5.316-2.835-10.338-5.514-16.846-5.514s-11.529,2.679-16.846,5.514c-5.339,2.848-10.86,5.792-17.935,5.792a27.04,27.04,0,0,1-9.406-1.748l.779-3.307a24.811,24.811,0,0,0,8.628,1.609c6.508,0,11.529-2.679,16.846-5.514,5.339-2.848,10.86-5.792,17.935-5.792s12.6,2.945,17.935,5.792c5.316,2.835,10.338,5.514,16.846,5.514s11.529-2.678,16.846-5.514c5.339-2.848,10.86-5.792,17.935-5.792s12.6,2.945,17.935,5.792c5.316,2.835,10.338,5.514,16.846,5.514s11.529-2.679,16.846-5.514c5.339-2.848,10.859-5.792,17.934-5.792s12.6,2.945,17.935,5.792c5.316,2.835,10.338,5.514,16.845,5.514a24.817,24.817,0,0,0,8.628-1.609l.779,3.307A27.045,27.045,0,0,1,587.692,475.378Z" transform="translate(-369.605 -460.626)" fill="#e4dbcd"/>
                  </g>
                </g>
              </g>
            </g>
          </g>
        </g>
      </g>
    </g>
  </g>
</svg>
