<svg xmlns="http://www.w3.org/2000/svg" width="17" height="17" viewBox="0 0 17 17">
  <g id="Group_17502" data-name="Group 17502" transform="translate(363.187 -155.104)">
    <circle id="Ellipse_3146" data-name="Ellipse 3146" cx="8.5" cy="8.5" r="8.5" transform="translate(-363.187 155.104)" fill="#bd202e"/>
    <g id="Group_17481" data-name="Group 17481" transform="translate(-357.94 157.907)">
      <path id="Path_59292" data-name="Path 59292" d="M-272.627,201.791a3.153,3.153,0,0,1,3.13,2.8,2.887,2.887,0,0,1-.569,1.965,3.614,3.614,0,0,1-1.446,1.272.709.709,0,0,0-.417.67c0,.1,0,.208,0,.311a.7.7,0,0,1-.691.671.7.7,0,0,1-.694-.669,2.3,2.3,0,0,1,.474-1.673,2.311,2.311,0,0,1,.759-.585,2.323,2.323,0,0,0,1.118-1.236,1.414,1.414,0,0,0-.232-1.391,1.737,1.737,0,0,0-1.924-.67,1.752,1.752,0,0,0-1.245,1.564,1.453,1.453,0,0,1-.05.338.68.68,0,0,1-.788.458.689.689,0,0,1-.563-.7,3.1,3.1,0,0,1,1.537-2.674A2.978,2.978,0,0,1-272.627,201.791Z" transform="translate(275.768 -201.791)" fill="#fff"/>
      <path id="Path_59293" data-name="Path 59293" d="M-234.214,354.683a.684.684,0,0,1-.689-.7.684.684,0,0,1,.7-.684.685.685,0,0,1,.68.692A.685.685,0,0,1-234.214,354.683Z" transform="translate(237.355 -344.205)" fill="#fff"/>
    </g>
  </g>
</svg>
