<svg xmlns="http://www.w3.org/2000/svg" width="20.509" height="20.5" viewBox="0 0 20.509 20.5">
    <path id="Search" d="M18.819,20a1.187,1.187,0,0,1-.855-.366L12.493,14.16l-.005,0a7.675,7.675,0,0,1-4.6,1.517h-.03a7.872,7.872,0,0,1-5.586-13.4A7.823,7.823,0,0,1,7.767,0H7.8a7.9,7.9,0,0,1,7.857,7.869,7.7,7.7,0,0,1-1.5,4.617l5.476,5.477A1.181,1.181,0,0,1,18.819,20ZM7.777,1.569A6.251,6.251,0,0,0,3.415,12.257a6.285,6.285,0,0,0,4.437,1.855h.024a6.272,6.272,0,0,0-.07-12.544Z" transform="translate(0.25 0.25)" fill="#bd202e" stroke="#ae3134" stroke-width="0.5"/>
  </svg>
  