<svg xmlns="http://www.w3.org/2000/svg" width="101.145" height="104.627" viewBox="0 0 101.145 104.627">
    <g id="Group_17488" data-name="Group 17488" transform="translate(0 0)">
        <path id="Path_502" data-name="Path 502" d="M-1625.468,2600.18l-11.551,14.167-26.806-3.705-3.347-6.713a.885.885,0,0,1-.088-.558l1.586-7.881a.885.885,0,0,1,.645-.679l13.233-3.313a1.146,1.146,0,0,1,.349-.017l11.891,1.708a.779.779,0,0,1,.261.088Z" transform="translate(1674.247 -2575.754)" fill="#e6a0a0" />
        <path id="Path_503" data-name="Path 503" d="M-1612.044,2634.074l9.915,35.523-48.272-25.062Z" transform="translate(1660.823 -2609.648)" fill="#fcdad7" />
        <path id="Path_504" data-name="Path 504" d="M-1421,2603.929l-3.348,6.713-25.28,4.794-13.076-15.256,13.825-6.9a.778.778,0,0,1,.262-.088l11.89-1.708a1.148,1.148,0,0,1,.349.017l13.233,3.313a.884.884,0,0,1,.645.679l1.587,7.881A.887.887,0,0,1-1421,2603.929Z" transform="translate(1511.478 -2575.754)" fill="#e6a0a0" />
        <path id="Path_505" data-name="Path 505" d="M-1424.344,2644.536-1462.7,2676.9v-42.826Z" transform="translate(1511.478 -2609.648)" fill="#e6a0a0" />
        <path id="Path_506" data-name="Path 506" d="M-1589.71,2753.523v54.047l-28.14-14.069-4.48-23.66,9.572-2.544a.872.872,0,0,0,.749-.018l9.869-3.19a.692.692,0,0,0,.349-.313Z" transform="translate(1638.489 -2704.687)" fill="#fcdad7" />
        <path id="Path_507" data-name="Path 507" d="M-1430.079,2769.86l-4.48,23.642-28.14,14.069v-54.047l12.081,8.508a.689.689,0,0,0,.349.314l11.612,4.934a.875.875,0,0,0,.75.018Z" transform="translate(1511.478 -2704.687)" fill="#e6a0a0" />
        <path id="Path_508" data-name="Path 508" d="M-1434.577,2787.164l-4.481,23.641-23.641,11.82V2774l7.583,5.334a.684.684,0,0,0,.349.314l11.611,4.934a.877.877,0,0,0,.75.018Z" transform="translate(1511.478 -2720.98)" fill="#fcdad7" />
        <path id="Path_509" data-name="Path 509" d="M-1415.678,2697.822l-1.691,11.856-12.71,5.876-9.572,4.41a.876.876,0,0,1-.749-.017l-.924-.471-12.431-6.208a.686.686,0,0,1-.349-.313l-8.594-13.738,34.486-12.536,3.87-1.412,8.509,11.926A.8.8,0,0,1-1415.678,2697.822Z" transform="translate(1511.478 -2650.381)" fill="#e6a0a0" />
        <path id="Path_510" data-name="Path 510" d="M-1420.019,2704.069l-1.691,11.855-12.71,5.875-6.9,3.174-12.431-6.207a.687.687,0,0,1-.349-.314l-8.594-13.738,34.486-12.536,8.037,11.263A.8.8,0,0,1-1420.019,2704.069Z" transform="translate(1511.478 -2655.878)" fill="#fcdad7" />
        <path id="Path_511" data-name="Path 511" d="M-1645.827,2699.217l-8.6,13.738a.687.687,0,0,1-.349.313l-13.355,6.678a.875.875,0,0,1-.749.017l-9.572-4.428-12.274-5.667a.871.871,0,0,1-.506-.662l-.227-1.57-1.394-9.816a.8.8,0,0,1,.156-.627l8.509-11.926,34.991,12.728Z" transform="translate(1694.606 -2650.381)" fill="#e6a0a0" />
        <path id="Path_512" data-name="Path 512" d="M-1649.193,2698l-7.514,12.012a.69.69,0,0,1-.349.315L-1670.41,2717a.871.871,0,0,1-.75.017l-9.572-4.428-10.723-4.952-1.394-9.816a.8.8,0,0,1,.156-.627l8.509-11.926Z" transform="translate(1694.606 -2650.381)" fill="#fcdad7" />
        <path id="Path_513" data-name="Path 513" d="M-1691.228,2636.323a.871.871,0,0,0,.506.663l12.274,5.666,4.48,23.659,28.14,14.07,2.615-1.307-25.524-12.762-4.48-23.659-12.275-5.666a.871.871,0,0,1-.505-.663l-.227-1.569-1.4-11.56a.8.8,0,0,1,.157-.627l8.507-11.925-3.347-6.713a.885.885,0,0,1-.087-.558l1.587-7.881a.883.883,0,0,1,.645-.679l11.489-2.879-3.138-.451a1.146,1.146,0,0,0-.349.017l-13.233,3.313a.884.884,0,0,0-.645.679l-1.587,7.881a.883.883,0,0,0,.088.558l3.347,6.713-8.509,11.925a.8.8,0,0,0-.156.627l1.394,11.56Z" transform="translate(1694.606 -2575.754)" fill="#fff" />
        <path id="Path_514" data-name="Path 514" d="M-1602.658,2941.529l20.272,10.135,7.867,3.934-1.558,3.117-7.869-3.932-20.271-10.136Z" transform="translate(1624.077 -2854.274)" fill="#fff" />
        <g id="Group_140" data-name="Group 140">
            <path id="Path_515" data-name="Path 515" d="M-1595.642,2946.986a1.738,1.738,0,0,0,.1-1.331,1.744,1.744,0,0,0-.874-1.009l-6.238-3.117-1.559,3.117,6.237,3.119a1.737,1.737,0,0,0,1.331.095A1.742,1.742,0,0,0-1595.642,2946.986Z" transform="translate(1624.077 -2854.274)" fill="#ac0e25" />
            <path id="Path_516" data-name="Path 516" d="M-1506.927,2994.436l1.558-3.118-9.427-4.718a1.743,1.743,0,0,0-2.327.786,1.744,1.744,0,0,0,.768,2.333Z" transform="translate(1554.926 -2889.994)" fill="#ac0e25" />
            <path id="Path_517" data-name="Path 517" d="M-1545.353,2971.342a1.836,1.836,0,0,0-1.334-.1l-.3.141a1.279,1.279,0,0,0-.281.209,1.136,1.136,0,0,0-.234.235,2.9,2.9,0,0,0-.186.294,1.837,1.837,0,0,0-.1,1.333,1.716,1.716,0,0,0,1.192,1.147,1.718,1.718,0,0,0,1.606-.39,1.747,1.747,0,0,0,.422-.523,1.732,1.732,0,0,0,.1-1.334,1.729,1.729,0,0,0-.881-1.006Z" transform="translate(1579.248 -2877.851)" fill="#ac0e25" />
            <path id="Path_518" data-name="Path 518" d="M-1618.837,2748.214a1.743,1.743,0,0,1-1.744-1.743v-52.827l-37.209-13.53a1.744,1.744,0,0,1-1.043-2.235,1.744,1.744,0,0,1,2.235-1.042l38.357,13.947a1.745,1.745,0,0,1,1.147,1.64v54.047A1.743,1.743,0,0,1-1618.837,2748.214Z" transform="translate(1667.616 -2643.587)" fill="#ac0e25" />
            <path id="Path_519" data-name="Path 519" d="M-1624.682,2851.775a1.744,1.744,0,0,1-1.711-1.419l-4.48-23.659a1.743,1.743,0,0,1,.549-1.688,1.745,1.745,0,0,1,1.745-.332,1.743,1.743,0,0,1,1.129,1.372l4.484,23.659a1.745,1.745,0,0,1-.372,1.438A1.741,1.741,0,0,1-1624.682,2851.775Z" transform="translate(1645.318 -2761.218)" fill="#ac0e25" />
            <path id="Path_520" data-name="Path 520" d="M-1469.489,2748.214a1.743,1.743,0,0,1-1.744-1.743v-54.047a1.745,1.745,0,0,1,1.147-1.64l38.357-13.947a1.743,1.743,0,0,1,2.235,1.042,1.744,1.744,0,0,1-1.043,2.235l-37.209,13.53v50.007l24.843-12.423,4.322-22.792a1.747,1.747,0,0,1,1.13-1.372,1.744,1.744,0,0,1,1.746.332,1.742,1.742,0,0,1,.549,1.688l-4.481,23.642a1.74,1.74,0,0,1-.933,1.236l-28.139,14.079A1.731,1.731,0,0,1-1469.489,2748.214Z" transform="translate(1518.268 -2643.587)" fill="#ac0e25" />
            <path id="Path_521" data-name="Path 521" d="M-1657.189,2605.617a1.744,1.744,0,0,1-1.728-1.514,1.743,1.743,0,0,1,1.271-1.913l38.191-10.416,13.664-6.832a2.545,2.545,0,0,1,.792-.247l11.9-1.7a2.57,2.57,0,0,1,1,.052l13.25,3.313a2.625,2.625,0,0,1,1.929,2.023l1.57,7.883a2.634,2.634,0,0,1-.229,1.686l-3.336,6.7a1.743,1.743,0,0,1-2.018.9l-37.906-10.335-37.9,10.335A1.731,1.731,0,0,1-1657.189,2605.617Zm43.219-12.686,32.575,8.884,2.581-5.163-1.407-7.045-12.553-3.138-11.582,1.654Z" transform="translate(1667.611 -2568.986)" fill="#ac0e25" />
            <path id="Path_522" data-name="Path 522" d="M-1609.567,2640.382a2.606,2.606,0,0,1-1.168-.277l-13.353-6.676a2.651,2.651,0,0,1-1.046-.95l-8.59-13.744a1.744,1.744,0,0,1-.265-.923v-22.127l-36.155,9.861a1.743,1.743,0,0,1-2.018-.9l-3.351-6.707a2.63,2.63,0,0,1-.229-1.677l1.578-7.889a2.623,2.623,0,0,1,1.93-2.023l13.251-3.313a2.664,2.664,0,0,1,.994-.054l11.9,1.706a2.524,2.524,0,0,1,.8.249l13.811,6.9c.036.018.069.037.1.056l.078.047a1.744,1.744,0,0,1,.7.907,1.527,1.527,0,0,1,.052.184,1.776,1.776,0,0,1,.037.4V2617.3l8.194,13.109,12.76,6.38,21.046-9.7,1.51-10.575-8.31-11.636a1.744,1.744,0,0,1-.217-1.769,1.742,1.742,0,0,1,1.449-1.036,1.744,1.744,0,0,1,1.6.778l8.52,11.921a2.6,2.6,0,0,1,.461,1.893l-1.693,11.855a1.746,1.746,0,0,1-1,1.337l-22.284,10.285A2.607,2.607,0,0,1-1609.567,2640.382Zm-62.7-43.74,2.58,5.162,32.575-8.883-9.61-4.806-11.582-1.654-12.553,3.138Z" transform="translate(1681.024 -2568.977)" fill="#ac0e25" />
            <path id="Path_523" data-name="Path 523" d="M-1675.3,2714.787a2.65,2.65,0,0,1-1.095-.241l-21.854-10.09a2.589,2.589,0,0,1-1.492-2.006l-1.628-11.385a2.6,2.6,0,0,1,.456-1.887l8.519-11.924a1.742,1.742,0,0,1,1.6-.778,1.742,1.742,0,0,1,1.449,1.036,1.744,1.744,0,0,1-.217,1.769l-8.308,11.635,1.51,10.575,21.042,9.712,12.761-6.382,8.458-13.531a1.747,1.747,0,0,1,2.406-.557,1.747,1.747,0,0,1,.558,2.406l-8.588,13.74a2.656,2.656,0,0,1-1.046.954l-13.353,6.675A2.617,2.617,0,0,1-1675.3,2714.787Z" transform="translate(1701.401 -2643.381)" fill="#ac0e25" />
            <path id="Path_524" data-name="Path 524" d="M-1506.6,2596.215a1.744,1.744,0,0,1-1.681-1.279,1.743,1.743,0,0,1,.785-1.96l45.712-27.39,12.367-8.17a1.74,1.74,0,0,1,1.781-.158,1.743,1.743,0,0,1,.985,1.491,1.746,1.746,0,0,1-.847,1.575l-12.431,8.211-45.775,27.432A1.749,1.749,0,0,1-1506.6,2596.215Z" transform="translate(1547.793 -2548.389)" fill="#ac0e25" />
            <path id="Path_525" data-name="Path 525" d="M-1490.982,2560.466a1.744,1.744,0,0,1-1.6-1.046,1.743,1.743,0,0,1,.317-1.88L-1453,2515.12a1.743,1.743,0,0,1,1.674-.536,1.745,1.745,0,0,1,1.29,1.193,1.744,1.744,0,0,1-.4,1.711l-39.263,42.418A1.742,1.742,0,0,1-1490.982,2560.466Z" transform="translate(1535.367 -2514.542)" fill="#ac0e25" />
            <path id="Path_526" data-name="Path 526" d="M-1573.427,2922.63a1.738,1.738,0,0,1-.778-.174l-6.974-3.487a1.743,1.743,0,0,1-.781-2.34,1.744,1.744,0,0,1,2.339-.781l6.974,3.487a1.744,1.744,0,0,1,.9,1.954A1.743,1.743,0,0,1-1573.427,2922.63Z" transform="translate(1606.514 -2833.695)" fill="#ac0e25" />
        </g>
    </g>
</svg>
  