<svg id="Group_14564" data-name="Group 14564" xmlns="http://www.w3.org/2000/svg" width="437.247" height="263.983" viewBox="0 0 437.247 263.983">
  <g id="Group_14543" data-name="Group 14543" transform="translate(0 0)">
    <g id="Group_14542" data-name="Group 14542">
      <g id="Group_14524" data-name="Group 14524" transform="translate(165.772 255.001)">
        <path id="Path_59011" data-name="Path 59011" d="M292.392,838.657l-1.092-3.176c5.351-2.854,10.885-5.806,17.977-5.806s12.626,2.952,17.978,5.806l-1.092,3.176c-5.329-2.843-10.362-5.527-16.886-5.527S297.721,835.815,292.392,838.657Z" transform="translate(-291.3 -829.675)" fill="#e4dbcd"/>
      </g>
      <g id="Group_14525" data-name="Group 14525" transform="translate(96.043 255.001)">
        <path id="Path_59012" data-name="Path 59012" d="M166.68,838.657l-1.092-3.176c5.351-2.854,10.885-5.806,17.978-5.806s12.626,2.952,17.977,5.806l-1.092,3.176c-5.329-2.843-10.362-5.528-16.886-5.528S172.009,835.815,166.68,838.657Z" transform="translate(-165.588 -829.675)" fill="#e4dbcd"/>
      </g>
      <g id="Group_14526" data-name="Group 14526" transform="translate(26.316 255.001)">
        <path id="Path_59013" data-name="Path 59013" d="M74.741,838.657c-5.329-2.843-10.363-5.528-16.886-5.528s-11.556,2.684-16.886,5.527l-1.092-3.176c5.351-2.854,10.885-5.806,17.977-5.806s12.626,2.952,17.978,5.806Z" transform="translate(-39.877 -829.675)" fill="#e4dbcd"/>
      </g>
      <g id="Group_14527" data-name="Group 14527" transform="translate(0 238.001)">
        <path id="Path_59014" data-name="Path 59014" d="M211.046,819.86c-7.092,0-12.626-2.951-17.978-5.806-5.329-2.842-10.363-5.527-16.886-5.527s-11.556,2.684-16.886,5.527c-5.352,2.855-10.886,5.806-17.978,5.806s-12.626-2.951-17.978-5.806c-5.329-2.843-10.363-5.527-16.886-5.527s-11.557,2.685-16.886,5.527c-5.352,2.855-10.886,5.806-17.978,5.806s-12.626-2.951-17.978-5.806c-5.33-2.843-10.363-5.527-16.886-5.527s-11.557,2.685-16.886,5.527c-5.352,2.855-10.886,5.806-17.978,5.806a27.125,27.125,0,0,1-9.429-1.752l.78-3.315a24.887,24.887,0,0,0,8.648,1.613c6.523,0,11.557-2.685,16.886-5.527,5.352-2.854,10.886-5.806,17.978-5.806s12.626,2.952,17.978,5.806c5.329,2.842,10.363,5.527,16.886,5.527s11.557-2.684,16.886-5.527c5.351-2.854,10.886-5.806,17.978-5.806s12.626,2.952,17.978,5.806c5.329,2.842,10.363,5.527,16.886,5.527s11.557-2.685,16.886-5.527c5.351-2.854,10.885-5.806,17.977-5.806s12.626,2.952,17.978,5.806c5.329,2.842,10.363,5.527,16.886,5.527a24.885,24.885,0,0,0,8.649-1.613l.78,3.315A27.121,27.121,0,0,1,211.046,819.86Z" transform="translate(7.567 -805.072)" fill="#e4dbcd"/>
      </g>
      <g id="Group_14528" data-name="Group 14528" transform="translate(0 221)">
        <path id="Path_59015" data-name="Path 59015" d="M211.046,795.256c-7.092,0-12.626-2.951-17.978-5.805-5.329-2.843-10.363-5.528-16.886-5.528s-11.556,2.685-16.886,5.528c-5.352,2.854-10.886,5.805-17.978,5.805s-12.626-2.951-17.978-5.805c-5.329-2.843-10.363-5.528-16.886-5.528s-11.557,2.685-16.886,5.528c-5.352,2.854-10.886,5.805-17.978,5.805s-12.626-2.951-17.978-5.805c-5.33-2.843-10.363-5.528-16.886-5.528s-11.557,2.685-16.886,5.528c-5.352,2.854-10.886,5.805-17.978,5.805A27.129,27.129,0,0,1-7.567,793.5l.78-3.315A24.9,24.9,0,0,0,1.862,791.8c6.523,0,11.557-2.684,16.886-5.527,5.352-2.854,10.886-5.806,17.978-5.806s12.626,2.952,17.978,5.806c5.329,2.843,10.363,5.527,16.886,5.527s11.557-2.684,16.886-5.527c5.351-2.854,10.886-5.806,17.978-5.806s12.626,2.952,17.978,5.806c5.329,2.843,10.363,5.527,16.886,5.527s11.557-2.684,16.886-5.527c5.351-2.854,10.885-5.806,17.977-5.806s12.626,2.952,17.978,5.806c5.329,2.843,10.363,5.527,16.886,5.527a24.9,24.9,0,0,0,8.649-1.612l.78,3.315A27.126,27.126,0,0,1,211.046,795.256Z" transform="translate(7.567 -780.468)" fill="#e4dbcd"/>
      </g>
      <g id="Group_14529" data-name="Group 14529" transform="translate(0 204)">
        <path id="Path_59016" data-name="Path 59016" d="M211.046,770.653c-7.092,0-12.626-2.952-17.978-5.806-5.329-2.843-10.363-5.528-16.886-5.528S164.625,762,159.3,764.847c-5.352,2.854-10.886,5.806-17.978,5.806s-12.626-2.952-17.978-5.806c-5.329-2.843-10.363-5.528-16.886-5.528S94.9,762,89.568,764.847c-5.352,2.854-10.886,5.806-17.978,5.806s-12.626-2.952-17.978-5.806c-5.33-2.843-10.363-5.528-16.886-5.528S25.169,762,19.84,764.847c-5.352,2.854-10.886,5.806-17.978,5.806A27.11,27.11,0,0,1-7.567,768.9l.78-3.315A24.87,24.87,0,0,0,1.862,767.2c6.523,0,11.557-2.684,16.886-5.527,5.352-2.854,10.886-5.806,17.978-5.806s12.626,2.952,17.978,5.806c5.329,2.843,10.363,5.527,16.886,5.527s11.557-2.684,16.886-5.527c5.351-2.854,10.886-5.806,17.978-5.806s12.626,2.952,17.978,5.806c5.329,2.843,10.363,5.527,16.886,5.527s11.557-2.684,16.886-5.527c5.351-2.854,10.885-5.806,17.977-5.806s12.626,2.952,17.978,5.806c5.329,2.843,10.363,5.527,16.886,5.527a24.875,24.875,0,0,0,8.649-1.613l.78,3.315A27.108,27.108,0,0,1,211.046,770.653Z" transform="translate(7.567 -755.865)" fill="#e4dbcd"/>
      </g>
      <g id="Group_14530" data-name="Group 14530" transform="translate(0 187)">
        <path id="Path_59017" data-name="Path 59017" d="M211.046,746.05c-7.092,0-12.626-2.952-17.978-5.806-5.329-2.843-10.363-5.527-16.886-5.527s-11.556,2.684-16.886,5.527c-5.352,2.854-10.886,5.806-17.978,5.806s-12.626-2.952-17.978-5.806c-5.329-2.843-10.363-5.527-16.886-5.527S94.9,737.4,89.568,740.244c-5.352,2.854-10.886,5.806-17.978,5.806s-12.626-2.952-17.978-5.806c-5.33-2.843-10.363-5.527-16.886-5.527S25.169,737.4,19.84,740.244C14.488,743.1,8.954,746.05,1.862,746.05A27.122,27.122,0,0,1-7.567,744.3l.78-3.315A24.888,24.888,0,0,0,1.862,742.6c6.523,0,11.557-2.685,16.886-5.528,5.352-2.854,10.886-5.805,17.978-5.805s12.626,2.952,17.978,5.805c5.329,2.843,10.363,5.528,16.886,5.528s11.557-2.685,16.886-5.528c5.351-2.854,10.886-5.805,17.978-5.805s12.626,2.952,17.978,5.805c5.329,2.843,10.363,5.528,16.886,5.528s11.557-2.685,16.886-5.528c5.351-2.854,10.885-5.805,17.977-5.805s12.626,2.952,17.978,5.805c5.329,2.843,10.363,5.528,16.886,5.528a24.887,24.887,0,0,0,8.649-1.613l.78,3.315A27.118,27.118,0,0,1,211.046,746.05Z" transform="translate(7.567 -731.262)" fill="#e4dbcd"/>
      </g>
      <g id="Group_14531" data-name="Group 14531" transform="translate(0 170.001)">
        <path id="Path_59018" data-name="Path 59018" d="M211.046,721.447c-7.092,0-12.626-2.952-17.978-5.806-5.329-2.842-10.363-5.527-16.886-5.527s-11.556,2.684-16.886,5.527c-5.352,2.854-10.886,5.806-17.978,5.806s-12.626-2.952-17.978-5.806c-5.329-2.843-10.363-5.527-16.886-5.527S94.9,712.8,89.568,715.641c-5.352,2.854-10.886,5.806-17.978,5.806s-12.626-2.952-17.978-5.806c-5.33-2.843-10.363-5.527-16.886-5.527S25.169,712.8,19.84,715.641c-5.352,2.854-10.886,5.806-17.978,5.806a27.1,27.1,0,0,1-9.429-1.753l.78-3.315a24.872,24.872,0,0,0,8.648,1.613c6.523,0,11.557-2.685,16.886-5.527,5.352-2.854,10.886-5.806,17.978-5.806s12.626,2.952,17.978,5.806c5.329,2.842,10.363,5.527,16.886,5.527s11.557-2.684,16.886-5.527c5.351-2.854,10.886-5.806,17.978-5.806s12.626,2.952,17.978,5.806c5.329,2.842,10.363,5.527,16.886,5.527s11.557-2.685,16.886-5.527c5.351-2.854,10.885-5.806,17.977-5.806s12.626,2.952,17.978,5.806c5.329,2.842,10.363,5.527,16.886,5.527a24.878,24.878,0,0,0,8.649-1.613l.78,3.315A27.109,27.109,0,0,1,211.046,721.447Z" transform="translate(7.567 -706.659)" fill="#e4dbcd"/>
      </g>
      <g id="Group_14532" data-name="Group 14532" transform="translate(0 153.001)">
        <path id="Path_59019" data-name="Path 59019" d="M211.046,696.844c-7.092,0-12.626-2.952-17.978-5.806-5.329-2.842-10.363-5.527-16.886-5.527s-11.556,2.684-16.886,5.527c-5.352,2.854-10.886,5.806-17.978,5.806s-12.626-2.952-17.978-5.806c-5.329-2.843-10.363-5.527-16.886-5.527S94.9,688.2,89.568,691.038c-5.352,2.854-10.886,5.806-17.978,5.806s-12.626-2.952-17.978-5.806c-5.33-2.843-10.363-5.527-16.886-5.527S25.169,688.2,19.84,691.038c-5.352,2.854-10.886,5.806-17.978,5.806a27.116,27.116,0,0,1-9.429-1.753l.78-3.315a24.88,24.88,0,0,0,8.648,1.613c6.523,0,11.557-2.685,16.886-5.527,5.352-2.854,10.886-5.806,17.978-5.806s12.626,2.952,17.978,5.806c5.329,2.842,10.363,5.527,16.886,5.527s11.557-2.684,16.886-5.527c5.351-2.854,10.886-5.806,17.978-5.806s12.626,2.952,17.978,5.806c5.329,2.842,10.363,5.527,16.886,5.527s11.557-2.685,16.886-5.527c5.351-2.854,10.885-5.806,17.977-5.806s12.626,2.952,17.978,5.806c5.329,2.842,10.363,5.527,16.886,5.527a24.885,24.885,0,0,0,8.649-1.613l.78,3.315A27.116,27.116,0,0,1,211.046,696.844Z" transform="translate(7.567 -682.056)" fill="#e4dbcd"/>
      </g>
      <g id="Group_14533" data-name="Group 14533" transform="translate(0 136.001)">
        <path id="Path_59020" data-name="Path 59020" d="M211.046,672.24c-7.092,0-12.626-2.951-17.978-5.805-5.329-2.843-10.363-5.527-16.886-5.527s-11.556,2.684-16.886,5.527c-5.352,2.854-10.886,5.805-17.978,5.805s-12.626-2.951-17.978-5.805c-5.329-2.843-10.363-5.527-16.886-5.527s-11.557,2.684-16.886,5.527c-5.352,2.854-10.886,5.805-17.978,5.805s-12.626-2.951-17.978-5.805c-5.33-2.843-10.363-5.527-16.886-5.527s-11.557,2.684-16.886,5.527c-5.352,2.854-10.886,5.805-17.978,5.805a27.112,27.112,0,0,1-9.429-1.752l.78-3.315a24.878,24.878,0,0,0,8.648,1.613c6.523,0,11.557-2.684,16.886-5.527,5.352-2.854,10.886-5.805,17.978-5.805S49.352,660.4,54.7,663.258c5.329,2.843,10.363,5.527,16.886,5.527s11.557-2.684,16.886-5.527c5.351-2.854,10.886-5.805,17.978-5.805s12.626,2.951,17.978,5.805c5.329,2.843,10.363,5.527,16.886,5.527s11.557-2.684,16.886-5.527c5.351-2.854,10.885-5.805,17.977-5.805s12.626,2.951,17.978,5.805c5.329,2.843,10.363,5.527,16.886,5.527a24.884,24.884,0,0,0,8.649-1.613l.78,3.315A27.112,27.112,0,0,1,211.046,672.24Z" transform="translate(7.567 -657.453)" fill="#e4dbcd"/>
      </g>
      <g id="Group_14534" data-name="Group 14534" transform="translate(0 119)">
        <path id="Path_59021" data-name="Path 59021" d="M211.046,647.637c-7.092,0-12.626-2.952-17.978-5.806-5.329-2.842-10.363-5.527-16.886-5.527s-11.556,2.684-16.886,5.527c-5.352,2.854-10.886,5.806-17.978,5.806s-12.626-2.952-17.978-5.806c-5.329-2.843-10.363-5.527-16.886-5.527s-11.557,2.685-16.886,5.527c-5.352,2.854-10.886,5.806-17.978,5.806s-12.626-2.952-17.978-5.806c-5.33-2.843-10.363-5.527-16.886-5.527s-11.557,2.685-16.886,5.527c-5.352,2.854-10.886,5.806-17.978,5.806a27.12,27.12,0,0,1-9.429-1.752l.78-3.315a24.865,24.865,0,0,0,8.648,1.613c6.523,0,11.557-2.685,16.886-5.527,5.352-2.855,10.886-5.806,17.978-5.806S49.352,635.8,54.7,638.655c5.329,2.842,10.363,5.527,16.886,5.527s11.557-2.684,16.886-5.527c5.351-2.855,10.886-5.806,17.978-5.806s12.626,2.951,17.978,5.806c5.329,2.842,10.363,5.527,16.886,5.527s11.557-2.685,16.886-5.527c5.351-2.855,10.885-5.806,17.977-5.806s12.626,2.951,17.978,5.806c5.329,2.842,10.363,5.527,16.886,5.527a24.871,24.871,0,0,0,8.649-1.613l.78,3.315A27.12,27.12,0,0,1,211.046,647.637Z" transform="translate(7.567 -632.849)" fill="#e4dbcd"/>
      </g>
      <g id="Group_14535" data-name="Group 14535" transform="translate(0 102)">
        <path id="Path_59022" data-name="Path 59022" d="M211.046,623.034c-7.092,0-12.626-2.952-17.978-5.806-5.329-2.842-10.363-5.527-16.886-5.527s-11.556,2.684-16.886,5.527c-5.352,2.854-10.886,5.806-17.978,5.806s-12.626-2.952-17.978-5.806c-5.329-2.843-10.363-5.527-16.886-5.527s-11.557,2.685-16.886,5.527c-5.352,2.854-10.886,5.806-17.978,5.806s-12.626-2.952-17.978-5.806c-5.33-2.843-10.363-5.527-16.886-5.527s-11.557,2.685-16.886,5.527c-5.352,2.854-10.886,5.806-17.978,5.806a27.125,27.125,0,0,1-9.429-1.752l.78-3.315a24.888,24.888,0,0,0,8.648,1.613c6.523,0,11.557-2.685,16.886-5.527,5.352-2.855,10.886-5.806,17.978-5.806S49.352,611.2,54.7,614.052c5.329,2.842,10.363,5.527,16.886,5.527s11.557-2.684,16.886-5.527c5.351-2.855,10.886-5.806,17.978-5.806s12.626,2.951,17.978,5.806c5.329,2.842,10.363,5.527,16.886,5.527s11.557-2.685,16.886-5.527c5.351-2.855,10.885-5.806,17.977-5.806s12.626,2.951,17.978,5.806c5.329,2.842,10.363,5.527,16.886,5.527a24.894,24.894,0,0,0,8.649-1.613l.78,3.315A27.123,27.123,0,0,1,211.046,623.034Z" transform="translate(7.567 -608.246)" fill="#e4dbcd"/>
      </g>
      <g id="Group_14536" data-name="Group 14536" transform="translate(0 85)">
        <path id="Path_59023" data-name="Path 59023" d="M211.046,598.43c-7.092,0-12.626-2.951-17.978-5.806-5.329-2.842-10.363-5.527-16.886-5.527s-11.556,2.685-16.886,5.527c-5.352,2.855-10.886,5.806-17.978,5.806s-12.626-2.951-17.978-5.806c-5.329-2.842-10.363-5.527-16.886-5.527s-11.557,2.685-16.886,5.527c-5.352,2.855-10.886,5.806-17.978,5.806s-12.626-2.951-17.978-5.806c-5.33-2.842-10.363-5.527-16.886-5.527s-11.557,2.685-16.886,5.527c-5.352,2.855-10.886,5.806-17.978,5.806a27.118,27.118,0,0,1-9.429-1.752l.78-3.315a24.881,24.881,0,0,0,8.648,1.612c6.523,0,11.557-2.684,16.886-5.527,5.352-2.854,10.886-5.806,17.978-5.806s12.626,2.952,17.978,5.806c5.329,2.843,10.363,5.527,16.886,5.527s11.557-2.684,16.886-5.527c5.351-2.854,10.886-5.806,17.978-5.806s12.626,2.952,17.978,5.806c5.329,2.843,10.363,5.527,16.886,5.527s11.557-2.684,16.886-5.527c5.351-2.854,10.885-5.806,17.977-5.806s12.626,2.952,17.978,5.806c5.329,2.843,10.363,5.527,16.886,5.527a24.886,24.886,0,0,0,8.649-1.612l.78,3.315A27.118,27.118,0,0,1,211.046,598.43Z" transform="translate(7.567 -583.642)" fill="#e4dbcd"/>
      </g>
      <g id="Group_14537" data-name="Group 14537" transform="translate(0 68)">
        <path id="Path_59024" data-name="Path 59024" d="M211.046,573.827c-7.092,0-12.626-2.952-17.978-5.806-5.329-2.842-10.363-5.527-16.886-5.527s-11.556,2.685-16.886,5.527c-5.352,2.854-10.886,5.806-17.978,5.806s-12.626-2.952-17.978-5.806c-5.329-2.842-10.363-5.527-16.886-5.527s-11.557,2.685-16.886,5.527c-5.352,2.854-10.886,5.806-17.978,5.806s-12.626-2.952-17.978-5.806c-5.33-2.842-10.363-5.527-16.886-5.527s-11.557,2.685-16.886,5.527c-5.352,2.854-10.886,5.806-17.978,5.806a27.108,27.108,0,0,1-9.429-1.752l.78-3.315a24.871,24.871,0,0,0,8.648,1.613c6.523,0,11.557-2.684,16.886-5.527,5.352-2.854,10.886-5.806,17.978-5.806s12.626,2.952,17.978,5.806c5.329,2.843,10.363,5.527,16.886,5.527s11.557-2.684,16.886-5.527c5.351-2.854,10.886-5.806,17.978-5.806s12.626,2.952,17.978,5.806c5.329,2.843,10.363,5.527,16.886,5.527s11.557-2.684,16.886-5.527c5.351-2.854,10.885-5.806,17.977-5.806s12.626,2.952,17.978,5.806c5.329,2.843,10.363,5.527,16.886,5.527a24.87,24.87,0,0,0,8.649-1.613l.78,3.315A27.1,27.1,0,0,1,211.046,573.827Z" transform="translate(7.567 -559.039)" fill="#e4dbcd"/>
      </g>
      <g id="Group_14538" data-name="Group 14538" transform="translate(0 51)">
        <path id="Path_59025" data-name="Path 59025" d="M211.046,549.224c-7.092,0-12.626-2.952-17.978-5.806-5.329-2.842-10.363-5.527-16.886-5.527s-11.556,2.685-16.886,5.527c-5.352,2.854-10.886,5.806-17.978,5.806s-12.626-2.952-17.978-5.806c-5.329-2.842-10.363-5.527-16.886-5.527s-11.557,2.685-16.886,5.527c-5.352,2.854-10.886,5.806-17.978,5.806s-12.626-2.952-17.978-5.806c-5.33-2.842-10.363-5.527-16.886-5.527s-11.557,2.685-16.886,5.527c-5.352,2.854-10.886,5.806-17.978,5.806a27.129,27.129,0,0,1-9.429-1.752l.78-3.315a24.88,24.88,0,0,0,8.649,1.613c6.523,0,11.557-2.684,16.886-5.527,5.352-2.854,10.886-5.806,17.978-5.806s12.626,2.952,17.978,5.806c5.329,2.843,10.363,5.527,16.886,5.527s11.557-2.684,16.886-5.527c5.351-2.854,10.886-5.806,17.978-5.806s12.626,2.952,17.977,5.806c5.33,2.843,10.363,5.527,16.887,5.527s11.557-2.684,16.886-5.527c5.351-2.854,10.885-5.806,17.977-5.806s12.626,2.952,17.978,5.806c5.329,2.843,10.363,5.527,16.886,5.527a24.88,24.88,0,0,0,8.649-1.613l.78,3.315A27.126,27.126,0,0,1,211.046,549.224Z" transform="translate(7.567 -534.436)" fill="#e4dbcd"/>
      </g>
      <g id="Group_14539" data-name="Group 14539" transform="translate(0 34)">
        <path id="Path_59026" data-name="Path 59026" d="M211.046,524.621c-7.092,0-12.626-2.952-17.978-5.806-5.329-2.842-10.363-5.527-16.886-5.527s-11.556,2.685-16.886,5.527c-5.352,2.854-10.886,5.806-17.978,5.806s-12.626-2.952-17.978-5.806c-5.329-2.842-10.363-5.527-16.886-5.527s-11.557,2.685-16.886,5.527c-5.352,2.854-10.886,5.806-17.978,5.806s-12.626-2.952-17.978-5.806c-5.33-2.842-10.363-5.527-16.886-5.527s-11.557,2.685-16.886,5.527c-5.352,2.854-10.886,5.806-17.978,5.806a27.113,27.113,0,0,1-9.429-1.752l.78-3.315a24.88,24.88,0,0,0,8.648,1.613c6.523,0,11.557-2.685,16.886-5.527,5.352-2.854,10.886-5.806,17.978-5.806s12.626,2.952,17.978,5.806c5.329,2.842,10.363,5.527,16.886,5.527s11.557-2.685,16.886-5.527c5.351-2.854,10.886-5.806,17.978-5.806s12.626,2.952,17.978,5.806c5.329,2.842,10.363,5.527,16.886,5.527s11.557-2.685,16.886-5.527c5.351-2.854,10.885-5.806,17.977-5.806s12.626,2.952,17.978,5.806c5.329,2.842,10.363,5.527,16.886,5.527a24.885,24.885,0,0,0,8.649-1.613l.78,3.315A27.113,27.113,0,0,1,211.046,524.621Z" transform="translate(7.567 -509.833)" fill="#e4dbcd"/>
      </g>
      <g id="Group_14540" data-name="Group 14540" transform="translate(0 17.001)">
        <path id="Path_59027" data-name="Path 59027" d="M211.046,500.018c-7.092,0-12.626-2.952-17.978-5.806-5.329-2.842-10.363-5.527-16.886-5.527s-11.556,2.685-16.886,5.527c-5.352,2.854-10.886,5.806-17.978,5.806s-12.626-2.952-17.978-5.806c-5.329-2.842-10.363-5.527-16.886-5.527S94.9,491.37,89.568,494.212c-5.352,2.854-10.886,5.806-17.978,5.806s-12.626-2.952-17.978-5.806c-5.33-2.842-10.363-5.527-16.886-5.527s-11.557,2.685-16.886,5.527c-5.352,2.854-10.886,5.806-17.978,5.806a27.128,27.128,0,0,1-9.429-1.753l.78-3.315a24.883,24.883,0,0,0,8.649,1.613c6.523,0,11.557-2.685,16.886-5.527,5.352-2.854,10.886-5.806,17.978-5.806s12.626,2.952,17.978,5.806c5.329,2.842,10.363,5.527,16.886,5.527s11.557-2.685,16.886-5.527c5.351-2.854,10.886-5.806,17.978-5.806s12.626,2.952,17.978,5.806c5.329,2.842,10.363,5.527,16.886,5.527s11.557-2.685,16.886-5.527c5.351-2.854,10.885-5.806,17.977-5.806s12.626,2.952,17.978,5.806c5.329,2.842,10.363,5.527,16.886,5.527a24.867,24.867,0,0,0,8.649-1.613l.78,3.315A27.115,27.115,0,0,1,211.046,500.018Z" transform="translate(7.567 -485.23)" fill="#e4dbcd"/>
      </g>
      <g id="Group_14541" data-name="Group 14541">
        <path id="Path_59028" data-name="Path 59028" d="M211.046,475.414c-7.092,0-12.626-2.951-17.978-5.806-5.329-2.842-10.363-5.527-16.886-5.527s-11.556,2.685-16.886,5.527c-5.352,2.855-10.886,5.806-17.978,5.806s-12.626-2.951-17.978-5.806c-5.329-2.842-10.363-5.527-16.886-5.527s-11.557,2.685-16.886,5.527c-5.352,2.855-10.886,5.806-17.978,5.806s-12.626-2.951-17.978-5.806c-5.33-2.842-10.363-5.527-16.886-5.527s-11.557,2.685-16.886,5.527c-5.352,2.855-10.886,5.806-17.978,5.806a27.105,27.105,0,0,1-9.429-1.752l.78-3.315a24.871,24.871,0,0,0,8.648,1.613c6.523,0,11.557-2.685,16.886-5.527,5.352-2.854,10.886-5.806,17.978-5.806s12.626,2.952,17.978,5.806c5.329,2.842,10.363,5.527,16.886,5.527s11.557-2.684,16.886-5.527c5.351-2.854,10.886-5.806,17.978-5.806s12.626,2.952,17.978,5.806c5.329,2.842,10.363,5.527,16.886,5.527s11.557-2.685,16.886-5.527c5.351-2.854,10.885-5.806,17.977-5.806s12.626,2.952,17.978,5.806c5.329,2.842,10.363,5.527,16.886,5.527a24.877,24.877,0,0,0,8.649-1.613l.78,3.315A27.11,27.11,0,0,1,211.046,475.414Z" transform="translate(7.567 -460.626)" fill="#e4dbcd"/>
      </g>
    </g>
  </g>
  <g id="Group_14563" data-name="Group 14563" transform="translate(209.205 0)">
    <g id="Group_14562" data-name="Group 14562">
      <g id="Group_14544" data-name="Group 14544" transform="translate(165.772 255.001)">
        <path id="Path_59029" data-name="Path 59029" d="M669.564,838.657l-1.092-3.176c5.352-2.854,10.885-5.806,17.977-5.806s12.626,2.952,17.978,5.806l-1.092,3.176c-5.329-2.843-10.362-5.527-16.886-5.527S674.893,835.815,669.564,838.657Z" transform="translate(-668.472 -829.675)" fill="#e4dbcd"/>
      </g>
      <g id="Group_14545" data-name="Group 14545" transform="translate(96.043 255.001)">
        <path id="Path_59030" data-name="Path 59030" d="M543.852,838.657l-1.092-3.176c5.351-2.854,10.885-5.806,17.978-5.806s12.626,2.952,17.977,5.806l-1.092,3.176c-5.329-2.843-10.362-5.528-16.886-5.528S549.181,835.815,543.852,838.657Z" transform="translate(-542.76 -829.675)" fill="#e4dbcd"/>
      </g>
      <g id="Group_14546" data-name="Group 14546" transform="translate(26.316 255.001)">
        <path id="Path_59031" data-name="Path 59031" d="M451.913,838.657c-5.329-2.843-10.363-5.528-16.886-5.528s-11.556,2.684-16.886,5.527l-1.092-3.176c5.351-2.854,10.886-5.806,17.977-5.806s12.626,2.952,17.978,5.806Z" transform="translate(-417.049 -829.675)" fill="#e4dbcd"/>
      </g>
      <g id="Group_14547" data-name="Group 14547" transform="translate(0 238.001)">
        <path id="Path_59032" data-name="Path 59032" d="M588.218,819.86c-7.092,0-12.626-2.951-17.978-5.806-5.329-2.842-10.363-5.527-16.886-5.527s-11.557,2.684-16.886,5.527c-5.352,2.855-10.886,5.806-17.978,5.806s-12.626-2.951-17.978-5.806c-5.329-2.843-10.363-5.527-16.886-5.527s-11.557,2.685-16.886,5.527c-5.352,2.855-10.886,5.806-17.978,5.806s-12.626-2.951-17.978-5.806c-5.329-2.843-10.363-5.527-16.886-5.527s-11.557,2.685-16.886,5.527c-5.352,2.855-10.886,5.806-17.978,5.806a27.125,27.125,0,0,1-9.429-1.752l.78-3.315a24.887,24.887,0,0,0,8.648,1.613c6.523,0,11.557-2.685,16.886-5.527,5.352-2.854,10.886-5.806,17.978-5.806s12.626,2.952,17.978,5.806c5.329,2.842,10.363,5.527,16.886,5.527s11.557-2.684,16.886-5.527c5.351-2.854,10.886-5.806,17.978-5.806s12.626,2.952,17.978,5.806c5.329,2.842,10.363,5.527,16.886,5.527s11.557-2.685,16.886-5.527c5.351-2.854,10.885-5.806,17.977-5.806s12.626,2.952,17.978,5.806c5.329,2.842,10.363,5.527,16.886,5.527a24.885,24.885,0,0,0,8.649-1.613l.78,3.315A27.119,27.119,0,0,1,588.218,819.86Z" transform="translate(-369.605 -805.072)" fill="#e4dbcd"/>
      </g>
      <g id="Group_14548" data-name="Group 14548" transform="translate(0 221)">
        <path id="Path_59033" data-name="Path 59033" d="M588.218,795.256c-7.092,0-12.626-2.951-17.978-5.805-5.329-2.843-10.363-5.528-16.886-5.528s-11.557,2.685-16.886,5.528c-5.352,2.854-10.886,5.805-17.978,5.805s-12.626-2.951-17.978-5.805c-5.329-2.843-10.363-5.528-16.886-5.528s-11.557,2.685-16.886,5.528c-5.352,2.854-10.886,5.805-17.978,5.805s-12.626-2.951-17.978-5.805c-5.329-2.843-10.363-5.528-16.886-5.528s-11.557,2.685-16.886,5.528c-5.352,2.854-10.886,5.805-17.978,5.805A27.129,27.129,0,0,1,369.6,793.5l.78-3.315a24.9,24.9,0,0,0,8.649,1.612c6.523,0,11.557-2.684,16.886-5.527,5.352-2.854,10.886-5.806,17.978-5.806s12.626,2.952,17.978,5.806c5.329,2.843,10.363,5.527,16.886,5.527s11.557-2.684,16.886-5.527c5.351-2.854,10.886-5.806,17.978-5.806s12.626,2.952,17.978,5.806c5.329,2.843,10.363,5.527,16.886,5.527s11.557-2.684,16.886-5.527c5.351-2.854,10.885-5.806,17.977-5.806s12.626,2.952,17.978,5.806c5.329,2.843,10.363,5.527,16.886,5.527a24.9,24.9,0,0,0,8.649-1.612l.78,3.315A27.126,27.126,0,0,1,588.218,795.256Z" transform="translate(-369.605 -780.468)" fill="#e4dbcd"/>
      </g>
      <g id="Group_14549" data-name="Group 14549" transform="translate(0 204)">
        <path id="Path_59034" data-name="Path 59034" d="M588.218,770.653c-7.092,0-12.626-2.952-17.978-5.806-5.329-2.843-10.363-5.528-16.886-5.528S541.8,762,536.468,764.847c-5.352,2.854-10.886,5.806-17.978,5.806s-12.626-2.952-17.978-5.806c-5.329-2.843-10.363-5.528-16.886-5.528S472.069,762,466.74,764.847c-5.352,2.854-10.886,5.806-17.978,5.806s-12.626-2.952-17.978-5.806c-5.329-2.843-10.363-5.528-16.886-5.528s-11.557,2.685-16.886,5.528c-5.352,2.854-10.886,5.806-17.978,5.806A27.11,27.11,0,0,1,369.6,768.9l.78-3.315a24.87,24.87,0,0,0,8.648,1.613c6.523,0,11.557-2.684,16.886-5.527,5.352-2.854,10.886-5.806,17.978-5.806s12.626,2.952,17.978,5.806c5.329,2.843,10.363,5.527,16.886,5.527s11.557-2.684,16.886-5.527c5.351-2.854,10.886-5.806,17.978-5.806s12.626,2.952,17.978,5.806c5.329,2.843,10.363,5.527,16.886,5.527s11.557-2.684,16.886-5.527c5.351-2.854,10.885-5.806,17.977-5.806s12.626,2.952,17.978,5.806c5.329,2.843,10.363,5.527,16.886,5.527a24.875,24.875,0,0,0,8.649-1.613l.78,3.315A27.108,27.108,0,0,1,588.218,770.653Z" transform="translate(-369.605 -755.865)" fill="#e4dbcd"/>
      </g>
      <g id="Group_14550" data-name="Group 14550" transform="translate(0 187)">
        <path id="Path_59035" data-name="Path 59035" d="M588.218,746.05c-7.092,0-12.626-2.952-17.978-5.806-5.329-2.843-10.363-5.527-16.886-5.527s-11.557,2.684-16.886,5.527c-5.352,2.854-10.886,5.806-17.978,5.806s-12.626-2.952-17.978-5.806c-5.329-2.843-10.363-5.527-16.886-5.527s-11.557,2.684-16.886,5.527c-5.352,2.854-10.886,5.806-17.978,5.806s-12.626-2.952-17.978-5.806c-5.329-2.843-10.363-5.527-16.886-5.527s-11.557,2.684-16.886,5.527c-5.352,2.854-10.886,5.806-17.978,5.806A27.123,27.123,0,0,1,369.6,744.3l.78-3.315a24.888,24.888,0,0,0,8.648,1.613c6.523,0,11.557-2.685,16.886-5.528,5.352-2.854,10.886-5.805,17.978-5.805s12.626,2.952,17.978,5.805c5.329,2.843,10.363,5.528,16.886,5.528s11.557-2.685,16.886-5.528c5.351-2.854,10.886-5.805,17.978-5.805s12.626,2.952,17.978,5.805c5.329,2.843,10.363,5.528,16.886,5.528s11.557-2.685,16.886-5.528c5.351-2.854,10.885-5.805,17.977-5.805s12.626,2.952,17.978,5.805c5.329,2.843,10.363,5.528,16.886,5.528a24.887,24.887,0,0,0,8.649-1.613l.78,3.315A27.116,27.116,0,0,1,588.218,746.05Z" transform="translate(-369.605 -731.262)" fill="#e4dbcd"/>
      </g>
      <g id="Group_14551" data-name="Group 14551" transform="translate(0 170.001)">
        <path id="Path_59036" data-name="Path 59036" d="M588.218,721.447c-7.092,0-12.626-2.952-17.978-5.806-5.329-2.842-10.363-5.527-16.886-5.527s-11.557,2.684-16.886,5.527c-5.352,2.854-10.886,5.806-17.978,5.806s-12.626-2.952-17.978-5.806c-5.329-2.843-10.363-5.527-16.886-5.527s-11.557,2.685-16.886,5.527c-5.352,2.854-10.886,5.806-17.978,5.806s-12.626-2.952-17.978-5.806c-5.329-2.843-10.363-5.527-16.886-5.527s-11.557,2.685-16.886,5.527c-5.352,2.854-10.886,5.806-17.978,5.806a27.1,27.1,0,0,1-9.429-1.753l.78-3.315a24.873,24.873,0,0,0,8.648,1.613c6.523,0,11.557-2.685,16.886-5.527,5.352-2.854,10.886-5.806,17.978-5.806s12.626,2.952,17.978,5.806c5.329,2.842,10.363,5.527,16.886,5.527s11.557-2.684,16.886-5.527c5.351-2.854,10.886-5.806,17.978-5.806s12.626,2.952,17.978,5.806c5.329,2.842,10.363,5.527,16.886,5.527s11.557-2.685,16.886-5.527c5.351-2.854,10.885-5.806,17.977-5.806s12.626,2.952,17.978,5.806c5.329,2.842,10.363,5.527,16.886,5.527a24.878,24.878,0,0,0,8.649-1.613l.78,3.315A27.109,27.109,0,0,1,588.218,721.447Z" transform="translate(-369.605 -706.659)" fill="#e4dbcd"/>
      </g>
      <g id="Group_14552" data-name="Group 14552" transform="translate(0 153.001)">
        <path id="Path_59037" data-name="Path 59037" d="M588.218,696.844c-7.092,0-12.626-2.952-17.978-5.806-5.329-2.842-10.363-5.527-16.886-5.527s-11.557,2.684-16.886,5.527c-5.352,2.854-10.886,5.806-17.978,5.806s-12.626-2.952-17.978-5.806c-5.329-2.843-10.363-5.527-16.886-5.527s-11.557,2.685-16.886,5.527c-5.352,2.854-10.886,5.806-17.978,5.806s-12.626-2.952-17.978-5.806c-5.329-2.843-10.363-5.527-16.886-5.527s-11.557,2.685-16.886,5.527c-5.352,2.854-10.886,5.806-17.978,5.806a27.115,27.115,0,0,1-9.429-1.753l.78-3.315a24.88,24.88,0,0,0,8.648,1.613c6.523,0,11.557-2.685,16.886-5.527,5.352-2.854,10.886-5.806,17.978-5.806s12.626,2.952,17.978,5.806c5.329,2.842,10.363,5.527,16.886,5.527s11.557-2.684,16.886-5.527c5.351-2.854,10.886-5.806,17.978-5.806s12.626,2.952,17.978,5.806c5.329,2.842,10.363,5.527,16.886,5.527s11.557-2.685,16.886-5.527c5.351-2.854,10.885-5.806,17.977-5.806s12.626,2.952,17.978,5.806c5.329,2.842,10.363,5.527,16.886,5.527a24.885,24.885,0,0,0,8.649-1.613l.78,3.315A27.115,27.115,0,0,1,588.218,696.844Z" transform="translate(-369.605 -682.056)" fill="#e4dbcd"/>
      </g>
      <g id="Group_14553" data-name="Group 14553" transform="translate(0 136.001)">
        <path id="Path_59038" data-name="Path 59038" d="M588.218,672.24c-7.092,0-12.626-2.951-17.978-5.805-5.329-2.843-10.363-5.527-16.886-5.527s-11.557,2.684-16.886,5.527c-5.352,2.854-10.886,5.805-17.978,5.805s-12.626-2.951-17.978-5.805c-5.329-2.843-10.363-5.527-16.886-5.527s-11.557,2.684-16.886,5.527c-5.352,2.854-10.886,5.805-17.978,5.805s-12.626-2.951-17.978-5.805c-5.329-2.843-10.363-5.527-16.886-5.527s-11.557,2.684-16.886,5.527c-5.352,2.854-10.886,5.805-17.978,5.805a27.112,27.112,0,0,1-9.429-1.752l.78-3.315a24.879,24.879,0,0,0,8.648,1.613c6.523,0,11.557-2.684,16.886-5.527,5.352-2.854,10.886-5.805,17.978-5.805s12.626,2.951,17.978,5.805c5.329,2.843,10.363,5.527,16.886,5.527s11.557-2.684,16.886-5.527c5.351-2.854,10.886-5.805,17.978-5.805s12.626,2.951,17.978,5.805c5.329,2.843,10.363,5.527,16.886,5.527s11.557-2.684,16.886-5.527c5.351-2.854,10.885-5.805,17.977-5.805s12.626,2.951,17.978,5.805c5.329,2.843,10.363,5.527,16.886,5.527a24.883,24.883,0,0,0,8.649-1.613l.78,3.315A27.111,27.111,0,0,1,588.218,672.24Z" transform="translate(-369.605 -657.453)" fill="#e4dbcd"/>
      </g>
      <g id="Group_14554" data-name="Group 14554" transform="translate(0 119)">
        <path id="Path_59039" data-name="Path 59039" d="M588.218,647.637c-7.092,0-12.626-2.952-17.978-5.806-5.329-2.842-10.363-5.527-16.886-5.527s-11.557,2.684-16.886,5.527c-5.352,2.854-10.886,5.806-17.978,5.806s-12.626-2.952-17.978-5.806c-5.329-2.843-10.363-5.527-16.886-5.527s-11.557,2.685-16.886,5.527c-5.352,2.854-10.886,5.806-17.978,5.806s-12.626-2.952-17.978-5.806c-5.329-2.843-10.363-5.527-16.886-5.527s-11.557,2.685-16.886,5.527c-5.352,2.854-10.886,5.806-17.978,5.806a27.121,27.121,0,0,1-9.429-1.752l.78-3.315a24.866,24.866,0,0,0,8.648,1.613c6.523,0,11.557-2.685,16.886-5.527,5.352-2.855,10.886-5.806,17.978-5.806s12.626,2.951,17.978,5.806c5.329,2.842,10.363,5.527,16.886,5.527s11.557-2.684,16.886-5.527c5.351-2.855,10.886-5.806,17.978-5.806s12.626,2.951,17.978,5.806c5.329,2.842,10.363,5.527,16.886,5.527s11.557-2.685,16.886-5.527c5.351-2.855,10.885-5.806,17.977-5.806s12.626,2.951,17.978,5.806c5.329,2.842,10.363,5.527,16.886,5.527a24.871,24.871,0,0,0,8.649-1.613l.78,3.315A27.118,27.118,0,0,1,588.218,647.637Z" transform="translate(-369.605 -632.849)" fill="#e4dbcd"/>
      </g>
      <g id="Group_14555" data-name="Group 14555" transform="translate(0 102)">
        <path id="Path_59040" data-name="Path 59040" d="M588.218,623.034c-7.092,0-12.626-2.952-17.978-5.806-5.329-2.842-10.363-5.527-16.886-5.527s-11.557,2.684-16.886,5.527c-5.352,2.854-10.886,5.806-17.978,5.806s-12.626-2.952-17.978-5.806c-5.329-2.843-10.363-5.527-16.886-5.527s-11.557,2.685-16.886,5.527c-5.352,2.854-10.886,5.806-17.978,5.806s-12.626-2.952-17.978-5.806c-5.329-2.843-10.363-5.527-16.886-5.527s-11.557,2.685-16.886,5.527c-5.352,2.854-10.886,5.806-17.978,5.806a27.125,27.125,0,0,1-9.429-1.752l.78-3.315a24.889,24.889,0,0,0,8.648,1.613c6.523,0,11.557-2.685,16.886-5.527,5.352-2.855,10.886-5.806,17.978-5.806s12.626,2.951,17.978,5.806c5.329,2.842,10.363,5.527,16.886,5.527s11.557-2.684,16.886-5.527c5.351-2.855,10.886-5.806,17.978-5.806s12.626,2.951,17.978,5.806c5.329,2.842,10.363,5.527,16.886,5.527s11.557-2.685,16.886-5.527c5.351-2.855,10.885-5.806,17.977-5.806s12.626,2.951,17.978,5.806c5.329,2.842,10.363,5.527,16.886,5.527a24.893,24.893,0,0,0,8.649-1.613l.78,3.315A27.123,27.123,0,0,1,588.218,623.034Z" transform="translate(-369.605 -608.246)" fill="#e4dbcd"/>
      </g>
      <g id="Group_14556" data-name="Group 14556" transform="translate(0 85)">
        <path id="Path_59041" data-name="Path 59041" d="M588.218,598.43c-7.092,0-12.626-2.951-17.978-5.806-5.329-2.842-10.363-5.527-16.886-5.527s-11.557,2.685-16.886,5.527c-5.352,2.855-10.886,5.806-17.978,5.806s-12.626-2.951-17.978-5.806c-5.329-2.842-10.363-5.527-16.886-5.527s-11.557,2.685-16.886,5.527c-5.352,2.855-10.886,5.806-17.978,5.806s-12.626-2.951-17.978-5.806c-5.329-2.842-10.363-5.527-16.886-5.527s-11.557,2.685-16.886,5.527c-5.352,2.855-10.886,5.806-17.978,5.806a27.118,27.118,0,0,1-9.429-1.752l.78-3.315a24.881,24.881,0,0,0,8.648,1.612c6.523,0,11.557-2.684,16.886-5.527,5.352-2.854,10.886-5.806,17.978-5.806s12.626,2.952,17.978,5.806c5.329,2.843,10.363,5.527,16.886,5.527s11.557-2.684,16.886-5.527c5.351-2.854,10.886-5.806,17.978-5.806s12.626,2.952,17.978,5.806c5.329,2.843,10.363,5.527,16.886,5.527s11.557-2.684,16.886-5.527c5.351-2.854,10.885-5.806,17.977-5.806s12.626,2.952,17.978,5.806c5.329,2.843,10.363,5.527,16.886,5.527a24.886,24.886,0,0,0,8.649-1.612l.78,3.315A27.115,27.115,0,0,1,588.218,598.43Z" transform="translate(-369.605 -583.642)" fill="#e4dbcd"/>
      </g>
      <g id="Group_14557" data-name="Group 14557" transform="translate(0 68)">
        <path id="Path_59042" data-name="Path 59042" d="M588.218,573.827c-7.092,0-12.626-2.952-17.978-5.806-5.329-2.842-10.363-5.527-16.886-5.527s-11.557,2.685-16.886,5.527c-5.352,2.854-10.886,5.806-17.978,5.806s-12.626-2.952-17.978-5.806c-5.329-2.842-10.363-5.527-16.886-5.527s-11.557,2.685-16.886,5.527c-5.352,2.854-10.886,5.806-17.978,5.806s-12.626-2.952-17.978-5.806c-5.329-2.842-10.363-5.527-16.886-5.527s-11.557,2.685-16.886,5.527c-5.352,2.854-10.886,5.806-17.978,5.806a27.108,27.108,0,0,1-9.429-1.752l.78-3.315a24.872,24.872,0,0,0,8.648,1.613c6.523,0,11.557-2.684,16.886-5.527,5.352-2.854,10.886-5.806,17.978-5.806s12.626,2.952,17.978,5.806c5.329,2.843,10.363,5.527,16.886,5.527s11.557-2.684,16.886-5.527c5.351-2.854,10.886-5.806,17.978-5.806s12.626,2.952,17.978,5.806c5.329,2.843,10.363,5.527,16.886,5.527s11.557-2.684,16.886-5.527c5.351-2.854,10.885-5.806,17.977-5.806s12.626,2.952,17.978,5.806c5.329,2.843,10.363,5.527,16.886,5.527a24.87,24.87,0,0,0,8.649-1.613l.78,3.315A27.1,27.1,0,0,1,588.218,573.827Z" transform="translate(-369.605 -559.039)" fill="#e4dbcd"/>
      </g>
      <g id="Group_14558" data-name="Group 14558" transform="translate(0 51)">
        <path id="Path_59043" data-name="Path 59043" d="M588.218,549.224c-7.092,0-12.626-2.952-17.978-5.806-5.329-2.842-10.363-5.527-16.886-5.527s-11.557,2.685-16.886,5.527c-5.352,2.854-10.886,5.806-17.978,5.806s-12.626-2.952-17.978-5.806c-5.329-2.842-10.363-5.527-16.886-5.527s-11.557,2.685-16.886,5.527c-5.352,2.854-10.886,5.806-17.978,5.806s-12.626-2.952-17.978-5.806c-5.329-2.842-10.363-5.527-16.886-5.527s-11.557,2.685-16.886,5.527c-5.352,2.854-10.886,5.806-17.978,5.806a27.128,27.128,0,0,1-9.429-1.752l.78-3.315a24.88,24.88,0,0,0,8.649,1.613c6.523,0,11.557-2.684,16.886-5.527,5.352-2.854,10.886-5.806,17.978-5.806s12.626,2.952,17.978,5.806c5.329,2.843,10.363,5.527,16.886,5.527s11.557-2.684,16.886-5.527c5.351-2.854,10.886-5.806,17.978-5.806s12.626,2.952,17.977,5.806c5.33,2.843,10.363,5.527,16.887,5.527s11.557-2.684,16.886-5.527c5.351-2.854,10.885-5.806,17.977-5.806s12.626,2.952,17.978,5.806c5.329,2.843,10.363,5.527,16.886,5.527a24.88,24.88,0,0,0,8.649-1.613l.78,3.315A27.126,27.126,0,0,1,588.218,549.224Z" transform="translate(-369.605 -534.436)" fill="#e4dbcd"/>
      </g>
      <g id="Group_14559" data-name="Group 14559" transform="translate(0 34)">
        <path id="Path_59044" data-name="Path 59044" d="M588.218,524.621c-7.092,0-12.626-2.952-17.978-5.806-5.329-2.842-10.363-5.527-16.886-5.527s-11.557,2.685-16.886,5.527c-5.352,2.854-10.886,5.806-17.978,5.806s-12.626-2.952-17.978-5.806c-5.329-2.842-10.363-5.527-16.886-5.527s-11.557,2.685-16.886,5.527c-5.352,2.854-10.886,5.806-17.978,5.806s-12.626-2.952-17.978-5.806c-5.329-2.842-10.363-5.527-16.886-5.527s-11.557,2.685-16.886,5.527c-5.352,2.854-10.886,5.806-17.978,5.806a27.113,27.113,0,0,1-9.429-1.752l.78-3.315a24.88,24.88,0,0,0,8.648,1.613c6.523,0,11.557-2.685,16.886-5.527,5.352-2.854,10.886-5.806,17.978-5.806s12.626,2.952,17.978,5.806c5.329,2.842,10.363,5.527,16.886,5.527s11.557-2.685,16.886-5.527c5.351-2.854,10.886-5.806,17.978-5.806s12.626,2.952,17.978,5.806c5.329,2.842,10.363,5.527,16.886,5.527s11.557-2.685,16.886-5.527c5.351-2.854,10.885-5.806,17.977-5.806s12.626,2.952,17.978,5.806c5.329,2.842,10.363,5.527,16.886,5.527a24.884,24.884,0,0,0,8.649-1.613l.78,3.315A27.113,27.113,0,0,1,588.218,524.621Z" transform="translate(-369.605 -509.833)" fill="#e4dbcd"/>
      </g>
      <g id="Group_14560" data-name="Group 14560" transform="translate(0 17.001)">
        <path id="Path_59045" data-name="Path 59045" d="M588.218,500.018c-7.092,0-12.626-2.952-17.978-5.806-5.329-2.842-10.363-5.527-16.886-5.527s-11.557,2.685-16.886,5.527c-5.352,2.854-10.886,5.806-17.978,5.806s-12.626-2.952-17.978-5.806c-5.329-2.842-10.363-5.527-16.886-5.527s-11.557,2.685-16.886,5.527c-5.352,2.854-10.886,5.806-17.978,5.806s-12.626-2.952-17.978-5.806c-5.329-2.842-10.363-5.527-16.886-5.527s-11.557,2.685-16.886,5.527c-5.352,2.854-10.886,5.806-17.978,5.806a27.128,27.128,0,0,1-9.429-1.753l.78-3.315a24.883,24.883,0,0,0,8.649,1.613c6.523,0,11.557-2.685,16.886-5.527,5.352-2.854,10.886-5.806,17.978-5.806s12.626,2.952,17.978,5.806c5.329,2.842,10.363,5.527,16.886,5.527s11.557-2.685,16.886-5.527c5.351-2.854,10.886-5.806,17.978-5.806s12.626,2.952,17.978,5.806c5.329,2.842,10.363,5.527,16.886,5.527s11.557-2.685,16.886-5.527c5.351-2.854,10.885-5.806,17.977-5.806s12.626,2.952,17.978,5.806c5.329,2.842,10.363,5.527,16.886,5.527a24.867,24.867,0,0,0,8.649-1.613l.78,3.315A27.115,27.115,0,0,1,588.218,500.018Z" transform="translate(-369.605 -485.23)" fill="#e4dbcd"/>
      </g>
      <g id="Group_14561" data-name="Group 14561">
        <path id="Path_59046" data-name="Path 59046" d="M588.218,475.414c-7.092,0-12.626-2.951-17.978-5.806-5.329-2.842-10.363-5.527-16.886-5.527s-11.557,2.685-16.886,5.527c-5.352,2.855-10.886,5.806-17.978,5.806s-12.626-2.951-17.978-5.806c-5.329-2.842-10.363-5.527-16.886-5.527s-11.557,2.685-16.886,5.527c-5.352,2.855-10.886,5.806-17.978,5.806s-12.626-2.951-17.978-5.806c-5.329-2.842-10.363-5.527-16.886-5.527s-11.557,2.685-16.886,5.527c-5.352,2.855-10.886,5.806-17.978,5.806a27.105,27.105,0,0,1-9.429-1.752l.78-3.315a24.872,24.872,0,0,0,8.648,1.613c6.523,0,11.557-2.685,16.886-5.527,5.352-2.854,10.886-5.806,17.978-5.806s12.626,2.952,17.978,5.806c5.329,2.842,10.363,5.527,16.886,5.527s11.557-2.684,16.886-5.527c5.351-2.854,10.886-5.806,17.978-5.806s12.626,2.952,17.978,5.806c5.329,2.842,10.363,5.527,16.886,5.527s11.557-2.685,16.886-5.527c5.351-2.854,10.885-5.806,17.977-5.806s12.626,2.952,17.978,5.806c5.329,2.842,10.363,5.527,16.886,5.527a24.877,24.877,0,0,0,8.649-1.613l.78,3.315A27.111,27.111,0,0,1,588.218,475.414Z" transform="translate(-369.605 -460.626)" fill="#e4dbcd"/>
      </g>
    </g>
  </g>
</svg>
